<svg xmlns="http://www.w3.org/2000/svg" viewBox="0 0 800 600" width="800" height="600" role="img"><defs><radialGradient id="gSky" cx="50%" cy="50%" r="88%"><stop offset="0%" stop-color="#d1443f"/><stop offset="46%" stop-color="#8e1c2f"/><stop offset="100%" stop-color="#43070f"/></radialGradient><linearGradient id="gWash" x1="0" y1="0" x2="0" y2="1"><stop offset="0%" stop-color="#43070f" stop-opacity="0.35"/><stop offset="40%" stop-color="#8e1c2f" stop-opacity="0"/><stop offset="100%" stop-color="#43070f" stop-opacity="0.55"/></linearGradient><linearGradient id="gEmb" x1="0" y1="0" x2="0.35" y2="1"><stop offset="0%" stop-color="#ffedd4"/><stop offset="48%" stop-color="#ffe7c6"/><stop offset="100%" stop-color="#c07a3e"/></linearGradient><linearGradient id="gGold" x1="0" y1="0" x2="0.5" y2="1"><stop offset="0%" stop-color="#fce7a6"/><stop offset="34%" stop-color="#f0c14a"/><stop offset="58%" stop-color="#fdecb8"/><stop offset="100%" stop-color="#9c7d30"/></linearGradient><linearGradient id="gMetal" x1="0.1" y1="0" x2="0.9" y2="1"><stop offset="0%" stop-color="#ffeed7"/><stop offset="32%" stop-color="#ffe7c6"/><stop offset="62%" stop-color="#dcab7b"/><stop offset="100%" stop-color="#c07a3e"/></linearGradient><radialGradient id="gFlame" cx="50%" cy="72%" r="70%"><stop offset="0%" stop-color="#fffdf2"/><stop offset="34%" stop-color="#fce7a6"/><stop offset="70%" stop-color="#f0c14a"/><stop offset="100%" stop-color="#e6402f"/></radialGradient><radialGradient id="gPetA" cx="42%" cy="38%" r="70%"><stop offset="0%" stop-color="#ffd277"/><stop offset="100%" stop-color="#e0a835"/></radialGradient><radialGradient id="gPetB" cx="42%" cy="38%" r="70%"><stop offset="0%" stop-color="#ed7569"/><stop offset="100%" stop-color="#c13627"/></radialGradient><linearGradient id="gWater" x1="0" y1="0" x2="0" y2="1"><stop offset="0%" stop-color="#ffb2a0" stop-opacity="0.35"/><stop offset="100%" stop-color="#43070f" stop-opacity="0.1"/></linearGradient><linearGradient id="gFoot" x1="0" y1="0" x2="0" y2="1"><stop offset="0%" stop-color="#43070f" stop-opacity="0"/><stop offset="100%" stop-color="#43070f" stop-opacity="0.55"/></linearGradient><radialGradient id="gVig" cx="50%" cy="46%" r="76%"><stop offset="55%" stop-color="#000" stop-opacity="0"/><stop offset="100%" stop-color="#000" stop-opacity="0.42"/></radialGradient><filter id="fGlow" x="-60%" y="-60%" width="220%" height="220%"><feGaussianBlur stdDeviation="24"/></filter><filter id="fSoft" x="-30%" y="-30%" width="160%" height="160%"><feGaussianBlur stdDeviation="5"/></filter><g id="flA"><g transform="rotate(0 0 0)"><circle cx="0" cy="0" r="20" fill="#e6402f"/><circle cx="0" cy="-12.4" r="8.4" fill="#ffbf3c" opacity="1"/><circle cx="8" cy="-9.5" r="8.4" fill="#ffbf3c" opacity="1"/><circle cx="12.2" cy="-2.2" r="8.4" fill="#ffbf3c" opacity="1"/><circle cx="10.7" cy="6.2" r="8.4" fill="#ffbf3c" opacity="1"/><circle cx="4.2" cy="11.7" r="8.4" fill="#ffbf3c" opacity="1"/><circle cx="-4.2" cy="11.7" r="8.4" fill="#ffbf3c" opacity="1"/><circle cx="-10.7" cy="6.2" r="8.4" fill="#ffbf3c" opacity="1"/><circle cx="-12.2" cy="-2.2" r="8.4" fill="#ffbf3c" opacity="1"/><circle cx="-8" cy="-9.5" r="8.4" fill="#ffbf3c" opacity="1"/><circle cx="2.5" cy="-5.4" r="6" fill="#e6402f" opacity="0.9"/><circle cx="5.8" cy="-1.4" r="6" fill="#e6402f" opacity="0.9"/><circle cx="4.7" cy="3.7" r="6" fill="#e6402f" opacity="0.9"/><circle cx="0.1" cy="6" r="6" fill="#e6402f" opacity="0.9"/><circle cx="-4.6" cy="3.8" r="6" fill="#e6402f" opacity="0.9"/><circle cx="-5.9" cy="-1.3" r="6" fill="#e6402f" opacity="0.9"/><circle cx="-2.7" cy="-5.4" r="6" fill="#e6402f" opacity="0.9"/><circle cx="0" cy="0" r="5.2" fill="#ffbf3c"/><circle cx="0" cy="0" r="2.4" fill="#e6402f" opacity="0.8"/></g></g><g id="flB"><g transform="rotate(0 0 0)"><circle cx="0" cy="0" r="20" fill="#ffbf3c"/><circle cx="0" cy="-12.4" r="8.4" fill="#e6402f" opacity="1"/><circle cx="8" cy="-9.5" r="8.4" fill="#e6402f" opacity="1"/><circle cx="12.2" cy="-2.2" r="8.4" fill="#e6402f" opacity="1"/><circle cx="10.7" cy="6.2" r="8.4" fill="#e6402f" opacity="1"/><circle cx="4.2" cy="11.7" r="8.4" fill="#e6402f" opacity="1"/><circle cx="-4.2" cy="11.7" r="8.4" fill="#e6402f" opacity="1"/><circle cx="-10.7" cy="6.2" r="8.4" fill="#e6402f" opacity="1"/><circle cx="-12.2" cy="-2.2" r="8.4" fill="#e6402f" opacity="1"/><circle cx="-8" cy="-9.5" r="8.4" fill="#e6402f" opacity="1"/><circle cx="2.5" cy="-5.4" r="6" fill="#ffbf3c" opacity="0.9"/><circle cx="5.8" cy="-1.4" r="6" fill="#ffbf3c" opacity="0.9"/><circle cx="4.7" cy="3.7" r="6" fill="#ffbf3c" opacity="0.9"/><circle cx="0.1" cy="6" r="6" fill="#ffbf3c" opacity="0.9"/><circle cx="-4.6" cy="3.8" r="6" fill="#ffbf3c" opacity="0.9"/><circle cx="-5.9" cy="-1.3" r="6" fill="#ffbf3c" opacity="0.9"/><circle cx="-2.7" cy="-5.4" r="6" fill="#ffbf3c" opacity="0.9"/><circle cx="0" cy="0" r="5.2" fill="#e6402f"/><circle cx="0" cy="0" r="2.4" fill="#ffbf3c" opacity="0.8"/></g></g><g id="flL"><path d="M0 0C-11 -12.6 -11 -29.4 0 -42C11 -29.4 11 -12.6 0 0Z" fill="#ffd9c8" opacity="0.4"/></g></defs><g><rect x="0" y="0" width="800" height="600" fill="url(#gSky)"/><rect x="0" y="0" width="800" height="600" fill="url(#gWash)"/></g><g transform="translate(400 300)"><circle cx="0" cy="0" r="216" fill="none" stroke="#e8bb58" stroke-width="2" opacity="0.4"/><circle cx="0" cy="-216" r="2.6" fill="#fce7a6" opacity="0.5"/><circle cx="66.7" cy="-205.4" r="2.6" fill="#fce7a6" opacity="0.5"/><circle cx="127" cy="-174.7" r="2.6" fill="#fce7a6" opacity="0.5"/><circle cx="174.7" cy="-127" r="2.6" fill="#fce7a6" opacity="0.5"/><circle cx="205.4" cy="-66.7" r="2.6" fill="#fce7a6" opacity="0.5"/><circle cx="216" cy="0" r="2.6" fill="#fce7a6" opacity="0.5"/><circle cx="205.4" cy="66.7" r="2.6" fill="#fce7a6" opacity="0.5"/><circle cx="174.7" cy="127" r="2.6" fill="#fce7a6" opacity="0.5"/><circle cx="127" cy="174.7" r="2.6" fill="#fce7a6" opacity="0.5"/><circle cx="66.7" cy="205.4" r="2.6" fill="#fce7a6" opacity="0.5"/><circle cx="0" cy="216" r="2.6" fill="#fce7a6" opacity="0.5"/><circle cx="-66.7" cy="205.4" r="2.6" fill="#fce7a6" opacity="0.5"/><circle cx="-127" cy="174.7" r="2.6" fill="#fce7a6" opacity="0.5"/><circle cx="-174.7" cy="127" r="2.6" fill="#fce7a6" opacity="0.5"/><circle cx="-205.4" cy="66.7" r="2.6" fill="#fce7a6" opacity="0.5"/><circle cx="-216" cy="0" r="2.6" fill="#fce7a6" opacity="0.5"/><circle cx="-205.4" cy="-66.7" r="2.6" fill="#fce7a6" opacity="0.5"/><circle cx="-174.7" cy="-127" r="2.6" fill="#fce7a6" opacity="0.5"/><circle cx="-127" cy="-174.7" r="2.6" fill="#fce7a6" opacity="0.5"/><circle cx="-66.7" cy="-205.4" r="2.6" fill="#fce7a6" opacity="0.5"/></g><circle cx="400" cy="300" r="180" fill="#ffb2a0" opacity="0.3" filter="url(#fGlow)"/><circle cx="400" cy="300" r="102" fill="#fce7a6" opacity="0.3" filter="url(#fGlow)"/><g transform="translate(400 300) scale(1.8 1.8)"><g><circle cx="0" cy="0" r="126" fill="#ffb2a0" opacity="0.4" filter="url(#fGlow)"/><path d="M-96-84H96L108 46Q54 76 0 60T-108 46Z" fill="url(#gPetB)"/><path d="M-96-84H-20L-16 62Q-64 62-108 46Z" fill="#fff" opacity="0.1"/><rect x="-100" y="-92" width="200" height="20" fill="url(#gGold)" rx="6"/><path d="M-108 40Q-54 70 0 54T108 40L112 62Q54 92 0 76T-112 62Z" fill="url(#gGold)" opacity="1"/><g fill="#fce7a6" opacity="0.8"><circle cx="-80" cy="-50" r="4"/><circle cx="-48" cy="-50" r="4"/><circle cx="-16" cy="-50" r="4"/><circle cx="16" cy="-50" r="4"/><circle cx="48" cy="-50" r="4"/><circle cx="80" cy="-50" r="4"/><circle cx="-80" cy="-28" r="4"/><circle cx="-48" cy="-28" r="4"/><circle cx="-16" cy="-28" r="4"/><circle cx="16" cy="-28" r="4"/><circle cx="48" cy="-28" r="4"/><circle cx="80" cy="-28" r="4"/><circle cx="-80" cy="-6" r="4"/><circle cx="-48" cy="-6" r="4"/><circle cx="-16" cy="-6" r="4"/><circle cx="16" cy="-6" r="4"/><circle cx="48" cy="-6" r="4"/><circle cx="80" cy="-6" r="4"/><circle cx="-80" cy="16" r="4"/><circle cx="-48" cy="16" r="4"/><circle cx="-16" cy="16" r="4"/><circle cx="16" cy="16" r="4"/><circle cx="48" cy="16" r="4"/><circle cx="80" cy="16" r="4"/><circle cx="-80" cy="38" r="4"/><circle cx="-48" cy="38" r="4"/><circle cx="-16" cy="38" r="4"/><circle cx="16" cy="38" r="4"/><circle cx="48" cy="38" r="4"/><circle cx="80" cy="38" r="4"/></g><g transform="translate(0 74)"><ellipse cx="0" cy="0" rx="30" ry="34" fill="#c07a3e"/><ellipse cx="-9" cy="-10" rx="11" ry="13" fill="#fff" opacity="0.2"/><g stroke="#e6402f" stroke-width="4"><line x1="-28" y1="-6" x2="28" y2="-6"/><line x1="-30" y1="6" x2="30" y2="6"/></g><g stroke="#ffd25e" stroke-width="3" stroke-linecap="round"><line x1="0" y1="-32" x2="-14" y2="-52"/><line x1="0" y1="-32" x2="0" y2="-56"/><line x1="0" y1="-32" x2="14" y2="-52"/></g></g></g></g><g><circle cx="19.4" cy="331.5" r="3.2" fill="#f0c14a" opacity="0.6"/><circle cx="19.4" cy="331.5" r="10.1" fill="#f0c14a" opacity="0.1" filter="url(#fSoft)"/><circle cx="420.3" cy="487.4" r="1.7" fill="#f0c14a" opacity="0.4"/><circle cx="770.3" cy="161.3" r="2.1" fill="#f0c14a" opacity="0.4"/><circle cx="770.3" cy="161.3" r="6.6" fill="#f0c14a" opacity="0.1" filter="url(#fSoft)"/><circle cx="412.2" cy="375.6" r="3.1" fill="#f0c14a" opacity="0.4"/><circle cx="697.5" cy="439.9" r="2" fill="#f0c14a" opacity="0.7"/><circle cx="159.2" cy="228.2" r="1.6" fill="#f0c14a" opacity="0.4"/><circle cx="159.2" cy="228.2" r="5.2" fill="#f0c14a" opacity="0.1" filter="url(#fSoft)"/><circle cx="29.3" cy="391.4" r="3.2" fill="#f0c14a" opacity="0.5"/><circle cx="29.3" cy="391.4" r="10.4" fill="#f0c14a" opacity="0.1" filter="url(#fSoft)"/><circle cx="639.7" cy="501" r="2.1" fill="#f0c14a" opacity="0.3"/><circle cx="598" cy="443.1" r="4.1" fill="#f0c14a" opacity="0.5"/><circle cx="501" cy="151.6" r="2.4" fill="#f0c14a" opacity="0.4"/><circle cx="501" cy="151.6" r="7.8" fill="#f0c14a" opacity="0.1" filter="url(#fSoft)"/><circle cx="622.7" cy="462.6" r="2.7" fill="#f0c14a" opacity="0.7"/><circle cx="607.3" cy="149.7" r="4.3" fill="#f0c14a" opacity="0.5"/><circle cx="607.3" cy="149.7" r="13.9" fill="#f0c14a" opacity="0.1" filter="url(#fSoft)"/></g><g><g transform="translate(16 16) scale(0.8 0.8)"><path d="M0 0H108C86 8 70 22 62 44C54 66 40 82 18 90V108C-2 96-8 74-2 54C4 34 20 22 44 18C24 16 8 10 0 0Z" fill="#e8bb58" opacity="0.2"/><path d="M6 6H86C60 18 44 40 34 74" fill="none" stroke="#fce7a6" stroke-width="2" opacity="0.3"/></g><g transform="translate(784 16) scale(-0.8 0.8)"><path d="M0 0H108C86 8 70 22 62 44C54 66 40 82 18 90V108C-2 96-8 74-2 54C4 34 20 22 44 18C24 16 8 10 0 0Z" fill="#e8bb58" opacity="0.2"/><path d="M6 6H86C60 18 44 40 34 74" fill="none" stroke="#fce7a6" stroke-width="2" opacity="0.3"/></g><g transform="translate(16 584) scale(0.8 -0.8)"><path d="M0 0H108C86 8 70 22 62 44C54 66 40 82 18 90V108C-2 96-8 74-2 54C4 34 20 22 44 18C24 16 8 10 0 0Z" fill="#e8bb58" opacity="0.2"/><path d="M6 6H86C60 18 44 40 34 74" fill="none" stroke="#fce7a6" stroke-width="2" opacity="0.3"/></g><g transform="translate(784 584) scale(-0.8 -0.8)"><path d="M0 0H108C86 8 70 22 62 44C54 66 40 82 18 90V108C-2 96-8 74-2 54C4 34 20 22 44 18C24 16 8 10 0 0Z" fill="#e8bb58" opacity="0.2"/><path d="M6 6H86C60 18 44 40 34 74" fill="none" stroke="#fce7a6" stroke-width="2" opacity="0.3"/></g></g><g fill="none"><rect x="12" y="12" width="776" height="576" stroke="#e8bb58" stroke-width="2.4" opacity="0.5" rx="8"/><rect x="19" y="19" width="762" height="562" stroke="#fce7a6" stroke-width="1" opacity="0.3" rx="5"/></g><rect x="0" y="0" width="800" height="600" fill="url(#gVig)"/></svg>
