<svg xmlns="http://www.w3.org/2000/svg" viewBox="0 0 800 600" width="800" height="600" role="img"><defs><radialGradient id="gSky" cx="50%" cy="46%" r="88%"><stop offset="0%" stop-color="#ffb43f"/><stop offset="46%" stop-color="#e2542a"/><stop offset="100%" stop-color="#7a1a1e"/></radialGradient><linearGradient id="gWash" x1="0" y1="0" x2="0" y2="1"><stop offset="0%" stop-color="#7a1a1e" stop-opacity="0.35"/><stop offset="40%" stop-color="#e2542a" stop-opacity="0"/><stop offset="100%" stop-color="#7a1a1e" stop-opacity="0.55"/></linearGradient><linearGradient id="gEmb" x1="0" y1="0" x2="0.35" y2="1"><stop offset="0%" stop-color="#fff1d8"/><stop offset="48%" stop-color="#ffeccb"/><stop offset="100%" stop-color="#cd7c34"/></linearGradient><linearGradient id="gGold" x1="0" y1="0" x2="0.5" y2="1"><stop offset="0%" stop-color="#ffeeb4"/><stop offset="34%" stop-color="#f5c443"/><stop offset="58%" stop-color="#fff1c3"/><stop offset="100%" stop-color="#9f7f2c"/></linearGradient><linearGradient id="gMetal" x1="0.1" y1="0" x2="0.9" y2="1"><stop offset="0%" stop-color="#fff2db"/><stop offset="32%" stop-color="#ffeccb"/><stop offset="62%" stop-color="#e4ae78"/><stop offset="100%" stop-color="#cd7c34"/></linearGradient><radialGradient id="gFlame" cx="50%" cy="72%" r="70%"><stop offset="0%" stop-color="#fffdf2"/><stop offset="34%" stop-color="#ffeeb4"/><stop offset="70%" stop-color="#f5c443"/><stop offset="100%" stop-color="#ef5a26"/></radialGradient><radialGradient id="gPetA" cx="42%" cy="38%" r="70%"><stop offset="0%" stop-color="#ffd977"/><stop offset="100%" stop-color="#e0b135"/></radialGradient><radialGradient id="gPetB" cx="42%" cy="38%" r="70%"><stop offset="0%" stop-color="#f38863"/><stop offset="100%" stop-color="#c94c20"/></radialGradient><linearGradient id="gWater" x1="0" y1="0" x2="0" y2="1"><stop offset="0%" stop-color="#ffe1a0" stop-opacity="0.35"/><stop offset="100%" stop-color="#7a1a1e" stop-opacity="0.1"/></linearGradient><linearGradient id="gFoot" x1="0" y1="0" x2="0" y2="1"><stop offset="0%" stop-color="#7a1a1e" stop-opacity="0"/><stop offset="100%" stop-color="#7a1a1e" stop-opacity="0.55"/></linearGradient><radialGradient id="gVig" cx="50%" cy="46%" r="76%"><stop offset="55%" stop-color="#000" stop-opacity="0"/><stop offset="100%" stop-color="#000" stop-opacity="0.42"/></radialGradient><filter id="fGlow" x="-60%" y="-60%" width="220%" height="220%"><feGaussianBlur stdDeviation="24"/></filter><filter id="fSoft" x="-30%" y="-30%" width="160%" height="160%"><feGaussianBlur stdDeviation="5"/></filter><g id="flA"><g transform="rotate(0 0 0)"><circle cx="0" cy="0" r="20" fill="#ef5a26"/><circle cx="0" cy="-12.4" r="8.4" fill="#ffc93c" opacity="1"/><circle cx="8" cy="-9.5" r="8.4" fill="#ffc93c" opacity="1"/><circle cx="12.2" cy="-2.2" r="8.4" fill="#ffc93c" opacity="1"/><circle cx="10.7" cy="6.2" r="8.4" fill="#ffc93c" opacity="1"/><circle cx="4.2" cy="11.7" r="8.4" fill="#ffc93c" opacity="1"/><circle cx="-4.2" cy="11.7" r="8.4" fill="#ffc93c" opacity="1"/><circle cx="-10.7" cy="6.2" r="8.4" fill="#ffc93c" opacity="1"/><circle cx="-12.2" cy="-2.2" r="8.4" fill="#ffc93c" opacity="1"/><circle cx="-8" cy="-9.5" r="8.4" fill="#ffc93c" opacity="1"/><circle cx="2.5" cy="-5.4" r="6" fill="#ef5a26" opacity="0.9"/><circle cx="5.8" cy="-1.4" r="6" fill="#ef5a26" opacity="0.9"/><circle cx="4.7" cy="3.7" r="6" fill="#ef5a26" opacity="0.9"/><circle cx="0.1" cy="6" r="6" fill="#ef5a26" opacity="0.9"/><circle cx="-4.6" cy="3.8" r="6" fill="#ef5a26" opacity="0.9"/><circle cx="-5.9" cy="-1.3" r="6" fill="#ef5a26" opacity="0.9"/><circle cx="-2.7" cy="-5.4" r="6" fill="#ef5a26" opacity="0.9"/><circle cx="0" cy="0" r="5.2" fill="#ffc93c"/><circle cx="0" cy="0" r="2.4" fill="#ef5a26" opacity="0.8"/></g></g><g id="flB"><g transform="rotate(0 0 0)"><circle cx="0" cy="0" r="20" fill="#ffc93c"/><circle cx="0" cy="-12.4" r="8.4" fill="#ef5a26" opacity="1"/><circle cx="8" cy="-9.5" r="8.4" fill="#ef5a26" opacity="1"/><circle cx="12.2" cy="-2.2" r="8.4" fill="#ef5a26" opacity="1"/><circle cx="10.7" cy="6.2" r="8.4" fill="#ef5a26" opacity="1"/><circle cx="4.2" cy="11.7" r="8.4" fill="#ef5a26" opacity="1"/><circle cx="-4.2" cy="11.7" r="8.4" fill="#ef5a26" opacity="1"/><circle cx="-10.7" cy="6.2" r="8.4" fill="#ef5a26" opacity="1"/><circle cx="-12.2" cy="-2.2" r="8.4" fill="#ef5a26" opacity="1"/><circle cx="-8" cy="-9.5" r="8.4" fill="#ef5a26" opacity="1"/><circle cx="2.5" cy="-5.4" r="6" fill="#ffc93c" opacity="0.9"/><circle cx="5.8" cy="-1.4" r="6" fill="#ffc93c" opacity="0.9"/><circle cx="4.7" cy="3.7" r="6" fill="#ffc93c" opacity="0.9"/><circle cx="0.1" cy="6" r="6" fill="#ffc93c" opacity="0.9"/><circle cx="-4.6" cy="3.8" r="6" fill="#ffc93c" opacity="0.9"/><circle cx="-5.9" cy="-1.3" r="6" fill="#ffc93c" opacity="0.9"/><circle cx="-2.7" cy="-5.4" r="6" fill="#ffc93c" opacity="0.9"/><circle cx="0" cy="0" r="5.2" fill="#ef5a26"/><circle cx="0" cy="0" r="2.4" fill="#ffc93c" opacity="0.8"/></g></g><g id="flL"><path d="M0 0C-11 -12.6 -11 -29.4 0 -42C11 -29.4 11 -12.6 0 0Z" fill="#ffe6b8" opacity="0.4"/></g></defs><g><rect x="0" y="0" width="800" height="600" fill="url(#gSky)"/><rect x="0" y="0" width="800" height="600" fill="url(#gWash)"/></g><g opacity="0.1"><polygon points="-10,0 10,0 26,-760 -26,-760" fill="#ffe1a0" transform="translate(400 276) rotate(0 0 0)"/><polygon points="-10,0 10,0 26,-760 -26,-760" fill="#ffe1a0" transform="translate(400 276) rotate(28.5 0 0)"/><polygon points="-10,0 10,0 26,-760 -26,-760" fill="#ffe1a0" transform="translate(400 276) rotate(45 0 0)"/><polygon points="-10,0 10,0 26,-760 -26,-760" fill="#ffe1a0" transform="translate(400 276) rotate(73.5 0 0)"/><polygon points="-10,0 10,0 26,-760 -26,-760" fill="#ffe1a0" transform="translate(400 276) rotate(90 0 0)"/><polygon points="-10,0 10,0 26,-760 -26,-760" fill="#ffe1a0" transform="translate(400 276) rotate(118.5 0 0)"/><polygon points="-10,0 10,0 26,-760 -26,-760" fill="#ffe1a0" transform="translate(400 276) rotate(135 0 0)"/><polygon points="-10,0 10,0 26,-760 -26,-760" fill="#ffe1a0" transform="translate(400 276) rotate(163.5 0 0)"/><polygon points="-10,0 10,0 26,-760 -26,-760" fill="#ffe1a0" transform="translate(400 276) rotate(180 0 0)"/><polygon points="-10,0 10,0 26,-760 -26,-760" fill="#ffe1a0" transform="translate(400 276) rotate(208.5 0 0)"/><polygon points="-10,0 10,0 26,-760 -26,-760" fill="#ffe1a0" transform="translate(400 276) rotate(225 0 0)"/><polygon points="-10,0 10,0 26,-760 -26,-760" fill="#ffe1a0" transform="translate(400 276) rotate(253.5 0 0)"/><polygon points="-10,0 10,0 26,-760 -26,-760" fill="#ffe1a0" transform="translate(400 276) rotate(270 0 0)"/><polygon points="-10,0 10,0 26,-760 -26,-760" fill="#ffe1a0" transform="translate(400 276) rotate(298.5 0 0)"/><polygon points="-10,0 10,0 26,-760 -26,-760" fill="#ffe1a0" transform="translate(400 276) rotate(315 0 0)"/><polygon points="-10,0 10,0 26,-760 -26,-760" fill="#ffe1a0" transform="translate(400 276) rotate(343.5 0 0)"/></g><g transform="translate(400 276)"><defs><g id="mda"><g transform="translate(0 -180)"><path d="M0 0C-14.4 -29 -7.9 -43.1 0 -46.8C7.9 -43.1 14.4 -29 0 0Z" fill="none" stroke="#f0c052" stroke-width="2.2" opacity="0.4" transform="rotate(180 0 0)"/></g></g><g id="mdb"><g transform="translate(0 -223.2)"><circle cx="0" cy="0" r="4" fill="#ffeeb4" opacity="0.6"/><path d="M-9 0Q0 9 9 0Q0 -9 -9 0Z" fill="#f0c052" opacity="0.3"/></g></g></defs><circle cx="0" cy="0" r="154.8" fill="none" stroke="#f0c052" stroke-width="1" opacity="0.2"/><circle cx="0" cy="0" r="180" fill="none" stroke="#f0c052" stroke-width="1.4" opacity="0.3"/><circle cx="0" cy="0" r="201.6" fill="none" stroke="#f0c052" stroke-width="1" opacity="0.2" stroke-dasharray="2 9"/><use href="#mda" transform="rotate(0 0 0)"/><use href="#mda" transform="rotate(20 0 0)"/><use href="#mda" transform="rotate(40 0 0)"/><use href="#mda" transform="rotate(60 0 0)"/><use href="#mda" transform="rotate(80 0 0)"/><use href="#mda" transform="rotate(100 0 0)"/><use href="#mda" transform="rotate(120 0 0)"/><use href="#mda" transform="rotate(140 0 0)"/><use href="#mda" transform="rotate(160 0 0)"/><use href="#mda" transform="rotate(180 0 0)"/><use href="#mda" transform="rotate(200 0 0)"/><use href="#mda" transform="rotate(220 0 0)"/><use href="#mda" transform="rotate(240 0 0)"/><use href="#mda" transform="rotate(260 0 0)"/><use href="#mda" transform="rotate(280 0 0)"/><use href="#mda" transform="rotate(300 0 0)"/><use href="#mda" transform="rotate(320 0 0)"/><use href="#mda" transform="rotate(340 0 0)"/><use href="#mdb" transform="rotate(0 0 0)"/><use href="#mdb" transform="rotate(12 0 0)"/><use href="#mdb" transform="rotate(24 0 0)"/><use href="#mdb" transform="rotate(36 0 0)"/><use href="#mdb" transform="rotate(48 0 0)"/><use href="#mdb" transform="rotate(60 0 0)"/><use href="#mdb" transform="rotate(72 0 0)"/><use href="#mdb" transform="rotate(84 0 0)"/><use href="#mdb" transform="rotate(96 0 0)"/><use href="#mdb" transform="rotate(108 0 0)"/><use href="#mdb" transform="rotate(120 0 0)"/><use href="#mdb" transform="rotate(132 0 0)"/><use href="#mdb" transform="rotate(144 0 0)"/><use href="#mdb" transform="rotate(156 0 0)"/><use href="#mdb" transform="rotate(168 0 0)"/><use href="#mdb" transform="rotate(180 0 0)"/><use href="#mdb" transform="rotate(192 0 0)"/><use href="#mdb" transform="rotate(204 0 0)"/><use href="#mdb" transform="rotate(216 0 0)"/><use href="#mdb" transform="rotate(228 0 0)"/><use href="#mdb" transform="rotate(240 0 0)"/><use href="#mdb" transform="rotate(252 0 0)"/><use href="#mdb" transform="rotate(264 0 0)"/><use href="#mdb" transform="rotate(276 0 0)"/><use href="#mdb" transform="rotate(288 0 0)"/><use href="#mdb" transform="rotate(300 0 0)"/><use href="#mdb" transform="rotate(312 0 0)"/><use href="#mdb" transform="rotate(324 0 0)"/><use href="#mdb" transform="rotate(336 0 0)"/><use href="#mdb" transform="rotate(348 0 0)"/></g><g><path d="M-20 632L-20 442Q-67.04 294.2091569339391 -20 306.2091569339391Q27.040000000000006 320.2091569339391 64 404.5Q100.96 384.9354390753433 148 396.9354390753433Q195.04000000000002 410.9354390753433 232 404.5Q268.96 267.02410378609784 316 279.02410378609784Q363.04 293.02410378609784 400 404.5Q436.96 364.13305512687657 484 376.13305512687657Q531.04 390.13305512687657 568 404.5Q604.96 310.03831094829366 652 322.03831094829366Q699.04 336.03831094829366 736 404.5Q772.96 394.400001570466 820 406.400001570466Q867.04 420.400001570466 904 404.5L820 632Z" fill="#a52c1e"/><path d="M-20 632L-20 502Q-78.80000000000001 386.18238816887606 -20 398.18238816887606Q38.800000000000004 412.18238816887606 85 474.5Q131.2 452.9202811392024 190 464.9202811392024Q248.8 478.9202811392024 295 474.5Q341.2 407.7937542005675 400 419.7937542005675Q458.8 433.7937542005675 505 474.5Q551.2 462.10628524026833 610 474.10628524026833Q668.8 488.10628524026833 715 474.5Q761.2 405.6491362293018 820 417.6491362293018Q878.8 431.6491362293018 925 474.5L820 632Z" fill="#4f0f13"/></g><g><g transform="translate(100 441) scale(0.3 0.3)"><circle cx="0" cy="-30" r="70" fill="#f5c443" opacity="0.2" filter="url(#fGlow)"/><path d="M-84 20C-88 52-46 72 0 72S88 52 84 20Z" fill="#4f0f13"/><ellipse cx="0" cy="20" rx="84" ry="20" fill="#f5c443" opacity="0.9"/><path d="M0-70C-24-40-30-18-18-2C-8 10 8 10 18-2C30-18 24-40 0-70Z" fill="url(#gFlame)"/></g><g transform="translate(200 441) scale(0.2 0.2)"><circle cx="0" cy="-30" r="70" fill="#f5c443" opacity="0.2" filter="url(#fGlow)"/><path d="M-84 20C-88 52-46 72 0 72S88 52 84 20Z" fill="#4f0f13"/><ellipse cx="0" cy="20" rx="84" ry="20" fill="#f5c443" opacity="0.9"/><path d="M0-70C-24-40-30-18-18-2C-8 10 8 10 18-2C30-18 24-40 0-70Z" fill="url(#gFlame)"/></g><g transform="translate(300 441) scale(0.3 0.3)"><circle cx="0" cy="-30" r="70" fill="#f5c443" opacity="0.2" filter="url(#fGlow)"/><path d="M-84 20C-88 52-46 72 0 72S88 52 84 20Z" fill="#4f0f13"/><ellipse cx="0" cy="20" rx="84" ry="20" fill="#f5c443" opacity="0.9"/><path d="M0-70C-24-40-30-18-18-2C-8 10 8 10 18-2C30-18 24-40 0-70Z" fill="url(#gFlame)"/></g><g transform="translate(400 441) scale(0.2 0.2)"><circle cx="0" cy="-30" r="70" fill="#f5c443" opacity="0.2" filter="url(#fGlow)"/><path d="M-84 20C-88 52-46 72 0 72S88 52 84 20Z" fill="#4f0f13"/><ellipse cx="0" cy="20" rx="84" ry="20" fill="#f5c443" opacity="0.9"/><path d="M0-70C-24-40-30-18-18-2C-8 10 8 10 18-2C30-18 24-40 0-70Z" fill="url(#gFlame)"/></g><g transform="translate(500 441) scale(0.3 0.3)"><circle cx="0" cy="-30" r="70" fill="#f5c443" opacity="0.2" filter="url(#fGlow)"/><path d="M-84 20C-88 52-46 72 0 72S88 52 84 20Z" fill="#4f0f13"/><ellipse cx="0" cy="20" rx="84" ry="20" fill="#f5c443" opacity="0.9"/><path d="M0-70C-24-40-30-18-18-2C-8 10 8 10 18-2C30-18 24-40 0-70Z" fill="url(#gFlame)"/></g><g transform="translate(600 441) scale(0.2 0.2)"><circle cx="0" cy="-30" r="70" fill="#f5c443" opacity="0.2" filter="url(#fGlow)"/><path d="M-84 20C-88 52-46 72 0 72S88 52 84 20Z" fill="#4f0f13"/><ellipse cx="0" cy="20" rx="84" ry="20" fill="#f5c443" opacity="0.9"/><path d="M0-70C-24-40-30-18-18-2C-8 10 8 10 18-2C30-18 24-40 0-70Z" fill="url(#gFlame)"/></g><g transform="translate(700 441) scale(0.3 0.3)"><circle cx="0" cy="-30" r="70" fill="#f5c443" opacity="0.2" filter="url(#fGlow)"/><path d="M-84 20C-88 52-46 72 0 72S88 52 84 20Z" fill="#4f0f13"/><ellipse cx="0" cy="20" rx="84" ry="20" fill="#f5c443" opacity="0.9"/><path d="M0-70C-24-40-30-18-18-2C-8 10 8 10 18-2C30-18 24-40 0-70Z" fill="url(#gFlame)"/></g></g><circle cx="400" cy="276" r="180" fill="#ffe1a0" opacity="0.3" filter="url(#fGlow)"/><circle cx="400" cy="276" r="102" fill="#ffeeb4" opacity="0.3" filter="url(#fGlow)"/><g><path d="M220 468V264A180 204.00000000000003 0 0 1 580 264V468" fill="none" stroke="#f0c052" stroke-width="5" opacity="0.5"/><path d="M232 468V264A168 192.00000000000003 0 0 1 568 264V468" fill="none" stroke="#ffeeb4" stroke-width="1.6" opacity="0.4"/><g transform="translate(224 264)"><path d="M0 0C-5 -5.4 -5 -12.6 0 -18C5 -12.6 5 -5.4 0 0Z" fill="#f0c052" opacity="0.5" transform="rotate(180 0 0)"/><circle cx="0" cy="22" r="4" fill="#ffeeb4" opacity="0.5"/></g><g transform="translate(232.6 202.2)"><path d="M0 0C-5 -5.4 -5 -12.6 0 -18C5 -12.6 5 -5.4 0 0Z" fill="#f0c052" opacity="0.5" transform="rotate(180 0 0)"/><circle cx="0" cy="22" r="4" fill="#ffeeb4" opacity="0.5"/></g><g transform="translate(257.6 146.4)"><path d="M0 0C-5 -5.4 -5 -12.6 0 -18C5 -12.6 5 -5.4 0 0Z" fill="#f0c052" opacity="0.5" transform="rotate(180 0 0)"/><circle cx="0" cy="22" r="4" fill="#ffeeb4" opacity="0.5"/></g><g transform="translate(296.5 102.2)"><path d="M0 0C-5 -5.4 -5 -12.6 0 -18C5 -12.6 5 -5.4 0 0Z" fill="#f0c052" opacity="0.5" transform="rotate(180 0 0)"/><circle cx="0" cy="22" r="4" fill="#ffeeb4" opacity="0.5"/></g><g transform="translate(345.6 73.8)"><path d="M0 0C-5 -5.4 -5 -12.6 0 -18C5 -12.6 5 -5.4 0 0Z" fill="#f0c052" opacity="0.5" transform="rotate(180 0 0)"/><circle cx="0" cy="22" r="4" fill="#ffeeb4" opacity="0.5"/></g><g transform="translate(400 64)"><path d="M0 0C-5 -5.4 -5 -12.6 0 -18C5 -12.6 5 -5.4 0 0Z" fill="#f0c052" opacity="0.5" transform="rotate(180 0 0)"/><circle cx="0" cy="22" r="4" fill="#ffeeb4" opacity="0.5"/></g><g transform="translate(454.4 73.8)"><path d="M0 0C-5 -5.4 -5 -12.6 0 -18C5 -12.6 5 -5.4 0 0Z" fill="#f0c052" opacity="0.5" transform="rotate(180 0 0)"/><circle cx="0" cy="22" r="4" fill="#ffeeb4" opacity="0.5"/></g><g transform="translate(503.5 102.2)"><path d="M0 0C-5 -5.4 -5 -12.6 0 -18C5 -12.6 5 -5.4 0 0Z" fill="#f0c052" opacity="0.5" transform="rotate(180 0 0)"/><circle cx="0" cy="22" r="4" fill="#ffeeb4" opacity="0.5"/></g><g transform="translate(542.4 146.4)"><path d="M0 0C-5 -5.4 -5 -12.6 0 -18C5 -12.6 5 -5.4 0 0Z" fill="#f0c052" opacity="0.5" transform="rotate(180 0 0)"/><circle cx="0" cy="22" r="4" fill="#ffeeb4" opacity="0.5"/></g><g transform="translate(567.4 202.2)"><path d="M0 0C-5 -5.4 -5 -12.6 0 -18C5 -12.6 5 -5.4 0 0Z" fill="#f0c052" opacity="0.5" transform="rotate(180 0 0)"/><circle cx="0" cy="22" r="4" fill="#ffeeb4" opacity="0.5"/></g><g transform="translate(576 264)"><path d="M0 0C-5 -5.4 -5 -12.6 0 -18C5 -12.6 5 -5.4 0 0Z" fill="#f0c052" opacity="0.5" transform="rotate(180 0 0)"/><circle cx="0" cy="22" r="4" fill="#ffeeb4" opacity="0.5"/></g><circle cx="400" cy="56" r="8" fill="#ffeeb4" opacity="0.6"/></g><g transform="translate(400 276) scale(1.3 1.3)"><g><circle cx="0" cy="0" r="126" fill="#ffe1a0" opacity="0.4" filter="url(#fGlow)"/><path d="M0 0C-20 -60 -11 -110.4 0 -120C11 -110.4 20 -60 0 0Z" fill="#cd7c34" opacity="0.4" transform="rotate(15 0 0)"/><path d="M0 0C-20 -60 -11 -110.4 0 -120C11 -110.4 20 -60 0 0Z" fill="#cd7c34" opacity="0.4" transform="rotate(45 0 0)"/><path d="M0 0C-20 -60 -11 -110.4 0 -120C11 -110.4 20 -60 0 0Z" fill="#cd7c34" opacity="0.4" transform="rotate(75 0 0)"/><path d="M0 0C-20 -60 -11 -110.4 0 -120C11 -110.4 20 -60 0 0Z" fill="#cd7c34" opacity="0.4" transform="rotate(105 0 0)"/><path d="M0 0C-20 -60 -11 -110.4 0 -120C11 -110.4 20 -60 0 0Z" fill="#cd7c34" opacity="0.4" transform="rotate(135 0 0)"/><path d="M0 0C-20 -60 -11 -110.4 0 -120C11 -110.4 20 -60 0 0Z" fill="#cd7c34" opacity="0.4" transform="rotate(165 0 0)"/><path d="M0 0C-20 -60 -11 -110.4 0 -120C11 -110.4 20 -60 0 0Z" fill="#cd7c34" opacity="0.4" transform="rotate(195 0 0)"/><path d="M0 0C-20 -60 -11 -110.4 0 -120C11 -110.4 20 -60 0 0Z" fill="#cd7c34" opacity="0.4" transform="rotate(225 0 0)"/><path d="M0 0C-20 -60 -11 -110.4 0 -120C11 -110.4 20 -60 0 0Z" fill="#cd7c34" opacity="0.4" transform="rotate(255 0 0)"/><path d="M0 0C-20 -60 -11 -110.4 0 -120C11 -110.4 20 -60 0 0Z" fill="#cd7c34" opacity="0.4" transform="rotate(285 0 0)"/><path d="M0 0C-20 -60 -11 -110.4 0 -120C11 -110.4 20 -60 0 0Z" fill="#cd7c34" opacity="0.4" transform="rotate(315 0 0)"/><path d="M0 0C-20 -60 -11 -110.4 0 -120C11 -110.4 20 -60 0 0Z" fill="#cd7c34" opacity="0.4" transform="rotate(345 0 0)"/><circle cx="0" cy="0" r="96" fill="#7a1a1e" opacity="0.3"/><circle cx="0" cy="0" r="96" fill="none" stroke="url(#gGold)" stroke-width="6"/><circle cx="0" cy="0" r="84" fill="none" stroke="url(#gGold)" stroke-width="2" stroke-dasharray="6 8"/><g transform="translate(-4 -4)"><g><rect x="-7.5" y="-58" width="15.1" height="116" fill="url(#gGold)" rx="3.3"/><rect x="-58" y="-7.5" width="116" height="15.1" fill="url(#gGold)" rx="3.3"/><rect x="-7.5" y="-58" width="36" height="15.1" fill="url(#gGold)" rx="3.3"/><rect x="42.9" y="7.5" width="15.1" height="36" fill="url(#gGold)" rx="3.3"/><rect x="-13.9" y="42.9" width="36" height="15.1" fill="url(#gGold)" rx="3.3"/><rect x="-58" y="-58" width="15.1" height="36" fill="url(#gGold)" rx="3.3"/><g fill="url(#gGold)" opacity="0.9"><circle cx="31.9" cy="-31.9" r="4.5"/><circle cx="-31.9" cy="31.9" r="4.5"/><circle cx="31.9" cy="31.9" r="4.5"/><circle cx="-31.9" cy="-31.9" r="4.5"/></g></g></g></g></g><g><circle cx="610.1" cy="469" r="4" fill="#f5c443" opacity="0.6"/><circle cx="278.5" cy="406.9" r="2.6" fill="#f5c443" opacity="0.5"/><circle cx="271.2" cy="84.6" r="2.7" fill="#f5c443" opacity="0.4"/><circle cx="271.2" cy="84.6" r="8.6" fill="#f5c443" opacity="0.1" filter="url(#fSoft)"/><circle cx="382.4" cy="394.5" r="2.6" fill="#f5c443" opacity="0.6"/><circle cx="155.3" cy="326.6" r="3.4" fill="#f5c443" opacity="0.3"/><circle cx="105.2" cy="314.8" r="2.5" fill="#f5c443" opacity="0.3"/><circle cx="666.2" cy="307.4" r="3.1" fill="#f5c443" opacity="0.6"/><circle cx="240.8" cy="70.8" r="4" fill="#f5c443" opacity="0.6"/><circle cx="567.9" cy="300.2" r="4.3" fill="#f5c443" opacity="0.5"/><circle cx="567.9" cy="300.2" r="13.8" fill="#f5c443" opacity="0.1" filter="url(#fSoft)"/><circle cx="268.6" cy="359.2" r="2.6" fill="#f5c443" opacity="0.7"/><circle cx="422.8" cy="278.1" r="1.8" fill="#f5c443" opacity="0.5"/><circle cx="557.2" cy="330.1" r="4.1" fill="#f5c443" opacity="0.3"/><circle cx="439" cy="503.7" r="1.8" fill="#f5c443" opacity="0.4"/><circle cx="182.8" cy="183.5" r="2.9" fill="#f5c443" opacity="0.5"/><circle cx="182.8" cy="183.5" r="9.4" fill="#f5c443" opacity="0.1" filter="url(#fSoft)"/><circle cx="266.6" cy="173.7" r="3.7" fill="#f5c443" opacity="0.2"/><circle cx="23.3" cy="491.9" r="2.9" fill="#f5c443" opacity="0.5"/><circle cx="63.6" cy="453.3" r="1.6" fill="#f5c443" opacity="0.7"/><circle cx="63.6" cy="453.3" r="5.1" fill="#f5c443" opacity="0.1" filter="url(#fSoft)"/><circle cx="165.2" cy="117.7" r="2.7" fill="#f5c443" opacity="0.4"/><circle cx="126.2" cy="493" r="1.7" fill="#f5c443" opacity="0.3"/><circle cx="126.2" cy="493" r="5.3" fill="#f5c443" opacity="0.1" filter="url(#fSoft)"/><circle cx="430.7" cy="406.1" r="3.8" fill="#f5c443" opacity="0.3"/><circle cx="430.7" cy="406.1" r="12.3" fill="#f5c443" opacity="0.1" filter="url(#fSoft)"/><circle cx="73.5" cy="133.3" r="2.2" fill="#f5c443" opacity="0.3"/><circle cx="628.4" cy="88.9" r="4.4" fill="#f5c443" opacity="0.6"/><circle cx="434" cy="325.1" r="4.4" fill="#f5c443" opacity="0.5"/><circle cx="128" cy="473.1" r="1.7" fill="#f5c443" opacity="0.3"/><circle cx="128" cy="473.1" r="5.3" fill="#f5c443" opacity="0.1" filter="url(#fSoft)"/><circle cx="489.9" cy="494.5" r="3.7" fill="#f5c443" opacity="0.7"/><circle cx="489.9" cy="494.5" r="11.7" fill="#f5c443" opacity="0.1" filter="url(#fSoft)"/><circle cx="667.9" cy="504.7" r="2.9" fill="#f5c443" opacity="0.6"/></g><g><rect x="0" y="526" width="800" height="74" fill="url(#gFoot)"/><g><path d="M-32 544L1.2307692307692335 545.9285868840851L34.46153846153847 547.829050628601L67.6923076923077 549.6736781926805L100.92307692307693 551.4355707527003L134.15384615384616 553.0890359476984L167.3846153846154 554.6099625318527L200.6153846153846 555.9761719707376L233.84615384615387 557.1677418542985L267.0769230769231 558.1672964104514L300.3076923076923 558.9602598829666L333.53846153846155 559.5350690788168L366.7692307692308 559.8833419855689L400 560L433.2307692307692 559.8833419855689L466.4615384615384 559.5350690788168L499.69230769230774 558.9602598829666L532.9230769230769 558.1672964104514L566.1538461538462 557.1677418542985L599.3846153846154 555.9761719707376L632.6153846153846 554.6099625318527L665.8461538461538 553.0890359476984L699.0769230769231 551.4355707527003L732.3076923076923 549.6736781926805L765.5384615384615 547.829050628601L798.7692307692308 545.9285868840851L832 544" fill="none" stroke="#ef5a26" stroke-width="3" opacity="0.6"/><use href="#flB" transform="translate(-32 544) scale(0.8 0.8)"/><use href="#flA" transform="translate(1.2 545.9) scale(0.7 0.7)"/><use href="#flL" transform="translate(34.5 545.8) rotate(7.4 0 0) scale(0.7 0.7)"/><use href="#flA" transform="translate(34.5 547.8) scale(0.8 0.8)"/><use href="#flB" transform="translate(67.7 549.7) scale(0.7 0.7)"/><use href="#flA" transform="translate(100.9 551.4) scale(0.8 0.8)"/><use href="#flA" transform="translate(134.2 553.1) scale(0.7 0.7)"/><use href="#flL" transform="translate(167.4 552.6) rotate(-16.6 0 0) scale(0.7 0.7)"/><use href="#flB" transform="translate(167.4 554.6) scale(0.8 0.8)"/><use href="#flA" transform="translate(200.6 556) scale(0.7 0.7)"/><use href="#flA" transform="translate(233.8 557.2) scale(0.8 0.8)"/><use href="#flB" transform="translate(267.1 558.2) scale(0.7 0.7)"/><use href="#flL" transform="translate(300.3 557) rotate(14.9 0 0) scale(0.7 0.7)"/><use href="#flA" transform="translate(300.3 559) scale(0.8 0.8)"/><use href="#flA" transform="translate(333.5 559.5) scale(0.7 0.7)"/><use href="#flB" transform="translate(366.8 559.9) scale(0.8 0.8)"/><use href="#flA" transform="translate(400 560) scale(0.7 0.7)"/><use href="#flL" transform="translate(433.2 557.9) rotate(-2.9 0 0) scale(0.7 0.7)"/><use href="#flA" transform="translate(433.2 559.9) scale(0.8 0.8)"/><use href="#flB" transform="translate(466.5 559.5) scale(0.7 0.7)"/><use href="#flA" transform="translate(499.7 559) scale(0.8 0.8)"/><use href="#flA" transform="translate(532.9 558.2) scale(0.7 0.7)"/><use href="#flL" transform="translate(566.2 555.2) rotate(18 0 0) scale(0.7 0.7)"/><use href="#flB" transform="translate(566.2 557.2) scale(0.8 0.8)"/><use href="#flA" transform="translate(599.4 556) scale(0.7 0.7)"/><use href="#flA" transform="translate(632.6 554.6) scale(0.8 0.8)"/><use href="#flB" transform="translate(665.8 553.1) scale(0.7 0.7)"/><use href="#flL" transform="translate(699.1 549.4) rotate(8 0 0) scale(0.7 0.7)"/><use href="#flA" transform="translate(699.1 551.4) scale(0.8 0.8)"/><use href="#flA" transform="translate(732.3 549.7) scale(0.7 0.7)"/><use href="#flB" transform="translate(765.5 547.8) scale(0.8 0.8)"/><use href="#flA" transform="translate(798.8 545.9) scale(0.7 0.7)"/><use href="#flL" transform="translate(832 542) rotate(-15.6 0 0) scale(0.7 0.7)"/><use href="#flA" transform="translate(832 544) scale(0.8 0.8)"/></g><g><path d="M-27 574L0.5483870967741922 575.0116832198743L28.096774193548384 576.0129852008866L55.64516129032258 576.9936312297335L83.19354838709677 577.9435585511332L110.74193548387098 578.8530196253108L138.29032258064515 579.7126821509479L165.83870967741936 580.5137248272222L193.38709677419354 581.2479278722913L220.93548387096777 581.907757369377L248.48387096774195 582.4864425749475L276.03225806451616 582.9780453957075L303.5806451612903 583.3775213214708L331.1290322580645 583.680771188662L358.6774193548387 583.8846832432811L386.2258064516129 583.9871650717105L413.7741935483871 583.9871650717105L441.3225806451613 583.8846832432811L468.87096774193554 583.680771188662L496.41935483870964 583.3775213214708L523.9677419354839 582.9780453957075L551.516129032258 582.4864425749475L579.0645161290323 581.907757369377L606.6129032258065 581.2479278722911L634.1612903225806 580.5137248272222L661.7096774193548 579.7126821509479L689.258064516129 578.8530196253108L716.8064516129032 577.9435585511332L744.3548387096774 576.9936312297336L771.9032258064516 576.0129852008866L799.4516129032259 575.0116832198743L827 574" fill="none" stroke="#ef5a26" stroke-width="3" opacity="0.6"/><use href="#flB" transform="translate(-27 574) scale(0.7 0.7)"/><use href="#flA" transform="translate(0.5 575) scale(0.6 0.6)"/><use href="#flL" transform="translate(28.1 574) rotate(19.9 0 0) scale(0.6 0.6)"/><use href="#flA" transform="translate(28.1 576) scale(0.7 0.7)"/><use href="#flB" transform="translate(55.6 577) scale(0.6 0.6)"/><use href="#flA" transform="translate(83.2 577.9) scale(0.7 0.7)"/><use href="#flA" transform="translate(110.7 578.9) scale(0.6 0.6)"/><use href="#flL" transform="translate(138.3 577.7) rotate(9.9 0 0) scale(0.6 0.6)"/><use href="#flB" transform="translate(138.3 579.7) scale(0.7 0.7)"/><use href="#flA" transform="translate(165.8 580.5) scale(0.6 0.6)"/><use href="#flA" transform="translate(193.4 581.2) scale(0.7 0.7)"/><use href="#flB" transform="translate(220.9 581.9) scale(0.6 0.6)"/><use href="#flL" transform="translate(248.5 580.5) rotate(6.7 0 0) scale(0.6 0.6)"/><use href="#flA" transform="translate(248.5 582.5) scale(0.7 0.7)"/><use href="#flA" transform="translate(276 583) scale(0.6 0.6)"/><use href="#flB" transform="translate(303.6 583.4) scale(0.7 0.7)"/><use href="#flA" transform="translate(331.1 583.7) scale(0.6 0.6)"/><use href="#flL" transform="translate(358.7 581.9) rotate(-5.7 0 0) scale(0.6 0.6)"/><use href="#flA" transform="translate(358.7 583.9) scale(0.7 0.7)"/><use href="#flB" transform="translate(386.2 584) scale(0.6 0.6)"/><use href="#flA" transform="translate(413.8 584) scale(0.7 0.7)"/><use href="#flA" transform="translate(441.3 583.9) scale(0.6 0.6)"/><use href="#flL" transform="translate(468.9 581.7) rotate(-17.3 0 0) scale(0.6 0.6)"/><use href="#flB" transform="translate(468.9 583.7) scale(0.7 0.7)"/><use href="#flA" transform="translate(496.4 583.4) scale(0.6 0.6)"/><use href="#flA" transform="translate(524 583) scale(0.7 0.7)"/><use href="#flB" transform="translate(551.5 582.5) scale(0.6 0.6)"/><use href="#flL" transform="translate(579.1 579.9) rotate(19.1 0 0) scale(0.6 0.6)"/><use href="#flA" transform="translate(579.1 581.9) scale(0.7 0.7)"/><use href="#flA" transform="translate(606.6 581.2) scale(0.6 0.6)"/><use href="#flB" transform="translate(634.2 580.5) scale(0.7 0.7)"/><use href="#flA" transform="translate(661.7 579.7) scale(0.6 0.6)"/><use href="#flL" transform="translate(689.3 576.9) rotate(-7.9 0 0) scale(0.6 0.6)"/><use href="#flA" transform="translate(689.3 578.9) scale(0.7 0.7)"/><use href="#flB" transform="translate(716.8 577.9) scale(0.6 0.6)"/><use href="#flA" transform="translate(744.4 577) scale(0.7 0.7)"/><use href="#flA" transform="translate(771.9 576) scale(0.6 0.6)"/><use href="#flL" transform="translate(799.5 573) rotate(-13.2 0 0) scale(0.6 0.6)"/><use href="#flB" transform="translate(799.5 575) scale(0.7 0.7)"/><use href="#flA" transform="translate(827 574) scale(0.6 0.6)"/></g></g><g><g transform="translate(16 16) scale(0.8 0.8)"><path d="M0 0H108C86 8 70 22 62 44C54 66 40 82 18 90V108C-2 96-8 74-2 54C4 34 20 22 44 18C24 16 8 10 0 0Z" fill="#f0c052" opacity="0.2"/><path d="M6 6H86C60 18 44 40 34 74" fill="none" stroke="#ffeeb4" stroke-width="2" opacity="0.3"/></g><g transform="translate(784 16) scale(-0.8 0.8)"><path d="M0 0H108C86 8 70 22 62 44C54 66 40 82 18 90V108C-2 96-8 74-2 54C4 34 20 22 44 18C24 16 8 10 0 0Z" fill="#f0c052" opacity="0.2"/><path d="M6 6H86C60 18 44 40 34 74" fill="none" stroke="#ffeeb4" stroke-width="2" opacity="0.3"/></g><g transform="translate(16 584) scale(0.8 -0.8)"><path d="M0 0H108C86 8 70 22 62 44C54 66 40 82 18 90V108C-2 96-8 74-2 54C4 34 20 22 44 18C24 16 8 10 0 0Z" fill="#f0c052" opacity="0.2"/><path d="M6 6H86C60 18 44 40 34 74" fill="none" stroke="#ffeeb4" stroke-width="2" opacity="0.3"/></g><g transform="translate(784 584) scale(-0.8 -0.8)"><path d="M0 0H108C86 8 70 22 62 44C54 66 40 82 18 90V108C-2 96-8 74-2 54C4 34 20 22 44 18C24 16 8 10 0 0Z" fill="#f0c052" opacity="0.2"/><path d="M6 6H86C60 18 44 40 34 74" fill="none" stroke="#ffeeb4" stroke-width="2" opacity="0.3"/></g></g><g fill="none"><rect x="16" y="16" width="768" height="568" stroke="#f0c052" stroke-width="2.4" opacity="0.5" rx="8"/><rect x="23" y="23" width="754" height="554" stroke="#ffeeb4" stroke-width="1" opacity="0.3" rx="5"/></g><rect x="0" y="0" width="800" height="600" fill="url(#gVig)"/></svg>
