<svg xmlns="http://www.w3.org/2000/svg" viewBox="0 0 800 600" width="800" height="600" role="img"><defs><radialGradient id="gSky" cx="50%" cy="43.5%" r="88%"><stop offset="0%" stop-color="#ffb43f"/><stop offset="46%" stop-color="#e2542a"/><stop offset="100%" stop-color="#7a1a1e"/></radialGradient><linearGradient id="gWash" x1="0" y1="0" x2="0" y2="1"><stop offset="0%" stop-color="#7a1a1e" stop-opacity="0.35"/><stop offset="40%" stop-color="#e2542a" stop-opacity="0"/><stop offset="100%" stop-color="#7a1a1e" stop-opacity="0.55"/></linearGradient><linearGradient id="gEmb" x1="0" y1="0" x2="0.35" y2="1"><stop offset="0%" stop-color="#fff1d8"/><stop offset="48%" stop-color="#ffeccb"/><stop offset="100%" stop-color="#cd7c34"/></linearGradient><linearGradient id="gGold" x1="0" y1="0" x2="0.5" y2="1"><stop offset="0%" stop-color="#ffeeb4"/><stop offset="34%" stop-color="#f5c443"/><stop offset="58%" stop-color="#fff1c3"/><stop offset="100%" stop-color="#9f7f2c"/></linearGradient><linearGradient id="gMetal" x1="0.1" y1="0" x2="0.9" y2="1"><stop offset="0%" stop-color="#fff2db"/><stop offset="32%" stop-color="#ffeccb"/><stop offset="62%" stop-color="#e4ae78"/><stop offset="100%" stop-color="#cd7c34"/></linearGradient><radialGradient id="gFlame" cx="50%" cy="72%" r="70%"><stop offset="0%" stop-color="#fffdf2"/><stop offset="34%" stop-color="#ffeeb4"/><stop offset="70%" stop-color="#f5c443"/><stop offset="100%" stop-color="#ef5a26"/></radialGradient><radialGradient id="gPetA" cx="42%" cy="38%" r="70%"><stop offset="0%" stop-color="#ffd977"/><stop offset="100%" stop-color="#e0b135"/></radialGradient><radialGradient id="gPetB" cx="42%" cy="38%" r="70%"><stop offset="0%" stop-color="#f38863"/><stop offset="100%" stop-color="#c94c20"/></radialGradient><linearGradient id="gWater" x1="0" y1="0" x2="0" y2="1"><stop offset="0%" stop-color="#ffe1a0" stop-opacity="0.35"/><stop offset="100%" stop-color="#7a1a1e" stop-opacity="0.1"/></linearGradient><linearGradient id="gFoot" x1="0" y1="0" x2="0" y2="1"><stop offset="0%" stop-color="#7a1a1e" stop-opacity="0"/><stop offset="100%" stop-color="#7a1a1e" stop-opacity="0.55"/></linearGradient><radialGradient id="gVig" cx="50%" cy="46%" r="76%"><stop offset="55%" stop-color="#000" stop-opacity="0"/><stop offset="100%" stop-color="#000" stop-opacity="0.42"/></radialGradient><filter id="fGlow" x="-60%" y="-60%" width="220%" height="220%"><feGaussianBlur stdDeviation="24"/></filter><filter id="fSoft" x="-30%" y="-30%" width="160%" height="160%"><feGaussianBlur stdDeviation="5"/></filter><g id="flA"><g transform="rotate(0 0 0)"><circle cx="0" cy="0" r="20" fill="#ef5a26"/><circle cx="0" cy="-12.4" r="8.4" fill="#ffc93c" opacity="1"/><circle cx="8" cy="-9.5" r="8.4" fill="#ffc93c" opacity="1"/><circle cx="12.2" cy="-2.2" r="8.4" fill="#ffc93c" opacity="1"/><circle cx="10.7" cy="6.2" r="8.4" fill="#ffc93c" opacity="1"/><circle cx="4.2" cy="11.7" r="8.4" fill="#ffc93c" opacity="1"/><circle cx="-4.2" cy="11.7" r="8.4" fill="#ffc93c" opacity="1"/><circle cx="-10.7" cy="6.2" r="8.4" fill="#ffc93c" opacity="1"/><circle cx="-12.2" cy="-2.2" r="8.4" fill="#ffc93c" opacity="1"/><circle cx="-8" cy="-9.5" r="8.4" fill="#ffc93c" opacity="1"/><circle cx="2.5" cy="-5.4" r="6" fill="#ef5a26" opacity="0.9"/><circle cx="5.8" cy="-1.4" r="6" fill="#ef5a26" opacity="0.9"/><circle cx="4.7" cy="3.7" r="6" fill="#ef5a26" opacity="0.9"/><circle cx="0.1" cy="6" r="6" fill="#ef5a26" opacity="0.9"/><circle cx="-4.6" cy="3.8" r="6" fill="#ef5a26" opacity="0.9"/><circle cx="-5.9" cy="-1.3" r="6" fill="#ef5a26" opacity="0.9"/><circle cx="-2.7" cy="-5.4" r="6" fill="#ef5a26" opacity="0.9"/><circle cx="0" cy="0" r="5.2" fill="#ffc93c"/><circle cx="0" cy="0" r="2.4" fill="#ef5a26" opacity="0.8"/></g></g><g id="flB"><g transform="rotate(0 0 0)"><circle cx="0" cy="0" r="20" fill="#ffc93c"/><circle cx="0" cy="-12.4" r="8.4" fill="#ef5a26" opacity="1"/><circle cx="8" cy="-9.5" r="8.4" fill="#ef5a26" opacity="1"/><circle cx="12.2" cy="-2.2" r="8.4" fill="#ef5a26" opacity="1"/><circle cx="10.7" cy="6.2" r="8.4" fill="#ef5a26" opacity="1"/><circle cx="4.2" cy="11.7" r="8.4" fill="#ef5a26" opacity="1"/><circle cx="-4.2" cy="11.7" r="8.4" fill="#ef5a26" opacity="1"/><circle cx="-10.7" cy="6.2" r="8.4" fill="#ef5a26" opacity="1"/><circle cx="-12.2" cy="-2.2" r="8.4" fill="#ef5a26" opacity="1"/><circle cx="-8" cy="-9.5" r="8.4" fill="#ef5a26" opacity="1"/><circle cx="2.5" cy="-5.4" r="6" fill="#ffc93c" opacity="0.9"/><circle cx="5.8" cy="-1.4" r="6" fill="#ffc93c" opacity="0.9"/><circle cx="4.7" cy="3.7" r="6" fill="#ffc93c" opacity="0.9"/><circle cx="0.1" cy="6" r="6" fill="#ffc93c" opacity="0.9"/><circle cx="-4.6" cy="3.8" r="6" fill="#ffc93c" opacity="0.9"/><circle cx="-5.9" cy="-1.3" r="6" fill="#ffc93c" opacity="0.9"/><circle cx="-2.7" cy="-5.4" r="6" fill="#ffc93c" opacity="0.9"/><circle cx="0" cy="0" r="5.2" fill="#ef5a26"/><circle cx="0" cy="0" r="2.4" fill="#ffc93c" opacity="0.8"/></g></g><g id="flL"><path d="M0 0C-11 -12.6 -11 -29.4 0 -42C11 -29.4 11 -12.6 0 0Z" fill="#ffe6b8" opacity="0.4"/></g></defs><g><rect x="0" y="0" width="800" height="600" fill="url(#gSky)"/><rect x="0" y="0" width="800" height="600" fill="url(#gWash)"/></g><g opacity="0.1"><polygon points="-10,0 10,0 26,-760 -26,-760" fill="#ffe1a0" transform="translate(400 261) rotate(0 0 0)"/><polygon points="-10,0 10,0 26,-760 -26,-760" fill="#ffe1a0" transform="translate(400 261) rotate(28.5 0 0)"/><polygon points="-10,0 10,0 26,-760 -26,-760" fill="#ffe1a0" transform="translate(400 261) rotate(45 0 0)"/><polygon points="-10,0 10,0 26,-760 -26,-760" fill="#ffe1a0" transform="translate(400 261) rotate(73.5 0 0)"/><polygon points="-10,0 10,0 26,-760 -26,-760" fill="#ffe1a0" transform="translate(400 261) rotate(90 0 0)"/><polygon points="-10,0 10,0 26,-760 -26,-760" fill="#ffe1a0" transform="translate(400 261) rotate(118.5 0 0)"/><polygon points="-10,0 10,0 26,-760 -26,-760" fill="#ffe1a0" transform="translate(400 261) rotate(135 0 0)"/><polygon points="-10,0 10,0 26,-760 -26,-760" fill="#ffe1a0" transform="translate(400 261) rotate(163.5 0 0)"/><polygon points="-10,0 10,0 26,-760 -26,-760" fill="#ffe1a0" transform="translate(400 261) rotate(180 0 0)"/><polygon points="-10,0 10,0 26,-760 -26,-760" fill="#ffe1a0" transform="translate(400 261) rotate(208.5 0 0)"/><polygon points="-10,0 10,0 26,-760 -26,-760" fill="#ffe1a0" transform="translate(400 261) rotate(225 0 0)"/><polygon points="-10,0 10,0 26,-760 -26,-760" fill="#ffe1a0" transform="translate(400 261) rotate(253.5 0 0)"/><polygon points="-10,0 10,0 26,-760 -26,-760" fill="#ffe1a0" transform="translate(400 261) rotate(270 0 0)"/><polygon points="-10,0 10,0 26,-760 -26,-760" fill="#ffe1a0" transform="translate(400 261) rotate(298.5 0 0)"/><polygon points="-10,0 10,0 26,-760 -26,-760" fill="#ffe1a0" transform="translate(400 261) rotate(315 0 0)"/><polygon points="-10,0 10,0 26,-760 -26,-760" fill="#ffe1a0" transform="translate(400 261) rotate(343.5 0 0)"/></g><g transform="translate(400 261)"><defs><g id="mda"><g transform="translate(0 -180)"><path d="M0 0C-14.4 -29 -7.9 -43.1 0 -46.8C7.9 -43.1 14.4 -29 0 0Z" fill="none" stroke="#f0c052" stroke-width="2.2" opacity="0.4" transform="rotate(180 0 0)"/></g></g><g id="mdb"><g transform="translate(0 -223.2)"><circle cx="0" cy="0" r="4" fill="#ffeeb4" opacity="0.6"/><path d="M-9 0Q0 9 9 0Q0 -9 -9 0Z" fill="#f0c052" opacity="0.3"/></g></g></defs><circle cx="0" cy="0" r="154.8" fill="none" stroke="#f0c052" stroke-width="1" opacity="0.2"/><circle cx="0" cy="0" r="180" fill="none" stroke="#f0c052" stroke-width="1.4" opacity="0.3"/><circle cx="0" cy="0" r="201.6" fill="none" stroke="#f0c052" stroke-width="1" opacity="0.2" stroke-dasharray="2 9"/><use href="#mda" transform="rotate(0 0 0)"/><use href="#mda" transform="rotate(20 0 0)"/><use href="#mda" transform="rotate(40 0 0)"/><use href="#mda" transform="rotate(60 0 0)"/><use href="#mda" transform="rotate(80 0 0)"/><use href="#mda" transform="rotate(100 0 0)"/><use href="#mda" transform="rotate(120 0 0)"/><use href="#mda" transform="rotate(140 0 0)"/><use href="#mda" transform="rotate(160 0 0)"/><use href="#mda" transform="rotate(180 0 0)"/><use href="#mda" transform="rotate(200 0 0)"/><use href="#mda" transform="rotate(220 0 0)"/><use href="#mda" transform="rotate(240 0 0)"/><use href="#mda" transform="rotate(260 0 0)"/><use href="#mda" transform="rotate(280 0 0)"/><use href="#mda" transform="rotate(300 0 0)"/><use href="#mda" transform="rotate(320 0 0)"/><use href="#mda" transform="rotate(340 0 0)"/><use href="#mdb" transform="rotate(0 0 0)"/><use href="#mdb" transform="rotate(12 0 0)"/><use href="#mdb" transform="rotate(24 0 0)"/><use href="#mdb" transform="rotate(36 0 0)"/><use href="#mdb" transform="rotate(48 0 0)"/><use href="#mdb" transform="rotate(60 0 0)"/><use href="#mdb" transform="rotate(72 0 0)"/><use href="#mdb" transform="rotate(84 0 0)"/><use href="#mdb" transform="rotate(96 0 0)"/><use href="#mdb" transform="rotate(108 0 0)"/><use href="#mdb" transform="rotate(120 0 0)"/><use href="#mdb" transform="rotate(132 0 0)"/><use href="#mdb" transform="rotate(144 0 0)"/><use href="#mdb" transform="rotate(156 0 0)"/><use href="#mdb" transform="rotate(168 0 0)"/><use href="#mdb" transform="rotate(180 0 0)"/><use href="#mdb" transform="rotate(192 0 0)"/><use href="#mdb" transform="rotate(204 0 0)"/><use href="#mdb" transform="rotate(216 0 0)"/><use href="#mdb" transform="rotate(228 0 0)"/><use href="#mdb" transform="rotate(240 0 0)"/><use href="#mdb" transform="rotate(252 0 0)"/><use href="#mdb" transform="rotate(264 0 0)"/><use href="#mdb" transform="rotate(276 0 0)"/><use href="#mdb" transform="rotate(288 0 0)"/><use href="#mdb" transform="rotate(300 0 0)"/><use href="#mdb" transform="rotate(312 0 0)"/><use href="#mdb" transform="rotate(324 0 0)"/><use href="#mdb" transform="rotate(336 0 0)"/><use href="#mdb" transform="rotate(348 0 0)"/></g><g><path d="M-40 414C-21.609720513690263 369.29308508802205 -8.736524873273446 332.53406616039575 5.975698715774342 314.65130019560456C20.68792230482213 332.53406616039575 33.56111794523895 369.29308508802205 51.951397431548685 414Z" fill="#a52c1e" stroke="#f0c052" stroke-opacity="0.2" stroke-width="1.5"/><circle cx="6" cy="308.7" r="3" fill="#f5c443" opacity="0.8"/><path d="M55.563432824235875 414C72.77293017031299 348.6979017276317 84.81957831256697 295.0050653703511 98.58717618942866 268.88422606140375C112.35477406629035 295.0050653703511 124.40142220854432 348.6979017276317 141.61091955462143 414Z" fill="#a52c1e" stroke="#f0c052" stroke-opacity="0.2" stroke-width="1.5"/><g><line x1="98.6" y1="268.9" x2="98.6" y2="254.9" stroke="#f5c443" stroke-width="3"/><circle cx="98.6" cy="250.9" r="5" fill="#f5c443"/><polygon points="98.6,236.9 102.6,246.9 94.6,246.9" fill="#f5c443"/></g><path d="M125.89137575259842 414C148.0075505217206 356.209223119542 163.48887286010608 308.6923621289432 181.18181267540382 285.57605137676C198.87475249070155 308.6923621289432 214.35607482908705 356.209223119542 236.4722495982092 414Z" fill="#a52c1e" stroke="#f0c052" stroke-opacity="0.2" stroke-width="1.5"/><g><line x1="181.2" y1="285.6" x2="181.2" y2="271.6" stroke="#f5c443" stroke-width="3"/><circle cx="181.2" cy="267.6" r="5" fill="#f5c443"/><polygon points="181.2,253.6 185.2,263.6 177.2,263.6" fill="#f5c443"/></g><path d="M233.85729472667958 414C247.65548398022588 374.1768915625289 257.3142164577083 341.4334468472749 268.3527678605453 325.50420347228646C279.39131926338234 341.4334468472749 289.0500517408648 374.1768915625289 302.84824099441107 414Z" fill="#a52c1e" stroke="#f0c052" stroke-opacity="0.2" stroke-width="1.5"/><circle cx="268.4" cy="319.5" r="3" fill="#f5c443" opacity="0.8"/><path d="M305.92936843246474 414C331.4282685428324 350.84590082243085 349.27749862008983 298.9191970542073 369.67661870838396 273.65755738317966C390.0757387966781 298.9191970542073 407.9249688739355 350.84590082243085 433.42386898430317 414Z" fill="#a52c1e" stroke="#f0c052" stroke-opacity="0.2" stroke-width="1.5"/><g><line x1="369.7" y1="273.7" x2="369.7" y2="259.7" stroke="#f5c443" stroke-width="3"/><circle cx="369.7" cy="255.7" r="5" fill="#f5c443"/><polygon points="369.7,241.7 373.7,251.7 365.7,251.7" fill="#f5c443"/></g><path d="M409.92613128638897 414C432.41221131450567 364.67484954278916 448.15246733418735 324.1186147224158 466.1413313566807 304.38855453953147C484.1301953791741 324.1186147224158 499.8704513988557 364.67484954278916 522.3565314269724 414Z" fill="#a52c1e" stroke="#f0c052" stroke-opacity="0.2" stroke-width="1.5"/><circle cx="466.1" cy="298.4" r="3" fill="#f5c443" opacity="0.8"/><path d="M511.7099272977804 414C529.6336322134604 349.07556490413845 542.1802256544364 295.6932516030967 556.5191895869804 269.7234775647521C570.8581535195243 295.6932516030967 583.4047469605003 349.07556490413845 601.3284518761803 414Z" fill="#a52c1e" stroke="#f0c052" stroke-opacity="0.2" stroke-width="1.5"/><g><line x1="556.5" y1="269.7" x2="556.5" y2="255.7" stroke="#f5c443" stroke-width="3"/><circle cx="556.5" cy="251.7" r="5" fill="#f5c443"/><polygon points="556.5,237.7 560.5,247.7 552.5,247.7" fill="#f5c443"/></g><path d="M589.0687850869092 414C604.180273461325 377.8273439761251 614.758315323416 348.0853823564947 626.8475060229487 333.6163199469447C638.9366967224813 348.0853823564947 649.5147385845723 377.8273439761251 664.6262269589881 414Z" fill="#a52c1e" stroke="#f0c052" stroke-opacity="0.2" stroke-width="1.5"/><circle cx="626.8" cy="327.6" r="3" fill="#f5c443" opacity="0.8"/><path d="M661.9991777394324 414C687.6416355133414 370.7346085086465 705.5913559550777 335.1608421713114 726.1053221742048 317.85468557477C746.619288393332 335.1608421713114 764.5690088350683 370.7346085086465 790.2114666089773 414Z" fill="#a52c1e" stroke="#f0c052" stroke-opacity="0.2" stroke-width="1.5"/><circle cx="726.1" cy="311.9" r="3" fill="#f5c443" opacity="0.8"/><path d="M781.3244174879584 414C797.704816196354 360.2227972224355 809.171095292231 316.0059860497713 822.2754142589475 294.4951049387455C835.379733225664 316.0059860497713 846.846012321541 360.2227972224355 863.2264110299367 414Z" fill="#a52c1e" stroke="#f0c052" stroke-opacity="0.2" stroke-width="1.5"/><g><line x1="822.3" y1="294.5" x2="822.3" y2="280.5" stroke="#f5c443" stroke-width="3"/><circle cx="822.3" cy="276.5" r="5" fill="#f5c443"/><polygon points="822.3,262.5 826.3,272.5 818.3,272.5" fill="#f5c443"/></g><path d="M300 462C340 367.5 368 289.8 400 252C432 289.8 460 367.5 500 462Z" fill="#4f0f13"/><g><line x1="400" y1="252" x2="400" y2="238" stroke="#f5c443" stroke-width="3"/><circle cx="400" cy="234" r="5" fill="#f5c443"/><polygon points="400,220 404,230 396,230" fill="#f5c443"/></g><rect x="240" y="438" width="320" height="30" fill="#4f0f13" rx="6"/><path d="M366 468V428A34 34 0 0 1 434 428V468Z" fill="#7a1a1e" opacity="0.7"/><path d="M258 440Q280 420 302 440" fill="none" stroke="#f5c443" stroke-width="2" opacity="0.4"/><path d="M308 440Q330 420 352 440" fill="none" stroke="#f5c443" stroke-width="2" opacity="0.4"/><path d="M358 440Q380 420 402 440" fill="none" stroke="#f5c443" stroke-width="2" opacity="0.4"/><path d="M408 440Q430 420 452 440" fill="none" stroke="#f5c443" stroke-width="2" opacity="0.4"/><path d="M458 440Q480 420 502 440" fill="none" stroke="#f5c443" stroke-width="2" opacity="0.4"/><path d="M508 440Q530 420 552 440" fill="none" stroke="#f5c443" stroke-width="2" opacity="0.4"/></g><g><g transform="translate(100 441) scale(0.3 0.3)"><circle cx="0" cy="-30" r="70" fill="#f5c443" opacity="0.2" filter="url(#fGlow)"/><path d="M-84 20C-88 52-46 72 0 72S88 52 84 20Z" fill="#4f0f13"/><ellipse cx="0" cy="20" rx="84" ry="20" fill="#f5c443" opacity="0.9"/><path d="M0-70C-24-40-30-18-18-2C-8 10 8 10 18-2C30-18 24-40 0-70Z" fill="url(#gFlame)"/></g><g transform="translate(200 441) scale(0.2 0.2)"><circle cx="0" cy="-30" r="70" fill="#f5c443" opacity="0.2" filter="url(#fGlow)"/><path d="M-84 20C-88 52-46 72 0 72S88 52 84 20Z" fill="#4f0f13"/><ellipse cx="0" cy="20" rx="84" ry="20" fill="#f5c443" opacity="0.9"/><path d="M0-70C-24-40-30-18-18-2C-8 10 8 10 18-2C30-18 24-40 0-70Z" fill="url(#gFlame)"/></g><g transform="translate(300 441) scale(0.3 0.3)"><circle cx="0" cy="-30" r="70" fill="#f5c443" opacity="0.2" filter="url(#fGlow)"/><path d="M-84 20C-88 52-46 72 0 72S88 52 84 20Z" fill="#4f0f13"/><ellipse cx="0" cy="20" rx="84" ry="20" fill="#f5c443" opacity="0.9"/><path d="M0-70C-24-40-30-18-18-2C-8 10 8 10 18-2C30-18 24-40 0-70Z" fill="url(#gFlame)"/></g><g transform="translate(400 441) scale(0.2 0.2)"><circle cx="0" cy="-30" r="70" fill="#f5c443" opacity="0.2" filter="url(#fGlow)"/><path d="M-84 20C-88 52-46 72 0 72S88 52 84 20Z" fill="#4f0f13"/><ellipse cx="0" cy="20" rx="84" ry="20" fill="#f5c443" opacity="0.9"/><path d="M0-70C-24-40-30-18-18-2C-8 10 8 10 18-2C30-18 24-40 0-70Z" fill="url(#gFlame)"/></g><g transform="translate(500 441) scale(0.3 0.3)"><circle cx="0" cy="-30" r="70" fill="#f5c443" opacity="0.2" filter="url(#fGlow)"/><path d="M-84 20C-88 52-46 72 0 72S88 52 84 20Z" fill="#4f0f13"/><ellipse cx="0" cy="20" rx="84" ry="20" fill="#f5c443" opacity="0.9"/><path d="M0-70C-24-40-30-18-18-2C-8 10 8 10 18-2C30-18 24-40 0-70Z" fill="url(#gFlame)"/></g><g transform="translate(600 441) scale(0.2 0.2)"><circle cx="0" cy="-30" r="70" fill="#f5c443" opacity="0.2" filter="url(#fGlow)"/><path d="M-84 20C-88 52-46 72 0 72S88 52 84 20Z" fill="#4f0f13"/><ellipse cx="0" cy="20" rx="84" ry="20" fill="#f5c443" opacity="0.9"/><path d="M0-70C-24-40-30-18-18-2C-8 10 8 10 18-2C30-18 24-40 0-70Z" fill="url(#gFlame)"/></g><g transform="translate(700 441) scale(0.3 0.3)"><circle cx="0" cy="-30" r="70" fill="#f5c443" opacity="0.2" filter="url(#fGlow)"/><path d="M-84 20C-88 52-46 72 0 72S88 52 84 20Z" fill="#4f0f13"/><ellipse cx="0" cy="20" rx="84" ry="20" fill="#f5c443" opacity="0.9"/><path d="M0-70C-24-40-30-18-18-2C-8 10 8 10 18-2C30-18 24-40 0-70Z" fill="url(#gFlame)"/></g></g><circle cx="400" cy="261" r="180" fill="#ffe1a0" opacity="0.3" filter="url(#fGlow)"/><circle cx="400" cy="261" r="102" fill="#ffeeb4" opacity="0.3" filter="url(#fGlow)"/><g transform="translate(400 261) scale(1.4 1.4)"><g><circle cx="0" cy="0" r="128" fill="#ffe1a0" opacity="0.4" filter="url(#fGlow)"/><path d="M-108 4L0-84L108 4V112H-108Z" fill="url(#gEmb)"/><path d="M-108 4L0-84L108 4L96 16L0-66L-96 16Z" fill="url(#gGold)"/><rect x="-108" y="108" width="216" height="14" fill="url(#gGold)" rx="5"/><path d="M-34 112V44A34 34 0 0 1 34 44V112Z" fill="#7a1a1e" opacity="0.6"/><path d="M-34 112V44A34 34 0 0 1 34 44V112Z" fill="none" stroke="url(#gGold)" stroke-width="5"/><path d="M-52 30Q0 56 52 30" fill="none" stroke="#ffd75e" stroke-width="4"/><circle cx="-52" cy="40" r="6" fill="#ef5a26"/><circle cx="-34.7" cy="52" r="6" fill="#ffc93c"/><circle cx="-17.3" cy="60.8" r="6" fill="#ef5a26"/><circle cx="0" cy="64" r="6" fill="#ffc93c"/><circle cx="17.3" cy="60.8" r="6" fill="#ef5a26"/><circle cx="34.7" cy="52" r="6" fill="#ffc93c"/><circle cx="52" cy="40" r="6" fill="#ef5a26"/><g fill="#ffeeb4" opacity="0.9"><rect x="-88" y="40" width="34" height="32" rx="5"/><rect x="54" y="40" width="34" height="32" rx="5"/></g><g transform="translate(0 -92) scale(0.4 0.4)"><path d="M-58-6C-72 22-66 62-40 84C-22 98 22 98 40 84C66 62 72 22 58-6Z" fill="url(#gGold)"/><rect x="-46" y="-42" width="92" height="16" fill="url(#gGold)" rx="7"/><ellipse cx="0" cy="-74" rx="26" ry="30" fill="#cd7c34"/><g transform="translate(-44 -44) rotate(-50 0 0)"><path d="M0 0C-13 -16.2 -13 -37.8 0 -54C13 -37.8 13 -16.2 0 0Z" fill="#ffd75e"/></g><g transform="translate(-22 -44) rotate(-25 0 0)"><path d="M0 0C-13 -16.2 -13 -37.8 0 -54C13 -37.8 13 -16.2 0 0Z" fill="#ffd75e"/></g><g transform="translate(0 -44) rotate(0 0 0)"><path d="M0 0C-13 -16.2 -13 -37.8 0 -54C13 -37.8 13 -16.2 0 0Z" fill="#ffd75e"/></g><g transform="translate(22 -44) rotate(25 0 0)"><path d="M0 0C-13 -16.2 -13 -37.8 0 -54C13 -37.8 13 -16.2 0 0Z" fill="#ffd75e"/></g><g transform="translate(44 -44) rotate(50 0 0)"><path d="M0 0C-13 -16.2 -13 -37.8 0 -54C13 -37.8 13 -16.2 0 0Z" fill="#ffd75e"/></g></g><circle cx="0" cy="100" r="4" fill="#ef5a26" opacity="0.9"/><circle cx="18.4" cy="107.6" r="4" fill="#ffc93c" opacity="0.9"/><circle cx="26" cy="126" r="4" fill="#ef5a26" opacity="0.9"/><circle cx="18.4" cy="144.4" r="4" fill="#ffc93c" opacity="0.9"/><circle cx="0" cy="152" r="4" fill="#ef5a26" opacity="0.9"/><circle cx="-18.4" cy="144.4" r="4" fill="#ffc93c" opacity="0.9"/><circle cx="-26" cy="126" r="4" fill="#ef5a26" opacity="0.9"/><circle cx="-18.4" cy="107.6" r="4" fill="#ffc93c" opacity="0.9"/></g></g><g><circle cx="54" cy="133.9" r="4" fill="#f5c443" opacity="0.5"/><circle cx="82.9" cy="450.5" r="3" fill="#f5c443" opacity="0.4"/><circle cx="129.8" cy="201.1" r="3.7" fill="#f5c443" opacity="0.6"/><circle cx="381.9" cy="156.6" r="2.5" fill="#f5c443" opacity="0.3"/><circle cx="381.9" cy="156.6" r="8" fill="#f5c443" opacity="0.1" filter="url(#fSoft)"/><circle cx="99.8" cy="113.8" r="3.3" fill="#f5c443" opacity="0.3"/><circle cx="506" cy="34.5" r="2.5" fill="#f5c443" opacity="0.7"/><circle cx="729.8" cy="94.6" r="1.9" fill="#f5c443" opacity="0.4"/><circle cx="292.8" cy="181.8" r="2.1" fill="#f5c443" opacity="0.5"/><circle cx="292.8" cy="181.8" r="6.9" fill="#f5c443" opacity="0.1" filter="url(#fSoft)"/><circle cx="202.8" cy="46" r="4.4" fill="#f5c443" opacity="0.5"/><circle cx="108.2" cy="279" r="3.2" fill="#f5c443" opacity="0.6"/><circle cx="694.5" cy="463.8" r="4.6" fill="#f5c443" opacity="0.6"/><circle cx="694.5" cy="463.8" r="14.7" fill="#f5c443" opacity="0.1" filter="url(#fSoft)"/><circle cx="530.8" cy="309.8" r="3.4" fill="#f5c443" opacity="0.3"/><circle cx="530.8" cy="309.8" r="10.8" fill="#f5c443" opacity="0.1" filter="url(#fSoft)"/><circle cx="501.6" cy="204.7" r="3.6" fill="#f5c443" opacity="0.3"/><circle cx="753.3" cy="237.8" r="1.8" fill="#f5c443" opacity="0.5"/><circle cx="184.8" cy="323.3" r="2.4" fill="#f5c443" opacity="0.4"/><circle cx="301.3" cy="469.7" r="3" fill="#f5c443" opacity="0.4"/><circle cx="301.3" cy="469.7" r="9.5" fill="#f5c443" opacity="0.1" filter="url(#fSoft)"/><circle cx="348.7" cy="256.7" r="2.9" fill="#f5c443" opacity="0.6"/><circle cx="399.6" cy="290" r="2" fill="#f5c443" opacity="0.5"/><circle cx="524.1" cy="234.9" r="2.9" fill="#f5c443" opacity="0.3"/><circle cx="412.4" cy="416.8" r="2.5" fill="#f5c443" opacity="0.5"/><circle cx="758.6" cy="508.9" r="2.6" fill="#f5c443" opacity="0.3"/><circle cx="758.6" cy="508.9" r="8.4" fill="#f5c443" opacity="0.1" filter="url(#fSoft)"/><circle cx="540.5" cy="307.7" r="4.1" fill="#f5c443" opacity="0.3"/><circle cx="579" cy="139.4" r="3.7" fill="#f5c443" opacity="0.5"/><circle cx="723.5" cy="51" r="3.5" fill="#f5c443" opacity="0.6"/><circle cx="736.5" cy="303.4" r="2.7" fill="#f5c443" opacity="0.7"/><circle cx="512.8" cy="116.4" r="3.9" fill="#f5c443" opacity="0.3"/><circle cx="512.8" cy="116.4" r="12.5" fill="#f5c443" opacity="0.1" filter="url(#fSoft)"/></g><g opacity="1"><g><path d="M-34 8L0.7199999999999989 13.765328743957996L35.44 19.43973480958332L70.16 24.933729423495183L104.88 30.160669008678905L139.60000000000002 35.03812160545377L174.32 39.48916687271968L209.04000000000002 43.443609167686304L243.76 46.83908457309269L278.47999999999996 49.6220444134369L313.20000000000005 51.74859974957706L347.92 53.18521353351968L382.64 53.909229507700495L417.36 53.909229507700495L452.08000000000004 53.18521353351968L486.79999999999995 51.74859974957707L521.52 49.622044413436896L556.24 46.83908457309269L590.9599999999999 43.443609167686304L625.6800000000001 39.489166872719686L660.4000000000001 35.03812160545377L695.12 30.16066900867892L729.84 24.933729423495194L764.5600000000001 19.43973480958332L799.28 13.765328743958008L834 8.000000000000005" fill="none" stroke="#ef5a26" stroke-width="3" opacity="0.6"/><use href="#flB" transform="translate(-34 8) scale(0.7 0.7)"/><use href="#flA" transform="translate(0.7 13.8) scale(0.6 0.6)"/><use href="#flL" transform="translate(35.4 17.4) rotate(9.9 0 0) scale(0.6 0.6)"/><use href="#flA" transform="translate(35.4 19.4) scale(0.7 0.7)"/><use href="#flB" transform="translate(70.2 24.9) scale(0.6 0.6)"/><use href="#flA" transform="translate(104.9 30.2) scale(0.7 0.7)"/><use href="#flA" transform="translate(139.6 35) scale(0.6 0.6)"/><use href="#flL" transform="translate(174.3 37.5) rotate(14.6 0 0) scale(0.6 0.6)"/><use href="#flB" transform="translate(174.3 39.5) scale(0.7 0.7)"/><use href="#flA" transform="translate(209 43.4) scale(0.6 0.6)"/><use href="#flA" transform="translate(243.8 46.8) scale(0.7 0.7)"/><use href="#flB" transform="translate(278.5 49.6) scale(0.6 0.6)"/><use href="#flL" transform="translate(313.2 49.7) rotate(8.9 0 0) scale(0.6 0.6)"/><use href="#flA" transform="translate(313.2 51.7) scale(0.7 0.7)"/><use href="#flA" transform="translate(347.9 53.2) scale(0.6 0.6)"/><use href="#flB" transform="translate(382.6 53.9) scale(0.7 0.7)"/><use href="#flA" transform="translate(417.4 53.9) scale(0.6 0.6)"/><use href="#flL" transform="translate(452.1 51.2) rotate(-16.3 0 0) scale(0.6 0.6)"/><use href="#flA" transform="translate(452.1 53.2) scale(0.7 0.7)"/><use href="#flB" transform="translate(486.8 51.7) scale(0.6 0.6)"/><use href="#flA" transform="translate(521.5 49.6) scale(0.7 0.7)"/><use href="#flA" transform="translate(556.2 46.8) scale(0.6 0.6)"/><use href="#flL" transform="translate(591 41.4) rotate(8.1 0 0) scale(0.6 0.6)"/><use href="#flB" transform="translate(591 43.4) scale(0.7 0.7)"/><use href="#flA" transform="translate(625.7 39.5) scale(0.6 0.6)"/><use href="#flA" transform="translate(660.4 35) scale(0.7 0.7)"/><use href="#flB" transform="translate(695.1 30.2) scale(0.6 0.6)"/><use href="#flL" transform="translate(729.8 22.9) rotate(7.4 0 0) scale(0.6 0.6)"/><use href="#flA" transform="translate(729.8 24.9) scale(0.7 0.7)"/><use href="#flA" transform="translate(764.6 19.4) scale(0.6 0.6)"/><use href="#flB" transform="translate(799.3 13.8) scale(0.7 0.7)"/><use href="#flA" transform="translate(834 8) scale(0.6 0.6)"/></g></g><g><rect x="0" y="526" width="800" height="74" fill="url(#gFoot)"/><g><path d="M-32 544L1.2307692307692335 545.9285868840851L34.46153846153847 547.829050628601L67.6923076923077 549.6736781926805L100.92307692307693 551.4355707527003L134.15384615384616 553.0890359476984L167.3846153846154 554.6099625318527L200.6153846153846 555.9761719707376L233.84615384615387 557.1677418542985L267.0769230769231 558.1672964104514L300.3076923076923 558.9602598829666L333.53846153846155 559.5350690788168L366.7692307692308 559.8833419855689L400 560L433.2307692307692 559.8833419855689L466.4615384615384 559.5350690788168L499.69230769230774 558.9602598829666L532.9230769230769 558.1672964104514L566.1538461538462 557.1677418542985L599.3846153846154 555.9761719707376L632.6153846153846 554.6099625318527L665.8461538461538 553.0890359476984L699.0769230769231 551.4355707527003L732.3076923076923 549.6736781926805L765.5384615384615 547.829050628601L798.7692307692308 545.9285868840851L832 544" fill="none" stroke="#ef5a26" stroke-width="3" opacity="0.6"/><use href="#flB" transform="translate(-32 544) scale(0.8 0.8)"/><use href="#flA" transform="translate(1.2 545.9) scale(0.7 0.7)"/><use href="#flL" transform="translate(34.5 545.8) rotate(-5.8 0 0) scale(0.7 0.7)"/><use href="#flA" transform="translate(34.5 547.8) scale(0.8 0.8)"/><use href="#flB" transform="translate(67.7 549.7) scale(0.7 0.7)"/><use href="#flA" transform="translate(100.9 551.4) scale(0.8 0.8)"/><use href="#flA" transform="translate(134.2 553.1) scale(0.7 0.7)"/><use href="#flL" transform="translate(167.4 552.6) rotate(18.4 0 0) scale(0.7 0.7)"/><use href="#flB" transform="translate(167.4 554.6) scale(0.8 0.8)"/><use href="#flA" transform="translate(200.6 556) scale(0.7 0.7)"/><use href="#flA" transform="translate(233.8 557.2) scale(0.8 0.8)"/><use href="#flB" transform="translate(267.1 558.2) scale(0.7 0.7)"/><use href="#flL" transform="translate(300.3 557) rotate(3.4 0 0) scale(0.7 0.7)"/><use href="#flA" transform="translate(300.3 559) scale(0.8 0.8)"/><use href="#flA" transform="translate(333.5 559.5) scale(0.7 0.7)"/><use href="#flB" transform="translate(366.8 559.9) scale(0.8 0.8)"/><use href="#flA" transform="translate(400 560) scale(0.7 0.7)"/><use href="#flL" transform="translate(433.2 557.9) rotate(7.7 0 0) scale(0.7 0.7)"/><use href="#flA" transform="translate(433.2 559.9) scale(0.8 0.8)"/><use href="#flB" transform="translate(466.5 559.5) scale(0.7 0.7)"/><use href="#flA" transform="translate(499.7 559) scale(0.8 0.8)"/><use href="#flA" transform="translate(532.9 558.2) scale(0.7 0.7)"/><use href="#flL" transform="translate(566.2 555.2) rotate(7.9 0 0) scale(0.7 0.7)"/><use href="#flB" transform="translate(566.2 557.2) scale(0.8 0.8)"/><use href="#flA" transform="translate(599.4 556) scale(0.7 0.7)"/><use href="#flA" transform="translate(632.6 554.6) scale(0.8 0.8)"/><use href="#flB" transform="translate(665.8 553.1) scale(0.7 0.7)"/><use href="#flL" transform="translate(699.1 549.4) rotate(9.8 0 0) scale(0.7 0.7)"/><use href="#flA" transform="translate(699.1 551.4) scale(0.8 0.8)"/><use href="#flA" transform="translate(732.3 549.7) scale(0.7 0.7)"/><use href="#flB" transform="translate(765.5 547.8) scale(0.8 0.8)"/><use href="#flA" transform="translate(798.8 545.9) scale(0.7 0.7)"/><use href="#flL" transform="translate(832 542) rotate(19.7 0 0) scale(0.7 0.7)"/><use href="#flA" transform="translate(832 544) scale(0.8 0.8)"/></g><g><path d="M-27 574L0.5483870967741922 575.0116832198743L28.096774193548384 576.0129852008866L55.64516129032258 576.9936312297335L83.19354838709677 577.9435585511332L110.74193548387098 578.8530196253108L138.29032258064515 579.7126821509479L165.83870967741936 580.5137248272222L193.38709677419354 581.2479278722913L220.93548387096777 581.907757369377L248.48387096774195 582.4864425749475L276.03225806451616 582.9780453957075L303.5806451612903 583.3775213214708L331.1290322580645 583.680771188662L358.6774193548387 583.8846832432811L386.2258064516129 583.9871650717105L413.7741935483871 583.9871650717105L441.3225806451613 583.8846832432811L468.87096774193554 583.680771188662L496.41935483870964 583.3775213214708L523.9677419354839 582.9780453957075L551.516129032258 582.4864425749475L579.0645161290323 581.907757369377L606.6129032258065 581.2479278722911L634.1612903225806 580.5137248272222L661.7096774193548 579.7126821509479L689.258064516129 578.8530196253108L716.8064516129032 577.9435585511332L744.3548387096774 576.9936312297336L771.9032258064516 576.0129852008866L799.4516129032259 575.0116832198743L827 574" fill="none" stroke="#ef5a26" stroke-width="3" opacity="0.6"/><use href="#flB" transform="translate(-27 574) scale(0.7 0.7)"/><use href="#flA" transform="translate(0.5 575) scale(0.6 0.6)"/><use href="#flL" transform="translate(28.1 574) rotate(-14 0 0) scale(0.6 0.6)"/><use href="#flA" transform="translate(28.1 576) scale(0.7 0.7)"/><use href="#flB" transform="translate(55.6 577) scale(0.6 0.6)"/><use href="#flA" transform="translate(83.2 577.9) scale(0.7 0.7)"/><use href="#flA" transform="translate(110.7 578.9) scale(0.6 0.6)"/><use href="#flL" transform="translate(138.3 577.7) rotate(17.7 0 0) scale(0.6 0.6)"/><use href="#flB" transform="translate(138.3 579.7) scale(0.7 0.7)"/><use href="#flA" transform="translate(165.8 580.5) scale(0.6 0.6)"/><use href="#flA" transform="translate(193.4 581.2) scale(0.7 0.7)"/><use href="#flB" transform="translate(220.9 581.9) scale(0.6 0.6)"/><use href="#flL" transform="translate(248.5 580.5) rotate(-3.3 0 0) scale(0.6 0.6)"/><use href="#flA" transform="translate(248.5 582.5) scale(0.7 0.7)"/><use href="#flA" transform="translate(276 583) scale(0.6 0.6)"/><use href="#flB" transform="translate(303.6 583.4) scale(0.7 0.7)"/><use href="#flA" transform="translate(331.1 583.7) scale(0.6 0.6)"/><use href="#flL" transform="translate(358.7 581.9) rotate(6.5 0 0) scale(0.6 0.6)"/><use href="#flA" transform="translate(358.7 583.9) scale(0.7 0.7)"/><use href="#flB" transform="translate(386.2 584) scale(0.6 0.6)"/><use href="#flA" transform="translate(413.8 584) scale(0.7 0.7)"/><use href="#flA" transform="translate(441.3 583.9) scale(0.6 0.6)"/><use href="#flL" transform="translate(468.9 581.7) rotate(-18.2 0 0) scale(0.6 0.6)"/><use href="#flB" transform="translate(468.9 583.7) scale(0.7 0.7)"/><use href="#flA" transform="translate(496.4 583.4) scale(0.6 0.6)"/><use href="#flA" transform="translate(524 583) scale(0.7 0.7)"/><use href="#flB" transform="translate(551.5 582.5) scale(0.6 0.6)"/><use href="#flL" transform="translate(579.1 579.9) rotate(3.3 0 0) scale(0.6 0.6)"/><use href="#flA" transform="translate(579.1 581.9) scale(0.7 0.7)"/><use href="#flA" transform="translate(606.6 581.2) scale(0.6 0.6)"/><use href="#flB" transform="translate(634.2 580.5) scale(0.7 0.7)"/><use href="#flA" transform="translate(661.7 579.7) scale(0.6 0.6)"/><use href="#flL" transform="translate(689.3 576.9) rotate(-3.5 0 0) scale(0.6 0.6)"/><use href="#flA" transform="translate(689.3 578.9) scale(0.7 0.7)"/><use href="#flB" transform="translate(716.8 577.9) scale(0.6 0.6)"/><use href="#flA" transform="translate(744.4 577) scale(0.7 0.7)"/><use href="#flA" transform="translate(771.9 576) scale(0.6 0.6)"/><use href="#flL" transform="translate(799.5 573) rotate(6.7 0 0) scale(0.6 0.6)"/><use href="#flB" transform="translate(799.5 575) scale(0.7 0.7)"/><use href="#flA" transform="translate(827 574) scale(0.6 0.6)"/></g></g><g><g transform="translate(16 16) scale(0.8 0.8)"><path d="M0 0H108C86 8 70 22 62 44C54 66 40 82 18 90V108C-2 96-8 74-2 54C4 34 20 22 44 18C24 16 8 10 0 0Z" fill="#f0c052" opacity="0.2"/><path d="M6 6H86C60 18 44 40 34 74" fill="none" stroke="#ffeeb4" stroke-width="2" opacity="0.3"/></g><g transform="translate(784 16) scale(-0.8 0.8)"><path d="M0 0H108C86 8 70 22 62 44C54 66 40 82 18 90V108C-2 96-8 74-2 54C4 34 20 22 44 18C24 16 8 10 0 0Z" fill="#f0c052" opacity="0.2"/><path d="M6 6H86C60 18 44 40 34 74" fill="none" stroke="#ffeeb4" stroke-width="2" opacity="0.3"/></g><g transform="translate(16 584) scale(0.8 -0.8)"><path d="M0 0H108C86 8 70 22 62 44C54 66 40 82 18 90V108C-2 96-8 74-2 54C4 34 20 22 44 18C24 16 8 10 0 0Z" fill="#f0c052" opacity="0.2"/><path d="M6 6H86C60 18 44 40 34 74" fill="none" stroke="#ffeeb4" stroke-width="2" opacity="0.3"/></g><g transform="translate(784 584) scale(-0.8 -0.8)"><path d="M0 0H108C86 8 70 22 62 44C54 66 40 82 18 90V108C-2 96-8 74-2 54C4 34 20 22 44 18C24 16 8 10 0 0Z" fill="#f0c052" opacity="0.2"/><path d="M6 6H86C60 18 44 40 34 74" fill="none" stroke="#ffeeb4" stroke-width="2" opacity="0.3"/></g></g><g fill="none"><rect x="16" y="16" width="768" height="568" stroke="#f0c052" stroke-width="2.4" opacity="0.5" rx="8"/><rect x="23" y="23" width="754" height="554" stroke="#ffeeb4" stroke-width="1" opacity="0.3" rx="5"/></g><rect x="0" y="0" width="800" height="600" fill="url(#gVig)"/></svg>
