<svg xmlns="http://www.w3.org/2000/svg" viewBox="0 0 800 600" width="800" height="600" role="img"><defs><radialGradient id="gSky" cx="50%" cy="43.5%" r="88%"><stop offset="0%" stop-color="#2f8fa8"/><stop offset="46%" stop-color="#175d78"/><stop offset="100%" stop-color="#0a3145"/></radialGradient><linearGradient id="gWash" x1="0" y1="0" x2="0" y2="1"><stop offset="0%" stop-color="#0a3145" stop-opacity="0.35"/><stop offset="40%" stop-color="#175d78" stop-opacity="0"/><stop offset="100%" stop-color="#0a3145" stop-opacity="0.55"/></linearGradient><linearGradient id="gEmb" x1="0" y1="0" x2="0.35" y2="1"><stop offset="0%" stop-color="#f8f1dd"/><stop offset="48%" stop-color="#f6ecd2"/><stop offset="100%" stop-color="#c2a35e"/></linearGradient><linearGradient id="gGold" x1="0" y1="0" x2="0.5" y2="1"><stop offset="0%" stop-color="#fbe9b0"/><stop offset="34%" stop-color="#e9bf52"/><stop offset="58%" stop-color="#fcedc0"/><stop offset="100%" stop-color="#977c35"/></linearGradient><linearGradient id="gMetal" x1="0.1" y1="0" x2="0.9" y2="1"><stop offset="0%" stop-color="#f9f2e0"/><stop offset="32%" stop-color="#f6ecd2"/><stop offset="62%" stop-color="#d9c492"/><stop offset="100%" stop-color="#c2a35e"/></linearGradient><radialGradient id="gFlame" cx="50%" cy="72%" r="70%"><stop offset="0%" stop-color="#fffdf2"/><stop offset="34%" stop-color="#fbe9b0"/><stop offset="70%" stop-color="#e9bf52"/><stop offset="100%" stop-color="#e8722d"/></radialGradient><radialGradient id="gPetA" cx="42%" cy="38%" r="70%"><stop offset="0%" stop-color="#fbd679"/><stop offset="100%" stop-color="#dbac38"/></radialGradient><radialGradient id="gPetB" cx="42%" cy="38%" r="70%"><stop offset="0%" stop-color="#ee9968"/><stop offset="100%" stop-color="#c36026"/></radialGradient><linearGradient id="gWater" x1="0" y1="0" x2="0" y2="1"><stop offset="0%" stop-color="#8fe3ea" stop-opacity="0.35"/><stop offset="100%" stop-color="#0a3145" stop-opacity="0.1"/></linearGradient><linearGradient id="gFoot" x1="0" y1="0" x2="0" y2="1"><stop offset="0%" stop-color="#0a3145" stop-opacity="0"/><stop offset="100%" stop-color="#0a3145" stop-opacity="0.55"/></linearGradient><radialGradient id="gVig" cx="50%" cy="46%" r="76%"><stop offset="55%" stop-color="#000" stop-opacity="0"/><stop offset="100%" stop-color="#000" stop-opacity="0.42"/></radialGradient><filter id="fGlow" x="-60%" y="-60%" width="220%" height="220%"><feGaussianBlur stdDeviation="24"/></filter><filter id="fSoft" x="-30%" y="-30%" width="160%" height="160%"><feGaussianBlur stdDeviation="5"/></filter><g id="flA"><g transform="rotate(0 0 0)"><circle cx="0" cy="0" r="20" fill="#e8722d"/><circle cx="0" cy="-12.4" r="8.4" fill="#f9c440" opacity="1"/><circle cx="8" cy="-9.5" r="8.4" fill="#f9c440" opacity="1"/><circle cx="12.2" cy="-2.2" r="8.4" fill="#f9c440" opacity="1"/><circle cx="10.7" cy="6.2" r="8.4" fill="#f9c440" opacity="1"/><circle cx="4.2" cy="11.7" r="8.4" fill="#f9c440" opacity="1"/><circle cx="-4.2" cy="11.7" r="8.4" fill="#f9c440" opacity="1"/><circle cx="-10.7" cy="6.2" r="8.4" fill="#f9c440" opacity="1"/><circle cx="-12.2" cy="-2.2" r="8.4" fill="#f9c440" opacity="1"/><circle cx="-8" cy="-9.5" r="8.4" fill="#f9c440" opacity="1"/><circle cx="2.5" cy="-5.4" r="6" fill="#e8722d" opacity="0.9"/><circle cx="5.8" cy="-1.4" r="6" fill="#e8722d" opacity="0.9"/><circle cx="4.7" cy="3.7" r="6" fill="#e8722d" opacity="0.9"/><circle cx="0.1" cy="6" r="6" fill="#e8722d" opacity="0.9"/><circle cx="-4.6" cy="3.8" r="6" fill="#e8722d" opacity="0.9"/><circle cx="-5.9" cy="-1.3" r="6" fill="#e8722d" opacity="0.9"/><circle cx="-2.7" cy="-5.4" r="6" fill="#e8722d" opacity="0.9"/><circle cx="0" cy="0" r="5.2" fill="#f9c440"/><circle cx="0" cy="0" r="2.4" fill="#e8722d" opacity="0.8"/></g></g><g id="flB"><g transform="rotate(0 0 0)"><circle cx="0" cy="0" r="20" fill="#f9c440"/><circle cx="0" cy="-12.4" r="8.4" fill="#e8722d" opacity="1"/><circle cx="8" cy="-9.5" r="8.4" fill="#e8722d" opacity="1"/><circle cx="12.2" cy="-2.2" r="8.4" fill="#e8722d" opacity="1"/><circle cx="10.7" cy="6.2" r="8.4" fill="#e8722d" opacity="1"/><circle cx="4.2" cy="11.7" r="8.4" fill="#e8722d" opacity="1"/><circle cx="-4.2" cy="11.7" r="8.4" fill="#e8722d" opacity="1"/><circle cx="-10.7" cy="6.2" r="8.4" fill="#e8722d" opacity="1"/><circle cx="-12.2" cy="-2.2" r="8.4" fill="#e8722d" opacity="1"/><circle cx="-8" cy="-9.5" r="8.4" fill="#e8722d" opacity="1"/><circle cx="2.5" cy="-5.4" r="6" fill="#f9c440" opacity="0.9"/><circle cx="5.8" cy="-1.4" r="6" fill="#f9c440" opacity="0.9"/><circle cx="4.7" cy="3.7" r="6" fill="#f9c440" opacity="0.9"/><circle cx="0.1" cy="6" r="6" fill="#f9c440" opacity="0.9"/><circle cx="-4.6" cy="3.8" r="6" fill="#f9c440" opacity="0.9"/><circle cx="-5.9" cy="-1.3" r="6" fill="#f9c440" opacity="0.9"/><circle cx="-2.7" cy="-5.4" r="6" fill="#f9c440" opacity="0.9"/><circle cx="0" cy="0" r="5.2" fill="#e8722d"/><circle cx="0" cy="0" r="2.4" fill="#f9c440" opacity="0.8"/></g></g><g id="flL"><path d="M0 0C-11 -12.6 -11 -29.4 0 -42C11 -29.4 11 -12.6 0 0Z" fill="#c9f4f7" opacity="0.4"/></g></defs><g><rect x="0" y="0" width="800" height="600" fill="url(#gSky)"/><rect x="0" y="0" width="800" height="600" fill="url(#gWash)"/></g><g opacity="0.1"><polygon points="-10,0 10,0 26,-760 -26,-760" fill="#8fe3ea" transform="translate(400 261) rotate(0 0 0)"/><polygon points="-10,0 10,0 26,-760 -26,-760" fill="#8fe3ea" transform="translate(400 261) rotate(28.5 0 0)"/><polygon points="-10,0 10,0 26,-760 -26,-760" fill="#8fe3ea" transform="translate(400 261) rotate(45 0 0)"/><polygon points="-10,0 10,0 26,-760 -26,-760" fill="#8fe3ea" transform="translate(400 261) rotate(73.5 0 0)"/><polygon points="-10,0 10,0 26,-760 -26,-760" fill="#8fe3ea" transform="translate(400 261) rotate(90 0 0)"/><polygon points="-10,0 10,0 26,-760 -26,-760" fill="#8fe3ea" transform="translate(400 261) rotate(118.5 0 0)"/><polygon points="-10,0 10,0 26,-760 -26,-760" fill="#8fe3ea" transform="translate(400 261) rotate(135 0 0)"/><polygon points="-10,0 10,0 26,-760 -26,-760" fill="#8fe3ea" transform="translate(400 261) rotate(163.5 0 0)"/><polygon points="-10,0 10,0 26,-760 -26,-760" fill="#8fe3ea" transform="translate(400 261) rotate(180 0 0)"/><polygon points="-10,0 10,0 26,-760 -26,-760" fill="#8fe3ea" transform="translate(400 261) rotate(208.5 0 0)"/><polygon points="-10,0 10,0 26,-760 -26,-760" fill="#8fe3ea" transform="translate(400 261) rotate(225 0 0)"/><polygon points="-10,0 10,0 26,-760 -26,-760" fill="#8fe3ea" transform="translate(400 261) rotate(253.5 0 0)"/><polygon points="-10,0 10,0 26,-760 -26,-760" fill="#8fe3ea" transform="translate(400 261) rotate(270 0 0)"/><polygon points="-10,0 10,0 26,-760 -26,-760" fill="#8fe3ea" transform="translate(400 261) rotate(298.5 0 0)"/><polygon points="-10,0 10,0 26,-760 -26,-760" fill="#8fe3ea" transform="translate(400 261) rotate(315 0 0)"/><polygon points="-10,0 10,0 26,-760 -26,-760" fill="#8fe3ea" transform="translate(400 261) rotate(343.5 0 0)"/></g><g transform="translate(400 261)"><defs><g id="mda"><g transform="translate(0 -180)"><path d="M0 0C-14.4 -29 -7.9 -43.1 0 -46.8C7.9 -43.1 14.4 -29 0 0Z" fill="none" stroke="#e0bd63" stroke-width="2.2" opacity="0.4" transform="rotate(180 0 0)"/></g></g><g id="mdb"><g transform="translate(0 -223.2)"><circle cx="0" cy="0" r="4" fill="#fbe9b0" opacity="0.6"/><path d="M-9 0Q0 9 9 0Q0 -9 -9 0Z" fill="#e0bd63" opacity="0.3"/></g></g></defs><circle cx="0" cy="0" r="154.8" fill="none" stroke="#e0bd63" stroke-width="1" opacity="0.2"/><circle cx="0" cy="0" r="180" fill="none" stroke="#e0bd63" stroke-width="1.4" opacity="0.3"/><circle cx="0" cy="0" r="201.6" fill="none" stroke="#e0bd63" stroke-width="1" opacity="0.2" stroke-dasharray="2 9"/><use href="#mda" transform="rotate(0 0 0)"/><use href="#mda" transform="rotate(20 0 0)"/><use href="#mda" transform="rotate(40 0 0)"/><use href="#mda" transform="rotate(60 0 0)"/><use href="#mda" transform="rotate(80 0 0)"/><use href="#mda" transform="rotate(100 0 0)"/><use href="#mda" transform="rotate(120 0 0)"/><use href="#mda" transform="rotate(140 0 0)"/><use href="#mda" transform="rotate(160 0 0)"/><use href="#mda" transform="rotate(180 0 0)"/><use href="#mda" transform="rotate(200 0 0)"/><use href="#mda" transform="rotate(220 0 0)"/><use href="#mda" transform="rotate(240 0 0)"/><use href="#mda" transform="rotate(260 0 0)"/><use href="#mda" transform="rotate(280 0 0)"/><use href="#mda" transform="rotate(300 0 0)"/><use href="#mda" transform="rotate(320 0 0)"/><use href="#mda" transform="rotate(340 0 0)"/><use href="#mdb" transform="rotate(0 0 0)"/><use href="#mdb" transform="rotate(12 0 0)"/><use href="#mdb" transform="rotate(24 0 0)"/><use href="#mdb" transform="rotate(36 0 0)"/><use href="#mdb" transform="rotate(48 0 0)"/><use href="#mdb" transform="rotate(60 0 0)"/><use href="#mdb" transform="rotate(72 0 0)"/><use href="#mdb" transform="rotate(84 0 0)"/><use href="#mdb" transform="rotate(96 0 0)"/><use href="#mdb" transform="rotate(108 0 0)"/><use href="#mdb" transform="rotate(120 0 0)"/><use href="#mdb" transform="rotate(132 0 0)"/><use href="#mdb" transform="rotate(144 0 0)"/><use href="#mdb" transform="rotate(156 0 0)"/><use href="#mdb" transform="rotate(168 0 0)"/><use href="#mdb" transform="rotate(180 0 0)"/><use href="#mdb" transform="rotate(192 0 0)"/><use href="#mdb" transform="rotate(204 0 0)"/><use href="#mdb" transform="rotate(216 0 0)"/><use href="#mdb" transform="rotate(228 0 0)"/><use href="#mdb" transform="rotate(240 0 0)"/><use href="#mdb" transform="rotate(252 0 0)"/><use href="#mdb" transform="rotate(264 0 0)"/><use href="#mdb" transform="rotate(276 0 0)"/><use href="#mdb" transform="rotate(288 0 0)"/><use href="#mdb" transform="rotate(300 0 0)"/><use href="#mdb" transform="rotate(312 0 0)"/><use href="#mdb" transform="rotate(324 0 0)"/><use href="#mdb" transform="rotate(336 0 0)"/><use href="#mdb" transform="rotate(348 0 0)"/></g><g><path d="M-30 408C-17.55247547915205 356.17592272837646 -8.83920831455849 313.565014749486 1.118811302119866 292.8353838408366C11.076830918798223 313.565014749486 19.790098083391783 356.17592272837646 32.23762260423973 408Z" fill="#0f4358" stroke="#e0bd63" stroke-opacity="0.2" stroke-width="1.5"/><g><line x1="1.1" y1="292.8" x2="1.1" y2="278.8" stroke="#e9bf52" stroke-width="3"/><circle cx="1.1" cy="274.8" r="5" fill="#e9bf52"/><polygon points="1.1,260.8 5.1,270.8 -2.9,270.8" fill="#e9bf52"/></g><path d="M34.90613957860893 408C44.47781369856945 363.7271520931972 51.17798558254181 327.32503270315937 58.83532487851022 309.61589354043826C66.49266417447863 327.32503270315937 73.192836058451 363.7271520931972 82.76451017841151 408Z" fill="#0f4358" stroke="#e0bd63" stroke-opacity="0.2" stroke-width="1.5"/><g><line x1="58.8" y1="309.6" x2="58.8" y2="295.6" stroke="#e9bf52" stroke-width="3"/><circle cx="58.8" cy="291.6" r="5" fill="#e9bf52"/><polygon points="58.8,277.6 62.8,287.6 54.8,287.6" fill="#e9bf52"/></g><path d="M82.63212752865022 408C98.24969299548631 379.26482706971 109.18198882227158 355.6381293270271 121.67604119574045 344.14406015491113C134.1700935692093 355.6381293270271 145.1023893959946 379.26482706971 160.7199548628307 408Z" fill="#0f4358" stroke="#e0bd63" stroke-opacity="0.2" stroke-width="1.5"/><circle cx="121.7" cy="338.1" r="3" fill="#e9bf52" opacity="0.8"/><path d="M161.88557656625466 408C174.65245989136577 371.64171393751167 183.58927821894355 341.7471231750213 193.80278487903246 327.2038087500259C204.01629153912137 341.7471231750213 212.95310986669915 371.64171393751167 225.71999319181026 408Z" fill="#0f4358" stroke="#e0bd63" stroke-opacity="0.2" stroke-width="1.5"/><circle cx="193.8" cy="321.2" r="3" fill="#e9bf52" opacity="0.8"/><path d="M224.17251643397884 408C237.66440035522953 356.90674892405514 247.10871910010502 314.8967424838338 257.9022262371056 294.45944205345586C268.69573337410617 314.8967424838338 278.14005211898166 356.90674892405514 291.63193604023235 408Z" fill="#0f4358" stroke="#e0bd63" stroke-opacity="0.2" stroke-width="1.5"/><g><line x1="257.9" y1="294.5" x2="257.9" y2="280.5" stroke="#e9bf52" stroke-width="3"/><circle cx="257.9" cy="276.5" r="5" fill="#e9bf52"/><polygon points="257.9,262.5 261.9,272.5 253.9,272.5" fill="#e9bf52"/></g><path d="M285.18767612633167 408C304.05012697401327 355.90195956104435 317.2538425673904 313.065792977903 332.3438032455357 292.2265768023208C347.433763923681 313.065792977903 360.6374795170581 355.90195956104435 379.4999303647397 408Z" fill="#0f4358" stroke="#e0bd63" stroke-opacity="0.2" stroke-width="1.5"/><g><line x1="332.3" y1="292.2" x2="332.3" y2="278.2" stroke="#e9bf52" stroke-width="3"/><circle cx="332.3" cy="274.2" r="5" fill="#e9bf52"/><polygon points="332.3,260.2 336.3,270.2 328.3,270.2" fill="#e9bf52"/></g><path d="M380.0553305394188 408C398.53221274690554 370.8295985822333 411.4660302921463 340.2672685276251 426.2475360581357 325.39910796051845C441.02904182412516 340.2672685276251 453.9628593693659 370.8295985822333 472.43974157685267 408Z" fill="#0f4358" stroke="#e0bd63" stroke-opacity="0.2" stroke-width="1.5"/><circle cx="426.2" cy="319.4" r="3" fill="#e9bf52" opacity="0.8"/><path d="M481.71264046554455 408C493.19412535580807 354.4591994587099 501.23116477899254 310.43676345809365 510.4163526912034 289.0204432415776C519.6015406034142 310.43676345809365 527.6385800265987 354.4591994587099 539.1200649168622 408Z" fill="#0f4358" stroke="#e0bd63" stroke-opacity="0.2" stroke-width="1.5"/><g><line x1="510.4" y1="289" x2="510.4" y2="275" stroke="#e9bf52" stroke-width="3"/><circle cx="510.4" cy="271" r="5" fill="#e9bf52"/><polygon points="510.4,257 514.4,267 506.4,267" fill="#e9bf52"/></g><path d="M556.140894796909 408C573.7737251944144 355.15873239934444 586.116706472668 311.71146792769434 600.2229707906723 290.5749608874321C614.3292351086766 311.71146792769434 626.6722163869302 355.15873239934444 644.3050467844356 408Z" fill="#0f4358" stroke="#e0bd63" stroke-opacity="0.2" stroke-width="1.5"/><g><line x1="600.2" y1="290.6" x2="600.2" y2="276.6" stroke="#e9bf52" stroke-width="3"/><circle cx="600.2" cy="272.6" r="5" fill="#e9bf52"/><polygon points="600.2,258.6 604.2,268.6 596.2,268.6" fill="#e9bf52"/></g><path d="M659.3172937349315 408C675.2135893637213 373.4545398991322 686.3409963038741 345.05049492730757 699.058032806906 331.2323108869605C711.7750693099379 345.05049492730757 722.9024762500907 373.4545398991322 738.7987718788805 408Z" fill="#0f4358" stroke="#e0bd63" stroke-opacity="0.2" stroke-width="1.5"/><circle cx="699.1" cy="325.2" r="3" fill="#e9bf52" opacity="0.8"/><path d="M752.8043526165362 408C768.0091767193925 379.6224359959597 778.6525535913918 356.2897722593043 790.8164128736768 344.93874665768817C802.9802721559618 356.2897722593043 813.623649027961 379.6224359959597 828.8284731308173 408Z" fill="#0f4358" stroke="#e0bd63" stroke-opacity="0.2" stroke-width="1.5"/><circle cx="790.8" cy="338.9" r="3" fill="#e9bf52" opacity="0.8"/><rect x="-20" y="408" width="840" height="16" fill="#0f4358" opacity="1"/><rect x="-12" y="423" width="824" height="16" fill="#062432" opacity="1"/><rect x="-4" y="438" width="808" height="16" fill="#0f4358" opacity="1"/><rect x="4" y="453" width="792" height="16" fill="#062432" opacity="1"/><rect x="12" y="468" width="776" height="16" fill="#0f4358" opacity="1"/><rect x="20" y="483" width="760" height="16" fill="#062432" opacity="1"/><rect x="28" y="498" width="744" height="16" fill="#0f4358" opacity="1"/><g transform="translate(144 532) scale(0.7 0.7)"><path d="M-34 0Q0 16 34 0Q0 8-34 0Z" fill="#062432"/><line x1="0" y1="0" x2="0" y2="-22" stroke="#062432" stroke-width="3"/><circle cx="0" cy="-26" r="4" fill="#e9bf52" opacity="0.8"/></g><g transform="translate(496 544) scale(0.9 0.9)"><path d="M-34 0Q0 16 34 0Q0 8-34 0Z" fill="#062432"/><line x1="0" y1="0" x2="0" y2="-22" stroke="#062432" stroke-width="3"/><circle cx="0" cy="-26" r="4" fill="#e9bf52" opacity="0.8"/></g><g transform="translate(680 556) scale(1 1)"><path d="M-34 0Q0 16 34 0Q0 8-34 0Z" fill="#062432"/><line x1="0" y1="0" x2="0" y2="-22" stroke="#062432" stroke-width="3"/><circle cx="0" cy="-26" r="4" fill="#e9bf52" opacity="0.8"/></g></g><g><g transform="translate(100 441) scale(0.3 0.3)"><circle cx="0" cy="-30" r="70" fill="#e9bf52" opacity="0.2" filter="url(#fGlow)"/><path d="M-84 20C-88 52-46 72 0 72S88 52 84 20Z" fill="#062432"/><ellipse cx="0" cy="20" rx="84" ry="20" fill="#e9bf52" opacity="0.9"/><path d="M0-70C-24-40-30-18-18-2C-8 10 8 10 18-2C30-18 24-40 0-70Z" fill="url(#gFlame)"/></g><g transform="translate(200 441) scale(0.2 0.2)"><circle cx="0" cy="-30" r="70" fill="#e9bf52" opacity="0.2" filter="url(#fGlow)"/><path d="M-84 20C-88 52-46 72 0 72S88 52 84 20Z" fill="#062432"/><ellipse cx="0" cy="20" rx="84" ry="20" fill="#e9bf52" opacity="0.9"/><path d="M0-70C-24-40-30-18-18-2C-8 10 8 10 18-2C30-18 24-40 0-70Z" fill="url(#gFlame)"/></g><g transform="translate(300 441) scale(0.3 0.3)"><circle cx="0" cy="-30" r="70" fill="#e9bf52" opacity="0.2" filter="url(#fGlow)"/><path d="M-84 20C-88 52-46 72 0 72S88 52 84 20Z" fill="#062432"/><ellipse cx="0" cy="20" rx="84" ry="20" fill="#e9bf52" opacity="0.9"/><path d="M0-70C-24-40-30-18-18-2C-8 10 8 10 18-2C30-18 24-40 0-70Z" fill="url(#gFlame)"/></g><g transform="translate(400 441) scale(0.2 0.2)"><circle cx="0" cy="-30" r="70" fill="#e9bf52" opacity="0.2" filter="url(#fGlow)"/><path d="M-84 20C-88 52-46 72 0 72S88 52 84 20Z" fill="#062432"/><ellipse cx="0" cy="20" rx="84" ry="20" fill="#e9bf52" opacity="0.9"/><path d="M0-70C-24-40-30-18-18-2C-8 10 8 10 18-2C30-18 24-40 0-70Z" fill="url(#gFlame)"/></g><g transform="translate(500 441) scale(0.3 0.3)"><circle cx="0" cy="-30" r="70" fill="#e9bf52" opacity="0.2" filter="url(#fGlow)"/><path d="M-84 20C-88 52-46 72 0 72S88 52 84 20Z" fill="#062432"/><ellipse cx="0" cy="20" rx="84" ry="20" fill="#e9bf52" opacity="0.9"/><path d="M0-70C-24-40-30-18-18-2C-8 10 8 10 18-2C30-18 24-40 0-70Z" fill="url(#gFlame)"/></g><g transform="translate(600 441) scale(0.2 0.2)"><circle cx="0" cy="-30" r="70" fill="#e9bf52" opacity="0.2" filter="url(#fGlow)"/><path d="M-84 20C-88 52-46 72 0 72S88 52 84 20Z" fill="#062432"/><ellipse cx="0" cy="20" rx="84" ry="20" fill="#e9bf52" opacity="0.9"/><path d="M0-70C-24-40-30-18-18-2C-8 10 8 10 18-2C30-18 24-40 0-70Z" fill="url(#gFlame)"/></g><g transform="translate(700 441) scale(0.3 0.3)"><circle cx="0" cy="-30" r="70" fill="#e9bf52" opacity="0.2" filter="url(#fGlow)"/><path d="M-84 20C-88 52-46 72 0 72S88 52 84 20Z" fill="#062432"/><ellipse cx="0" cy="20" rx="84" ry="20" fill="#e9bf52" opacity="0.9"/><path d="M0-70C-24-40-30-18-18-2C-8 10 8 10 18-2C30-18 24-40 0-70Z" fill="url(#gFlame)"/></g></g><circle cx="400" cy="261" r="180" fill="#8fe3ea" opacity="0.3" filter="url(#fGlow)"/><circle cx="400" cy="261" r="102" fill="#fbe9b0" opacity="0.3" filter="url(#fGlow)"/><g transform="translate(400 261) scale(1.4 1.4)"><g><circle cx="0" cy="0" r="134" fill="#8fe3ea" opacity="0.4" filter="url(#fGlow)"/><g transform="translate(-72 6) scale(0.7 0.7)"><g><circle cx="0" cy="0" r="124" fill="#8fe3ea" opacity="0.4" filter="url(#fGlow)"/><path d="M-78 52C-96 22-70-22-24-52C10-74 48-88 72-90C60-66 50-34 38-4C24 32-14 68-48 74C-62 76-72 66-78 52Z" fill="url(#gMetal)" transform="rotate(-12 0 0)"/><g transform="rotate(-12 0 0)" fill="none" stroke="#c2a35e" stroke-opacity="0.6" stroke-width="3" stroke-linecap="round"><path d="M-56 44C-64 22-44-14-8-38"/><path d="M-34 58C-44 34-24 0 10-26"/><path d="M-8 66C-20 44-2 14 28-14"/></g><path d="M-78 52C-92 60-96 78-84 88C-64 104-24 96-6 76C-24 82-58 78-78 52Z" fill="url(#gGold)" transform="rotate(-12 0 0)"/><g transform="rotate(-12 0 0) translate(60 -76)" fill="none" stroke="url(#gGold)" stroke-width="5" stroke-linecap="round"><path d="M14 4C14-8 2-14-6-8S-12 8 0 10"/></g><ellipse cx="-20" cy="-30" rx="26" ry="9" fill="#fff" opacity="0.4" transform="rotate(-38 0 0)"/><g fill="#f9c440" opacity="0.9"><circle cx="-86" cy="84" r="7"/><circle cx="-66" cy="96" r="5.5"/><circle cx="84" cy="-78" r="6"/></g></g></g><g transform="translate(74 -4) scale(0.6 0.6)"><g><circle cx="0" cy="0" r="134" fill="#8fe3ea" opacity="0.5" filter="url(#fGlow)"/><g transform="rotate(0 0 0)"><path d="M0 0C-11 -6.1 -11.5 -17 -2.7 -25.8C-0.5 -30.6 1.1 -32.3 0 -34C5.5 -27.9 11.6 -17 11 -6.1C7.7 -1.7 3.9 0 0 0Z" fill="url(#gFlame)" transform="translate(0 -106) rotate(180 0 0)"/></g><g transform="rotate(22.5 0 0)"><path d="M0 0C-11 -6.1 -11.5 -17 -2.7 -25.8C-0.5 -30.6 1.1 -32.3 0 -34C5.5 -27.9 11.6 -17 11 -6.1C7.7 -1.7 3.9 0 0 0Z" fill="url(#gFlame)" transform="translate(0 -106) rotate(180 0 0)"/></g><g transform="rotate(45 0 0)"><path d="M0 0C-11 -6.1 -11.5 -17 -2.7 -25.8C-0.5 -30.6 1.1 -32.3 0 -34C5.5 -27.9 11.6 -17 11 -6.1C7.7 -1.7 3.9 0 0 0Z" fill="url(#gFlame)" transform="translate(0 -106) rotate(180 0 0)"/></g><g transform="rotate(67.5 0 0)"><path d="M0 0C-11 -6.1 -11.5 -17 -2.7 -25.8C-0.5 -30.6 1.1 -32.3 0 -34C5.5 -27.9 11.6 -17 11 -6.1C7.7 -1.7 3.9 0 0 0Z" fill="url(#gFlame)" transform="translate(0 -106) rotate(180 0 0)"/></g><g transform="rotate(90 0 0)"><path d="M0 0C-11 -6.1 -11.5 -17 -2.7 -25.8C-0.5 -30.6 1.1 -32.3 0 -34C5.5 -27.9 11.6 -17 11 -6.1C7.7 -1.7 3.9 0 0 0Z" fill="url(#gFlame)" transform="translate(0 -106) rotate(180 0 0)"/></g><g transform="rotate(112.5 0 0)"><path d="M0 0C-11 -6.1 -11.5 -17 -2.7 -25.8C-0.5 -30.6 1.1 -32.3 0 -34C5.5 -27.9 11.6 -17 11 -6.1C7.7 -1.7 3.9 0 0 0Z" fill="url(#gFlame)" transform="translate(0 -106) rotate(180 0 0)"/></g><g transform="rotate(135 0 0)"><path d="M0 0C-11 -6.1 -11.5 -17 -2.7 -25.8C-0.5 -30.6 1.1 -32.3 0 -34C5.5 -27.9 11.6 -17 11 -6.1C7.7 -1.7 3.9 0 0 0Z" fill="url(#gFlame)" transform="translate(0 -106) rotate(180 0 0)"/></g><g transform="rotate(157.5 0 0)"><path d="M0 0C-11 -6.1 -11.5 -17 -2.7 -25.8C-0.5 -30.6 1.1 -32.3 0 -34C5.5 -27.9 11.6 -17 11 -6.1C7.7 -1.7 3.9 0 0 0Z" fill="url(#gFlame)" transform="translate(0 -106) rotate(180 0 0)"/></g><g transform="rotate(180 0 0)"><path d="M0 0C-11 -6.1 -11.5 -17 -2.7 -25.8C-0.5 -30.6 1.1 -32.3 0 -34C5.5 -27.9 11.6 -17 11 -6.1C7.7 -1.7 3.9 0 0 0Z" fill="url(#gFlame)" transform="translate(0 -106) rotate(180 0 0)"/></g><g transform="rotate(202.5 0 0)"><path d="M0 0C-11 -6.1 -11.5 -17 -2.7 -25.8C-0.5 -30.6 1.1 -32.3 0 -34C5.5 -27.9 11.6 -17 11 -6.1C7.7 -1.7 3.9 0 0 0Z" fill="url(#gFlame)" transform="translate(0 -106) rotate(180 0 0)"/></g><g transform="rotate(225 0 0)"><path d="M0 0C-11 -6.1 -11.5 -17 -2.7 -25.8C-0.5 -30.6 1.1 -32.3 0 -34C5.5 -27.9 11.6 -17 11 -6.1C7.7 -1.7 3.9 0 0 0Z" fill="url(#gFlame)" transform="translate(0 -106) rotate(180 0 0)"/></g><g transform="rotate(247.5 0 0)"><path d="M0 0C-11 -6.1 -11.5 -17 -2.7 -25.8C-0.5 -30.6 1.1 -32.3 0 -34C5.5 -27.9 11.6 -17 11 -6.1C7.7 -1.7 3.9 0 0 0Z" fill="url(#gFlame)" transform="translate(0 -106) rotate(180 0 0)"/></g><g transform="rotate(270 0 0)"><path d="M0 0C-11 -6.1 -11.5 -17 -2.7 -25.8C-0.5 -30.6 1.1 -32.3 0 -34C5.5 -27.9 11.6 -17 11 -6.1C7.7 -1.7 3.9 0 0 0Z" fill="url(#gFlame)" transform="translate(0 -106) rotate(180 0 0)"/></g><g transform="rotate(292.5 0 0)"><path d="M0 0C-11 -6.1 -11.5 -17 -2.7 -25.8C-0.5 -30.6 1.1 -32.3 0 -34C5.5 -27.9 11.6 -17 11 -6.1C7.7 -1.7 3.9 0 0 0Z" fill="url(#gFlame)" transform="translate(0 -106) rotate(180 0 0)"/></g><g transform="rotate(315 0 0)"><path d="M0 0C-11 -6.1 -11.5 -17 -2.7 -25.8C-0.5 -30.6 1.1 -32.3 0 -34C5.5 -27.9 11.6 -17 11 -6.1C7.7 -1.7 3.9 0 0 0Z" fill="url(#gFlame)" transform="translate(0 -106) rotate(180 0 0)"/></g><g transform="rotate(337.5 0 0)"><path d="M0 0C-11 -6.1 -11.5 -17 -2.7 -25.8C-0.5 -30.6 1.1 -32.3 0 -34C5.5 -27.9 11.6 -17 11 -6.1C7.7 -1.7 3.9 0 0 0Z" fill="url(#gFlame)" transform="translate(0 -106) rotate(180 0 0)"/></g><circle cx="0" cy="0" r="108" fill="none" stroke="url(#gGold)" stroke-width="14"/><path d="M0 -94L11 -83.3L24.3 -90.8L32.1 -77.6L47 -81.4L51.1 -66.6L66.5 -66.5L66.6 -51.1L81.4 -47L77.6 -32.1L90.8 -24.3L83.3 -11L94 0L83.3 11L90.8 24.3L77.6 32.1L81.4 47L66.6 51.1L66.5 66.5L51.1 66.6L47 81.4L32.1 77.6L24.3 90.8L11 83.3L0 94L-11 83.3L-24.3 90.8L-32.1 77.6L-47 81.4L-51.1 66.6L-66.5 66.5L-66.6 51.1L-81.4 47L-77.6 32.1L-90.8 24.3L-83.3 11L-94 0L-83.3 -11L-90.8 -24.3L-77.6 -32.1L-81.4 -47L-66.6 -51.1L-66.5 -66.5L-51.1 -66.6L-47 -81.4L-32.1 -77.6L-24.3 -90.8L-11 -83.3Z" fill="url(#gEmb)"/><circle cx="0" cy="0" r="82" fill="#0a3145" opacity="0.6"/><circle cx="0" cy="0" r="82" fill="none" stroke="url(#gGold)" stroke-width="5"/><path d="M0-78L11-16L0 0L-11-16Z" fill="url(#gGold)" transform="rotate(0 0 0)"/><path d="M0-78L11-16L0 0L-11-16Z" fill="url(#gGold)" transform="rotate(45 0 0)"/><path d="M0-78L11-16L0 0L-11-16Z" fill="url(#gGold)" transform="rotate(90 0 0)"/><path d="M0-78L11-16L0 0L-11-16Z" fill="url(#gGold)" transform="rotate(135 0 0)"/><path d="M0-78L11-16L0 0L-11-16Z" fill="url(#gGold)" transform="rotate(180 0 0)"/><path d="M0-78L11-16L0 0L-11-16Z" fill="url(#gGold)" transform="rotate(225 0 0)"/><path d="M0-78L11-16L0 0L-11-16Z" fill="url(#gGold)" transform="rotate(270 0 0)"/><path d="M0-78L11-16L0 0L-11-16Z" fill="url(#gGold)" transform="rotate(315 0 0)"/><circle cx="0" cy="0" r="26" fill="url(#gGold)"/><path d="M0 0C-6.5 -11 -3.6 -18.4 0 -20C3.6 -18.4 6.5 -11 0 0Z" fill="#f6ecd2" opacity="0.9" transform="rotate(0 0 0) translate(0 0)"/><path d="M0 0C-6.5 -11 -3.6 -18.4 0 -20C3.6 -18.4 6.5 -11 0 0Z" fill="#f6ecd2" opacity="0.9" transform="rotate(45 0 0) translate(0 0)"/><path d="M0 0C-6.5 -11 -3.6 -18.4 0 -20C3.6 -18.4 6.5 -11 0 0Z" fill="#f6ecd2" opacity="0.9" transform="rotate(90 0 0) translate(0 0)"/><path d="M0 0C-6.5 -11 -3.6 -18.4 0 -20C3.6 -18.4 6.5 -11 0 0Z" fill="#f6ecd2" opacity="0.9" transform="rotate(135 0 0) translate(0 0)"/><path d="M0 0C-6.5 -11 -3.6 -18.4 0 -20C3.6 -18.4 6.5 -11 0 0Z" fill="#f6ecd2" opacity="0.9" transform="rotate(180 0 0) translate(0 0)"/><path d="M0 0C-6.5 -11 -3.6 -18.4 0 -20C3.6 -18.4 6.5 -11 0 0Z" fill="#f6ecd2" opacity="0.9" transform="rotate(225 0 0) translate(0 0)"/><path d="M0 0C-6.5 -11 -3.6 -18.4 0 -20C3.6 -18.4 6.5 -11 0 0Z" fill="#f6ecd2" opacity="0.9" transform="rotate(270 0 0) translate(0 0)"/><path d="M0 0C-6.5 -11 -3.6 -18.4 0 -20C3.6 -18.4 6.5 -11 0 0Z" fill="#f6ecd2" opacity="0.9" transform="rotate(315 0 0) translate(0 0)"/><circle cx="0" cy="0" r="10" fill="#ffd86b"/><circle cx="0" cy="0" r="4" fill="#fff" opacity="0.9"/></g></g><g transform="translate(0 116)"><path d="M0 0C-13 -13.8 -13 -32.2 0 -46C13 -32.2 13 -13.8 0 0Z" fill="#ffd86b"/><path d="M0 0C-10 -10.8 -10 -25.2 0 -36C10 -25.2 10 -10.8 0 0Z" fill="#ffd86b" transform="rotate(-52 0 0)"/><path d="M0 0C-10 -10.8 -10 -25.2 0 -36C10 -25.2 10 -10.8 0 0Z" fill="#ffd86b" transform="rotate(52 0 0)"/></g><g transform="translate(0 -108)"><path d="M0-24L8-6L28-4L13 9L18 28L0 18L-18 28L-13 9L-28-4L-8-6Z" fill="url(#gGold)"/></g></g></g><g><circle cx="270" cy="150.8" r="2.6" fill="#e9bf52" opacity="0.6"/><circle cx="405" cy="357.4" r="3.3" fill="#e9bf52" opacity="0.4"/><circle cx="268" cy="459.5" r="2.8" fill="#e9bf52" opacity="0.5"/><circle cx="701.5" cy="329.2" r="2.3" fill="#e9bf52" opacity="0.3"/><circle cx="701.5" cy="329.2" r="7.3" fill="#e9bf52" opacity="0.1" filter="url(#fSoft)"/><circle cx="716.8" cy="113" r="3.7" fill="#e9bf52" opacity="0.6"/><circle cx="243.2" cy="304.3" r="4.6" fill="#e9bf52" opacity="0.4"/><circle cx="45.9" cy="450.6" r="4.1" fill="#e9bf52" opacity="0.6"/><circle cx="428.6" cy="490.4" r="2.8" fill="#e9bf52" opacity="0.3"/><circle cx="428.6" cy="490.4" r="9" fill="#e9bf52" opacity="0.1" filter="url(#fSoft)"/><circle cx="777.9" cy="382.9" r="3.1" fill="#e9bf52" opacity="0.4"/><circle cx="757.9" cy="391.3" r="3.7" fill="#e9bf52" opacity="0.4"/><circle cx="297.4" cy="475.2" r="3.7" fill="#e9bf52" opacity="0.5"/><circle cx="297.4" cy="475.2" r="11.9" fill="#e9bf52" opacity="0.1" filter="url(#fSoft)"/><circle cx="291.9" cy="238.9" r="2.2" fill="#e9bf52" opacity="0.3"/><circle cx="479.9" cy="221.2" r="2.5" fill="#e9bf52" opacity="0.2"/><circle cx="479.9" cy="221.2" r="8.1" fill="#e9bf52" opacity="0.1" filter="url(#fSoft)"/><circle cx="262.8" cy="250.6" r="4" fill="#e9bf52" opacity="0.3"/><circle cx="358.3" cy="230" r="1.7" fill="#e9bf52" opacity="0.4"/><circle cx="507" cy="371.2" r="2.5" fill="#e9bf52" opacity="0.3"/><circle cx="121.8" cy="163.3" r="2.3" fill="#e9bf52" opacity="0.6"/><circle cx="379.6" cy="41" r="2.9" fill="#e9bf52" opacity="0.6"/><circle cx="492.4" cy="387.1" r="4.5" fill="#e9bf52" opacity="0.5"/><circle cx="24.2" cy="148.1" r="1.9" fill="#e9bf52" opacity="0.3"/><circle cx="358.1" cy="439" r="4.1" fill="#e9bf52" opacity="0.4"/><circle cx="750.4" cy="309.9" r="1.9" fill="#e9bf52" opacity="0.4"/><circle cx="303.8" cy="144.2" r="3.1" fill="#e9bf52" opacity="0.5"/><circle cx="185.8" cy="350.2" r="2.9" fill="#e9bf52" opacity="0.5"/><circle cx="185.8" cy="350.2" r="9.2" fill="#e9bf52" opacity="0.1" filter="url(#fSoft)"/><circle cx="601.7" cy="336.9" r="2.3" fill="#e9bf52" opacity="0.3"/><circle cx="377.1" cy="173.4" r="1.7" fill="#e9bf52" opacity="0.6"/><circle cx="377.1" cy="173.4" r="5.4" fill="#e9bf52" opacity="0.1" filter="url(#fSoft)"/></g><g><rect x="0" y="526" width="800" height="74" fill="url(#gFoot)"/><g><path d="M-32 544L1.2307692307692335 545.9285868840851L34.46153846153847 547.829050628601L67.6923076923077 549.6736781926805L100.92307692307693 551.4355707527003L134.15384615384616 553.0890359476984L167.3846153846154 554.6099625318527L200.6153846153846 555.9761719707376L233.84615384615387 557.1677418542985L267.0769230769231 558.1672964104514L300.3076923076923 558.9602598829666L333.53846153846155 559.5350690788168L366.7692307692308 559.8833419855689L400 560L433.2307692307692 559.8833419855689L466.4615384615384 559.5350690788168L499.69230769230774 558.9602598829666L532.9230769230769 558.1672964104514L566.1538461538462 557.1677418542985L599.3846153846154 555.9761719707376L632.6153846153846 554.6099625318527L665.8461538461538 553.0890359476984L699.0769230769231 551.4355707527003L732.3076923076923 549.6736781926805L765.5384615384615 547.829050628601L798.7692307692308 545.9285868840851L832 544" fill="none" stroke="#e8722d" stroke-width="3" opacity="0.6"/><use href="#flB" transform="translate(-32 544) scale(0.8 0.8)"/><use href="#flA" transform="translate(1.2 545.9) scale(0.7 0.7)"/><use href="#flL" transform="translate(34.5 545.8) rotate(14.3 0 0) scale(0.7 0.7)"/><use href="#flA" transform="translate(34.5 547.8) scale(0.8 0.8)"/><use href="#flB" transform="translate(67.7 549.7) scale(0.7 0.7)"/><use href="#flA" transform="translate(100.9 551.4) scale(0.8 0.8)"/><use href="#flA" transform="translate(134.2 553.1) scale(0.7 0.7)"/><use href="#flL" transform="translate(167.4 552.6) rotate(-16.7 0 0) scale(0.7 0.7)"/><use href="#flB" transform="translate(167.4 554.6) scale(0.8 0.8)"/><use href="#flA" transform="translate(200.6 556) scale(0.7 0.7)"/><use href="#flA" transform="translate(233.8 557.2) scale(0.8 0.8)"/><use href="#flB" transform="translate(267.1 558.2) scale(0.7 0.7)"/><use href="#flL" transform="translate(300.3 557) rotate(12.5 0 0) scale(0.7 0.7)"/><use href="#flA" transform="translate(300.3 559) scale(0.8 0.8)"/><use href="#flA" transform="translate(333.5 559.5) scale(0.7 0.7)"/><use href="#flB" transform="translate(366.8 559.9) scale(0.8 0.8)"/><use href="#flA" transform="translate(400 560) scale(0.7 0.7)"/><use href="#flL" transform="translate(433.2 557.9) rotate(18.6 0 0) scale(0.7 0.7)"/><use href="#flA" transform="translate(433.2 559.9) scale(0.8 0.8)"/><use href="#flB" transform="translate(466.5 559.5) scale(0.7 0.7)"/><use href="#flA" transform="translate(499.7 559) scale(0.8 0.8)"/><use href="#flA" transform="translate(532.9 558.2) scale(0.7 0.7)"/><use href="#flL" transform="translate(566.2 555.2) rotate(-15.5 0 0) scale(0.7 0.7)"/><use href="#flB" transform="translate(566.2 557.2) scale(0.8 0.8)"/><use href="#flA" transform="translate(599.4 556) scale(0.7 0.7)"/><use href="#flA" transform="translate(632.6 554.6) scale(0.8 0.8)"/><use href="#flB" transform="translate(665.8 553.1) scale(0.7 0.7)"/><use href="#flL" transform="translate(699.1 549.4) rotate(10.2 0 0) scale(0.7 0.7)"/><use href="#flA" transform="translate(699.1 551.4) scale(0.8 0.8)"/><use href="#flA" transform="translate(732.3 549.7) scale(0.7 0.7)"/><use href="#flB" transform="translate(765.5 547.8) scale(0.8 0.8)"/><use href="#flA" transform="translate(798.8 545.9) scale(0.7 0.7)"/><use href="#flL" transform="translate(832 542) rotate(0.1 0 0) scale(0.7 0.7)"/><use href="#flA" transform="translate(832 544) scale(0.8 0.8)"/></g><g><path d="M-27 574L0.5483870967741922 575.0116832198743L28.096774193548384 576.0129852008866L55.64516129032258 576.9936312297335L83.19354838709677 577.9435585511332L110.74193548387098 578.8530196253108L138.29032258064515 579.7126821509479L165.83870967741936 580.5137248272222L193.38709677419354 581.2479278722913L220.93548387096777 581.907757369377L248.48387096774195 582.4864425749475L276.03225806451616 582.9780453957075L303.5806451612903 583.3775213214708L331.1290322580645 583.680771188662L358.6774193548387 583.8846832432811L386.2258064516129 583.9871650717105L413.7741935483871 583.9871650717105L441.3225806451613 583.8846832432811L468.87096774193554 583.680771188662L496.41935483870964 583.3775213214708L523.9677419354839 582.9780453957075L551.516129032258 582.4864425749475L579.0645161290323 581.907757369377L606.6129032258065 581.2479278722911L634.1612903225806 580.5137248272222L661.7096774193548 579.7126821509479L689.258064516129 578.8530196253108L716.8064516129032 577.9435585511332L744.3548387096774 576.9936312297336L771.9032258064516 576.0129852008866L799.4516129032259 575.0116832198743L827 574" fill="none" stroke="#e8722d" stroke-width="3" opacity="0.6"/><use href="#flB" transform="translate(-27 574) scale(0.7 0.7)"/><use href="#flA" transform="translate(0.5 575) scale(0.6 0.6)"/><use href="#flL" transform="translate(28.1 574) rotate(6.8 0 0) scale(0.6 0.6)"/><use href="#flA" transform="translate(28.1 576) scale(0.7 0.7)"/><use href="#flB" transform="translate(55.6 577) scale(0.6 0.6)"/><use href="#flA" transform="translate(83.2 577.9) scale(0.7 0.7)"/><use href="#flA" transform="translate(110.7 578.9) scale(0.6 0.6)"/><use href="#flL" transform="translate(138.3 577.7) rotate(-1.5 0 0) scale(0.6 0.6)"/><use href="#flB" transform="translate(138.3 579.7) scale(0.7 0.7)"/><use href="#flA" transform="translate(165.8 580.5) scale(0.6 0.6)"/><use href="#flA" transform="translate(193.4 581.2) scale(0.7 0.7)"/><use href="#flB" transform="translate(220.9 581.9) scale(0.6 0.6)"/><use href="#flL" transform="translate(248.5 580.5) rotate(13.4 0 0) scale(0.6 0.6)"/><use href="#flA" transform="translate(248.5 582.5) scale(0.7 0.7)"/><use href="#flA" transform="translate(276 583) scale(0.6 0.6)"/><use href="#flB" transform="translate(303.6 583.4) scale(0.7 0.7)"/><use href="#flA" transform="translate(331.1 583.7) scale(0.6 0.6)"/><use href="#flL" transform="translate(358.7 581.9) rotate(8.4 0 0) scale(0.6 0.6)"/><use href="#flA" transform="translate(358.7 583.9) scale(0.7 0.7)"/><use href="#flB" transform="translate(386.2 584) scale(0.6 0.6)"/><use href="#flA" transform="translate(413.8 584) scale(0.7 0.7)"/><use href="#flA" transform="translate(441.3 583.9) scale(0.6 0.6)"/><use href="#flL" transform="translate(468.9 581.7) rotate(18.7 0 0) scale(0.6 0.6)"/><use href="#flB" transform="translate(468.9 583.7) scale(0.7 0.7)"/><use href="#flA" transform="translate(496.4 583.4) scale(0.6 0.6)"/><use href="#flA" transform="translate(524 583) scale(0.7 0.7)"/><use href="#flB" transform="translate(551.5 582.5) scale(0.6 0.6)"/><use href="#flL" transform="translate(579.1 579.9) rotate(10.1 0 0) scale(0.6 0.6)"/><use href="#flA" transform="translate(579.1 581.9) scale(0.7 0.7)"/><use href="#flA" transform="translate(606.6 581.2) scale(0.6 0.6)"/><use href="#flB" transform="translate(634.2 580.5) scale(0.7 0.7)"/><use href="#flA" transform="translate(661.7 579.7) scale(0.6 0.6)"/><use href="#flL" transform="translate(689.3 576.9) rotate(-18.8 0 0) scale(0.6 0.6)"/><use href="#flA" transform="translate(689.3 578.9) scale(0.7 0.7)"/><use href="#flB" transform="translate(716.8 577.9) scale(0.6 0.6)"/><use href="#flA" transform="translate(744.4 577) scale(0.7 0.7)"/><use href="#flA" transform="translate(771.9 576) scale(0.6 0.6)"/><use href="#flL" transform="translate(799.5 573) rotate(16 0 0) scale(0.6 0.6)"/><use href="#flB" transform="translate(799.5 575) scale(0.7 0.7)"/><use href="#flA" transform="translate(827 574) scale(0.6 0.6)"/></g></g><g><g transform="translate(16 16) scale(0.8 0.8)"><path d="M0 0H108C86 8 70 22 62 44C54 66 40 82 18 90V108C-2 96-8 74-2 54C4 34 20 22 44 18C24 16 8 10 0 0Z" fill="#e0bd63" opacity="0.2"/><path d="M6 6H86C60 18 44 40 34 74" fill="none" stroke="#fbe9b0" stroke-width="2" opacity="0.3"/></g><g transform="translate(784 16) scale(-0.8 0.8)"><path d="M0 0H108C86 8 70 22 62 44C54 66 40 82 18 90V108C-2 96-8 74-2 54C4 34 20 22 44 18C24 16 8 10 0 0Z" fill="#e0bd63" opacity="0.2"/><path d="M6 6H86C60 18 44 40 34 74" fill="none" stroke="#fbe9b0" stroke-width="2" opacity="0.3"/></g><g transform="translate(16 584) scale(0.8 -0.8)"><path d="M0 0H108C86 8 70 22 62 44C54 66 40 82 18 90V108C-2 96-8 74-2 54C4 34 20 22 44 18C24 16 8 10 0 0Z" fill="#e0bd63" opacity="0.2"/><path d="M6 6H86C60 18 44 40 34 74" fill="none" stroke="#fbe9b0" stroke-width="2" opacity="0.3"/></g><g transform="translate(784 584) scale(-0.8 -0.8)"><path d="M0 0H108C86 8 70 22 62 44C54 66 40 82 18 90V108C-2 96-8 74-2 54C4 34 20 22 44 18C24 16 8 10 0 0Z" fill="#e0bd63" opacity="0.2"/><path d="M6 6H86C60 18 44 40 34 74" fill="none" stroke="#fbe9b0" stroke-width="2" opacity="0.3"/></g></g><g fill="none"><rect x="16" y="16" width="768" height="568" stroke="#e0bd63" stroke-width="2.4" opacity="0.5" rx="8"/><rect x="23" y="23" width="754" height="554" stroke="#fbe9b0" stroke-width="1" opacity="0.3" rx="5"/></g><rect x="0" y="0" width="800" height="600" fill="url(#gVig)"/></svg>
