<svg xmlns="http://www.w3.org/2000/svg" viewBox="0 0 800 600" width="800" height="600" role="img"><defs><radialGradient id="gSky" cx="50%" cy="43.5%" r="88%"><stop offset="0%" stop-color="#3b4a63"/><stop offset="46%" stop-color="#1c2436"/><stop offset="100%" stop-color="#080b14"/></radialGradient><linearGradient id="gWash" x1="0" y1="0" x2="0" y2="1"><stop offset="0%" stop-color="#080b14" stop-opacity="0.35"/><stop offset="40%" stop-color="#1c2436" stop-opacity="0"/><stop offset="100%" stop-color="#080b14" stop-opacity="0.55"/></linearGradient><linearGradient id="gEmb" x1="0" y1="0" x2="0.35" y2="1"><stop offset="0%" stop-color="#d4ddeb"/><stop offset="48%" stop-color="#c6d2e4"/><stop offset="100%" stop-color="#6b7a95"/></linearGradient><linearGradient id="gGold" x1="0" y1="0" x2="0.5" y2="1"><stop offset="0%" stop-color="#dcc07a"/><stop offset="34%" stop-color="#b99640"/><stop offset="58%" stop-color="#e3cd95"/><stop offset="100%" stop-color="#78622a"/></linearGradient><linearGradient id="gMetal" x1="0.1" y1="0" x2="0.9" y2="1"><stop offset="0%" stop-color="#d7e0ec"/><stop offset="32%" stop-color="#c6d2e4"/><stop offset="62%" stop-color="#94a2b9"/><stop offset="100%" stop-color="#6b7a95"/></linearGradient><radialGradient id="gFlame" cx="50%" cy="72%" r="70%"><stop offset="0%" stop-color="#fffdf2"/><stop offset="34%" stop-color="#dcc07a"/><stop offset="70%" stop-color="#b99640"/><stop offset="100%" stop-color="#8a3a5f"/></radialGradient><radialGradient id="gPetA" cx="42%" cy="38%" r="70%"><stop offset="0%" stop-color="#d9ad6d"/><stop offset="100%" stop-color="#b17929"/></radialGradient><radialGradient id="gPetB" cx="42%" cy="38%" r="70%"><stop offset="0%" stop-color="#ab718c"/><stop offset="100%" stop-color="#743150"/></radialGradient><linearGradient id="gWater" x1="0" y1="0" x2="0" y2="1"><stop offset="0%" stop-color="#7f95b8" stop-opacity="0.35"/><stop offset="100%" stop-color="#080b14" stop-opacity="0.1"/></linearGradient><linearGradient id="gFoot" x1="0" y1="0" x2="0" y2="1"><stop offset="0%" stop-color="#080b14" stop-opacity="0"/><stop offset="100%" stop-color="#080b14" stop-opacity="0.55"/></linearGradient><radialGradient id="gVig" cx="50%" cy="46%" r="76%"><stop offset="55%" stop-color="#000" stop-opacity="0"/><stop offset="100%" stop-color="#000" stop-opacity="0.42"/></radialGradient><filter id="fGlow" x="-60%" y="-60%" width="220%" height="220%"><feGaussianBlur stdDeviation="24"/></filter><filter id="fSoft" x="-30%" y="-30%" width="160%" height="160%"><feGaussianBlur stdDeviation="5"/></filter><g id="flA"><g transform="rotate(0 0 0)"><circle cx="0" cy="0" r="20" fill="#8a3a5f"/><circle cx="0" cy="-12.4" r="8.4" fill="#c98a2f" opacity="1"/><circle cx="8" cy="-9.5" r="8.4" fill="#c98a2f" opacity="1"/><circle cx="12.2" cy="-2.2" r="8.4" fill="#c98a2f" opacity="1"/><circle cx="10.7" cy="6.2" r="8.4" fill="#c98a2f" opacity="1"/><circle cx="4.2" cy="11.7" r="8.4" fill="#c98a2f" opacity="1"/><circle cx="-4.2" cy="11.7" r="8.4" fill="#c98a2f" opacity="1"/><circle cx="-10.7" cy="6.2" r="8.4" fill="#c98a2f" opacity="1"/><circle cx="-12.2" cy="-2.2" r="8.4" fill="#c98a2f" opacity="1"/><circle cx="-8" cy="-9.5" r="8.4" fill="#c98a2f" opacity="1"/><circle cx="2.5" cy="-5.4" r="6" fill="#8a3a5f" opacity="0.9"/><circle cx="5.8" cy="-1.4" r="6" fill="#8a3a5f" opacity="0.9"/><circle cx="4.7" cy="3.7" r="6" fill="#8a3a5f" opacity="0.9"/><circle cx="0.1" cy="6" r="6" fill="#8a3a5f" opacity="0.9"/><circle cx="-4.6" cy="3.8" r="6" fill="#8a3a5f" opacity="0.9"/><circle cx="-5.9" cy="-1.3" r="6" fill="#8a3a5f" opacity="0.9"/><circle cx="-2.7" cy="-5.4" r="6" fill="#8a3a5f" opacity="0.9"/><circle cx="0" cy="0" r="5.2" fill="#c98a2f"/><circle cx="0" cy="0" r="2.4" fill="#8a3a5f" opacity="0.8"/></g></g><g id="flB"><g transform="rotate(0 0 0)"><circle cx="0" cy="0" r="20" fill="#c98a2f"/><circle cx="0" cy="-12.4" r="8.4" fill="#8a3a5f" opacity="1"/><circle cx="8" cy="-9.5" r="8.4" fill="#8a3a5f" opacity="1"/><circle cx="12.2" cy="-2.2" r="8.4" fill="#8a3a5f" opacity="1"/><circle cx="10.7" cy="6.2" r="8.4" fill="#8a3a5f" opacity="1"/><circle cx="4.2" cy="11.7" r="8.4" fill="#8a3a5f" opacity="1"/><circle cx="-4.2" cy="11.7" r="8.4" fill="#8a3a5f" opacity="1"/><circle cx="-10.7" cy="6.2" r="8.4" fill="#8a3a5f" opacity="1"/><circle cx="-12.2" cy="-2.2" r="8.4" fill="#8a3a5f" opacity="1"/><circle cx="-8" cy="-9.5" r="8.4" fill="#8a3a5f" opacity="1"/><circle cx="2.5" cy="-5.4" r="6" fill="#c98a2f" opacity="0.9"/><circle cx="5.8" cy="-1.4" r="6" fill="#c98a2f" opacity="0.9"/><circle cx="4.7" cy="3.7" r="6" fill="#c98a2f" opacity="0.9"/><circle cx="0.1" cy="6" r="6" fill="#c98a2f" opacity="0.9"/><circle cx="-4.6" cy="3.8" r="6" fill="#c98a2f" opacity="0.9"/><circle cx="-5.9" cy="-1.3" r="6" fill="#c98a2f" opacity="0.9"/><circle cx="-2.7" cy="-5.4" r="6" fill="#c98a2f" opacity="0.9"/><circle cx="0" cy="0" r="5.2" fill="#8a3a5f"/><circle cx="0" cy="0" r="2.4" fill="#c98a2f" opacity="0.8"/></g></g><g id="flL"><path d="M0 0C-11 -12.6 -11 -29.4 0 -42C11 -29.4 11 -12.6 0 0Z" fill="#9fb4d6" opacity="0.4"/></g></defs><g><rect x="0" y="0" width="800" height="600" fill="url(#gSky)"/><rect x="0" y="0" width="800" height="600" fill="url(#gWash)"/></g><g opacity="0.1"><polygon points="-10,0 10,0 26,-760 -26,-760" fill="#7f95b8" transform="translate(400 261) rotate(0 0 0)"/><polygon points="-10,0 10,0 26,-760 -26,-760" fill="#7f95b8" transform="translate(400 261) rotate(28.5 0 0)"/><polygon points="-10,0 10,0 26,-760 -26,-760" fill="#7f95b8" transform="translate(400 261) rotate(45 0 0)"/><polygon points="-10,0 10,0 26,-760 -26,-760" fill="#7f95b8" transform="translate(400 261) rotate(73.5 0 0)"/><polygon points="-10,0 10,0 26,-760 -26,-760" fill="#7f95b8" transform="translate(400 261) rotate(90 0 0)"/><polygon points="-10,0 10,0 26,-760 -26,-760" fill="#7f95b8" transform="translate(400 261) rotate(118.5 0 0)"/><polygon points="-10,0 10,0 26,-760 -26,-760" fill="#7f95b8" transform="translate(400 261) rotate(135 0 0)"/><polygon points="-10,0 10,0 26,-760 -26,-760" fill="#7f95b8" transform="translate(400 261) rotate(163.5 0 0)"/><polygon points="-10,0 10,0 26,-760 -26,-760" fill="#7f95b8" transform="translate(400 261) rotate(180 0 0)"/><polygon points="-10,0 10,0 26,-760 -26,-760" fill="#7f95b8" transform="translate(400 261) rotate(208.5 0 0)"/><polygon points="-10,0 10,0 26,-760 -26,-760" fill="#7f95b8" transform="translate(400 261) rotate(225 0 0)"/><polygon points="-10,0 10,0 26,-760 -26,-760" fill="#7f95b8" transform="translate(400 261) rotate(253.5 0 0)"/><polygon points="-10,0 10,0 26,-760 -26,-760" fill="#7f95b8" transform="translate(400 261) rotate(270 0 0)"/><polygon points="-10,0 10,0 26,-760 -26,-760" fill="#7f95b8" transform="translate(400 261) rotate(298.5 0 0)"/><polygon points="-10,0 10,0 26,-760 -26,-760" fill="#7f95b8" transform="translate(400 261) rotate(315 0 0)"/><polygon points="-10,0 10,0 26,-760 -26,-760" fill="#7f95b8" transform="translate(400 261) rotate(343.5 0 0)"/></g><g><circle cx="216.9" cy="248.9" r="1.3" fill="#9fb4d6" opacity="0.4"/><circle cx="475.9" cy="237.1" r="0.8" fill="#9fb4d6" opacity="0.5"/><circle cx="744.7" cy="156.5" r="2" fill="#9fb4d6" opacity="0.7"/><circle cx="334.6" cy="39" r="1.4" fill="#9fb4d6" opacity="0.8"/><circle cx="696.6" cy="294" r="1.1" fill="#9fb4d6" opacity="0.4"/><circle cx="433.7" cy="232.6" r="1.6" fill="#9fb4d6" opacity="0.4"/><circle cx="285.8" cy="29.8" r="1.3" fill="#9fb4d6" opacity="0.4"/><circle cx="778.5" cy="246.2" r="2.3" fill="#9fb4d6" opacity="0.3"/><circle cx="530.1" cy="290" r="0.8" fill="#9fb4d6" opacity="0.3"/><circle cx="791.3" cy="128.9" r="0.9" fill="#9fb4d6" opacity="0.5"/><circle cx="520.2" cy="320.4" r="0.9" fill="#9fb4d6" opacity="0.8"/><circle cx="78.6" cy="65.5" r="0.9" fill="#9fb4d6" opacity="0.6"/><circle cx="631.4" cy="159.3" r="2.3" fill="#9fb4d6" opacity="0.4"/><circle cx="487.1" cy="325.9" r="2.2" fill="#9fb4d6" opacity="0.3"/><circle cx="300.3" cy="166.1" r="1.8" fill="#9fb4d6" opacity="0.6"/><circle cx="566.8" cy="254.4" r="2.2" fill="#9fb4d6" opacity="0.8"/><circle cx="255.1" cy="257.8" r="1.3" fill="#9fb4d6" opacity="0.5"/><circle cx="430.5" cy="194.9" r="0.8" fill="#9fb4d6" opacity="0.4"/><circle cx="652.1" cy="87.3" r="1.3" fill="#9fb4d6" opacity="0.7"/><circle cx="139.6" cy="256.3" r="1.8" fill="#9fb4d6" opacity="0.7"/><circle cx="292.7" cy="43.9" r="1.9" fill="#9fb4d6" opacity="0.7"/><circle cx="293.1" cy="227.2" r="0.8" fill="#9fb4d6" opacity="0.3"/><circle cx="293.9" cy="108.9" r="1.8" fill="#9fb4d6" opacity="0.7"/><circle cx="22.2" cy="270.3" r="1.2" fill="#9fb4d6" opacity="0.8"/><circle cx="472.4" cy="81.8" r="1.9" fill="#9fb4d6" opacity="0.5"/><circle cx="647" cy="182.9" r="1.7" fill="#9fb4d6" opacity="0.8"/><circle cx="778.4" cy="83.9" r="1.9" fill="#9fb4d6" opacity="0.6"/><circle cx="220.7" cy="161.3" r="1.6" fill="#9fb4d6" opacity="0.4"/><circle cx="495.8" cy="138.4" r="0.9" fill="#9fb4d6" opacity="0.5"/><circle cx="790" cy="320.4" r="2.1" fill="#9fb4d6" opacity="0.5"/><circle cx="61.4" cy="78.9" r="2.1" fill="#9fb4d6" opacity="0.4"/><circle cx="402.7" cy="303.8" r="1.6" fill="#9fb4d6" opacity="0.7"/><circle cx="283.9" cy="104.6" r="2" fill="#9fb4d6" opacity="0.3"/><circle cx="640.5" cy="77.8" r="0.7" fill="#9fb4d6" opacity="0.5"/><circle cx="705.1" cy="206.4" r="1.2" fill="#9fb4d6" opacity="0.6"/><circle cx="746.8" cy="28.1" r="2.3" fill="#9fb4d6" opacity="0.4"/><circle cx="602.7" cy="162.8" r="1.1" fill="#9fb4d6" opacity="0.7"/><circle cx="483.4" cy="332.7" r="1.8" fill="#9fb4d6" opacity="0.5"/><circle cx="409.2" cy="199.8" r="2.4" fill="#9fb4d6" opacity="0.6"/><circle cx="441.7" cy="277.7" r="2.2" fill="#9fb4d6" opacity="0.3"/><circle cx="449.2" cy="311.8" r="0.9" fill="#9fb4d6" opacity="0.6"/><circle cx="577" cy="106.2" r="1.5" fill="#9fb4d6" opacity="0.4"/><circle cx="316.1" cy="307.1" r="1" fill="#9fb4d6" opacity="0.6"/><circle cx="715.3" cy="355.2" r="1.4" fill="#9fb4d6" opacity="0.3"/><circle cx="187" cy="279.1" r="1.9" fill="#9fb4d6" opacity="0.7"/><circle cx="265.6" cy="241" r="1.9" fill="#9fb4d6" opacity="0.3"/><circle cx="214.1" cy="310.9" r="1.2" fill="#9fb4d6" opacity="0.7"/><circle cx="85.3" cy="278" r="1.7" fill="#9fb4d6" opacity="0.7"/><circle cx="671.6" cy="50.2" r="2.1" fill="#9fb4d6" opacity="0.7"/><circle cx="224.7" cy="137.9" r="0.8" fill="#9fb4d6" opacity="0.5"/><circle cx="619" cy="98.5" r="1.3" fill="#9fb4d6" opacity="0.3"/><circle cx="199.5" cy="131" r="2.3" fill="#9fb4d6" opacity="0.3"/><circle cx="545.4" cy="212.9" r="0.8" fill="#9fb4d6" opacity="0.7"/><circle cx="680.5" cy="251.7" r="1.3" fill="#9fb4d6" opacity="0.5"/><path d="M367.1 188.1L368.5 195.2L375.6 196.6L368.5 198L367.1 205.1L365.7 198L358.6 196.6L365.7 195.2Z" fill="#9fb4d6" opacity="0.7"/><path d="M757.2 111.1L758.6 115.8L763.3 117.2L758.6 118.6L757.2 123.3L755.8 118.6L751.1 117.2L755.8 115.8Z" fill="#9fb4d6" opacity="0.7"/><path d="M374.5 143.6L375.9 150.2L382.5 151.6L375.9 153L374.5 159.6L373.1 153L366.5 151.6L373.1 150.2Z" fill="#9fb4d6" opacity="0.7"/><path d="M396.5 193L397.9 198.3L403.2 199.7L397.9 201.1L396.5 206.4L395.1 201.1L389.8 199.7L395.1 198.3Z" fill="#9fb4d6" opacity="0.5"/><path d="M122.7 111.5L124.1 116.1L128.7 117.5L124.1 118.9L122.7 123.5L121.3 118.9L116.7 117.5L121.3 116.1Z" fill="#9fb4d6" opacity="0.6"/></g><g transform="translate(400 261)"><defs><g id="mda"><g transform="translate(0 -180)"><path d="M0 0C-14.4 -29 -7.9 -43.1 0 -46.8C7.9 -43.1 14.4 -29 0 0Z" fill="none" stroke="#96803f" stroke-width="2.2" opacity="0.4" transform="rotate(180 0 0)"/></g></g><g id="mdb"><g transform="translate(0 -223.2)"><circle cx="0" cy="0" r="4" fill="#dcc07a" opacity="0.6"/><path d="M-9 0Q0 9 9 0Q0 -9 -9 0Z" fill="#96803f" opacity="0.3"/></g></g></defs><circle cx="0" cy="0" r="154.8" fill="none" stroke="#96803f" stroke-width="1" opacity="0.2"/><circle cx="0" cy="0" r="180" fill="none" stroke="#96803f" stroke-width="1.4" opacity="0.3"/><circle cx="0" cy="0" r="201.6" fill="none" stroke="#96803f" stroke-width="1" opacity="0.2" stroke-dasharray="2 9"/><use href="#mda" transform="rotate(0 0 0)"/><use href="#mda" transform="rotate(20 0 0)"/><use href="#mda" transform="rotate(40 0 0)"/><use href="#mda" transform="rotate(60 0 0)"/><use href="#mda" transform="rotate(80 0 0)"/><use href="#mda" transform="rotate(100 0 0)"/><use href="#mda" transform="rotate(120 0 0)"/><use href="#mda" transform="rotate(140 0 0)"/><use href="#mda" transform="rotate(160 0 0)"/><use href="#mda" transform="rotate(180 0 0)"/><use href="#mda" transform="rotate(200 0 0)"/><use href="#mda" transform="rotate(220 0 0)"/><use href="#mda" transform="rotate(240 0 0)"/><use href="#mda" transform="rotate(260 0 0)"/><use href="#mda" transform="rotate(280 0 0)"/><use href="#mda" transform="rotate(300 0 0)"/><use href="#mda" transform="rotate(320 0 0)"/><use href="#mda" transform="rotate(340 0 0)"/><use href="#mdb" transform="rotate(0 0 0)"/><use href="#mdb" transform="rotate(12 0 0)"/><use href="#mdb" transform="rotate(24 0 0)"/><use href="#mdb" transform="rotate(36 0 0)"/><use href="#mdb" transform="rotate(48 0 0)"/><use href="#mdb" transform="rotate(60 0 0)"/><use href="#mdb" transform="rotate(72 0 0)"/><use href="#mdb" transform="rotate(84 0 0)"/><use href="#mdb" transform="rotate(96 0 0)"/><use href="#mdb" transform="rotate(108 0 0)"/><use href="#mdb" transform="rotate(120 0 0)"/><use href="#mdb" transform="rotate(132 0 0)"/><use href="#mdb" transform="rotate(144 0 0)"/><use href="#mdb" transform="rotate(156 0 0)"/><use href="#mdb" transform="rotate(168 0 0)"/><use href="#mdb" transform="rotate(180 0 0)"/><use href="#mdb" transform="rotate(192 0 0)"/><use href="#mdb" transform="rotate(204 0 0)"/><use href="#mdb" transform="rotate(216 0 0)"/><use href="#mdb" transform="rotate(228 0 0)"/><use href="#mdb" transform="rotate(240 0 0)"/><use href="#mdb" transform="rotate(252 0 0)"/><use href="#mdb" transform="rotate(264 0 0)"/><use href="#mdb" transform="rotate(276 0 0)"/><use href="#mdb" transform="rotate(288 0 0)"/><use href="#mdb" transform="rotate(300 0 0)"/><use href="#mdb" transform="rotate(312 0 0)"/><use href="#mdb" transform="rotate(324 0 0)"/><use href="#mdb" transform="rotate(336 0 0)"/><use href="#mdb" transform="rotate(348 0 0)"/></g><g><path d="M-40 414C-24.0045422706753 358.80351975839585 -12.80772186014801 313.4197471152991 -0.01135567668825388 291.34115501865745C12.785010506771505 313.4197471152991 23.981830917298794 358.80351975839585 39.97728864662349 414Z" fill="#161d2c" stroke="#96803f" stroke-opacity="0.2" stroke-width="1.5"/><g><line x1="0" y1="291.3" x2="0" y2="277.3" stroke="#b99640" stroke-width="3"/><circle cx="0" cy="273.3" r="5" fill="#b99640"/><polygon points="0,259.3 4,269.3 -4,269.3" fill="#b99640"/></g><path d="M31.17813728031649 414C44.097305305571695 378.05759310442954 53.14072292325034 348.50494743473826 63.4760573434545 334.1279846765101C73.81139176365866 348.50494743473826 82.8548093813373 378.05759310442954 95.77397740659251 414Z" fill="#161d2c" stroke="#96803f" stroke-opacity="0.2" stroke-width="1.5"/><circle cx="63.5" cy="328.1" r="3" fill="#b99640" opacity="0.8"/><path d="M85.19110932678225 414C103.59522115636858 372.6355485599488 116.47809943707901 338.6247773759067 131.20138890074807 322.0789967998862C145.92467836441713 338.6247773759067 158.80755664512756 372.6355485599488 177.2116684747139 414Z" fill="#161d2c" stroke="#96803f" stroke-opacity="0.2" stroke-width="1.5"/><circle cx="131.2" cy="316.1" r="3" fill="#b99640" opacity="0.8"/><path d="M168.98922573960425 414C193.73360701230393 346.92603182885796 211.0546739031937 291.77632466591893 230.85017892135346 264.94673739746213C250.64568393951322 291.77632466591893 267.966750830403 346.92603182885796 292.71113210310267 414Z" fill="#161d2c" stroke="#96803f" stroke-opacity="0.2" stroke-width="1.5"/><g><line x1="230.9" y1="264.9" x2="230.9" y2="250.9" stroke="#b99640" stroke-width="3"/><circle cx="230.9" cy="246.9" r="5" fill="#b99640"/><polygon points="230.9,232.9 234.9,242.9 226.9,242.9" fill="#b99640"/></g><path d="M277.5282378591956 414C292.97411053622005 349.32346267439425 303.78622141013716 296.1449764288962 316.14291955175673 270.2743614986539C328.4996176933763 296.1449764288962 339.3117285672934 349.32346267439425 354.75760124431787 414Z" fill="#161d2c" stroke="#96803f" stroke-opacity="0.2" stroke-width="1.5"/><g><line x1="316.1" y1="270.3" x2="316.1" y2="256.3" stroke="#b99640" stroke-width="3"/><circle cx="316.1" cy="252.3" r="5" fill="#b99640"/><polygon points="316.1,238.3 320.1,248.3 312.1,248.3" fill="#b99640"/></g><path d="M347.57171636989557 414C362.83322623914324 372.7141926800832 373.5162831476166 338.76808443926274 385.72549104301476 322.25376151129603C397.9346989384129 338.76808443926274 408.61775584688627 372.7141926800832 423.87926571613394 414Z" fill="#161d2c" stroke="#96803f" stroke-opacity="0.2" stroke-width="1.5"/><circle cx="385.7" cy="316.3" r="3" fill="#b99640" opacity="0.8"/><path d="M421.62448907368025 414C442.3993068719669 363.7117469161749 456.9416793307676 322.3636277139187 473.56153356939694 302.24832648038864C490.1813878080263 322.3636277139187 504.72376026682696 363.7117469161749 525.4985780651136 414Z" fill="#161d2c" stroke="#96803f" stroke-opacity="0.2" stroke-width="1.5"/><circle cx="473.6" cy="296.2" r="3" fill="#b99640" opacity="0.8"/><path d="M506.8940689921991 414C527.3971872692608 374.1884836759418 541.7493700632041 341.4545702539384 558.1518646848534 325.52996372431517C574.5543593065028 341.4545702539384 588.906542100446 374.1884836759418 609.4096603775077 414Z" fill="#161d2c" stroke="#96803f" stroke-opacity="0.2" stroke-width="1.5"/><circle cx="558.2" cy="319.5" r="3" fill="#b99640" opacity="0.8"/><path d="M584.1340445236384 414C600.0817420383065 360.49189141765237 611.2451302985742 316.49633547216655 624.0032883103087 295.0930920392275C636.7614463220432 316.49633547216655 647.9248345823108 360.49189141765237 663.872532096979 414Z" fill="#161d2c" stroke="#96803f" stroke-opacity="0.2" stroke-width="1.5"/><g><line x1="624" y1="295.1" x2="624" y2="281.1" stroke="#b99640" stroke-width="3"/><circle cx="624" cy="277.1" r="5" fill="#b99640"/><polygon points="624,263.1 628,273.1 620,273.1" fill="#b99640"/></g><path d="M663.6069449884853 414C688.096104633998 360.6134536731988 705.2385163858569 316.71784891560674 724.8298441022671 295.36323038488626C744.4211718186773 316.71784891560674 761.5635835705361 360.6134536731988 786.0527432160488 414Z" fill="#161d2c" stroke="#96803f" stroke-opacity="0.2" stroke-width="1.5"/><g><line x1="724.8" y1="295.4" x2="724.8" y2="281.4" stroke="#b99640" stroke-width="3"/><circle cx="724.8" cy="277.4" r="5" fill="#b99640"/><polygon points="724.8,263.4 728.8,273.4 720.8,273.4" fill="#b99640"/></g><path d="M771.7762398974874 414C792.6333159365595 357.1244181152433 807.23326916391 310.3600507877767 823.9189299951677 287.60981803387403C840.6045908264254 310.3600507877767 855.2045440537759 357.1244181152433 876.061620092848 414Z" fill="#161d2c" stroke="#96803f" stroke-opacity="0.2" stroke-width="1.5"/><g><line x1="823.9" y1="287.6" x2="823.9" y2="273.6" stroke="#b99640" stroke-width="3"/><circle cx="823.9" cy="269.6" r="5" fill="#b99640"/><polygon points="823.9,255.6 827.9,265.6 819.9,265.6" fill="#b99640"/></g><path d="M300 462C340 367.5 368 289.8 400 252C432 289.8 460 367.5 500 462Z" fill="#05070d"/><g><line x1="400" y1="252" x2="400" y2="238" stroke="#b99640" stroke-width="3"/><circle cx="400" cy="234" r="5" fill="#b99640"/><polygon points="400,220 404,230 396,230" fill="#b99640"/></g><rect x="240" y="438" width="320" height="30" fill="#05070d" rx="6"/><path d="M366 468V428A34 34 0 0 1 434 428V468Z" fill="#080b14" opacity="0.7"/><path d="M258 440Q280 420 302 440" fill="none" stroke="#b99640" stroke-width="2" opacity="0.4"/><path d="M308 440Q330 420 352 440" fill="none" stroke="#b99640" stroke-width="2" opacity="0.4"/><path d="M358 440Q380 420 402 440" fill="none" stroke="#b99640" stroke-width="2" opacity="0.4"/><path d="M408 440Q430 420 452 440" fill="none" stroke="#b99640" stroke-width="2" opacity="0.4"/><path d="M458 440Q480 420 502 440" fill="none" stroke="#b99640" stroke-width="2" opacity="0.4"/><path d="M508 440Q530 420 552 440" fill="none" stroke="#b99640" stroke-width="2" opacity="0.4"/></g><g><g transform="translate(100 441) scale(0.3 0.3)"><circle cx="0" cy="-30" r="70" fill="#b99640" opacity="0.2" filter="url(#fGlow)"/><path d="M-84 20C-88 52-46 72 0 72S88 52 84 20Z" fill="#05070d"/><ellipse cx="0" cy="20" rx="84" ry="20" fill="#b99640" opacity="0.9"/><path d="M0-70C-24-40-30-18-18-2C-8 10 8 10 18-2C30-18 24-40 0-70Z" fill="url(#gFlame)"/></g><g transform="translate(200 441) scale(0.2 0.2)"><circle cx="0" cy="-30" r="70" fill="#b99640" opacity="0.2" filter="url(#fGlow)"/><path d="M-84 20C-88 52-46 72 0 72S88 52 84 20Z" fill="#05070d"/><ellipse cx="0" cy="20" rx="84" ry="20" fill="#b99640" opacity="0.9"/><path d="M0-70C-24-40-30-18-18-2C-8 10 8 10 18-2C30-18 24-40 0-70Z" fill="url(#gFlame)"/></g><g transform="translate(300 441) scale(0.3 0.3)"><circle cx="0" cy="-30" r="70" fill="#b99640" opacity="0.2" filter="url(#fGlow)"/><path d="M-84 20C-88 52-46 72 0 72S88 52 84 20Z" fill="#05070d"/><ellipse cx="0" cy="20" rx="84" ry="20" fill="#b99640" opacity="0.9"/><path d="M0-70C-24-40-30-18-18-2C-8 10 8 10 18-2C30-18 24-40 0-70Z" fill="url(#gFlame)"/></g><g transform="translate(400 441) scale(0.2 0.2)"><circle cx="0" cy="-30" r="70" fill="#b99640" opacity="0.2" filter="url(#fGlow)"/><path d="M-84 20C-88 52-46 72 0 72S88 52 84 20Z" fill="#05070d"/><ellipse cx="0" cy="20" rx="84" ry="20" fill="#b99640" opacity="0.9"/><path d="M0-70C-24-40-30-18-18-2C-8 10 8 10 18-2C30-18 24-40 0-70Z" fill="url(#gFlame)"/></g><g transform="translate(500 441) scale(0.3 0.3)"><circle cx="0" cy="-30" r="70" fill="#b99640" opacity="0.2" filter="url(#fGlow)"/><path d="M-84 20C-88 52-46 72 0 72S88 52 84 20Z" fill="#05070d"/><ellipse cx="0" cy="20" rx="84" ry="20" fill="#b99640" opacity="0.9"/><path d="M0-70C-24-40-30-18-18-2C-8 10 8 10 18-2C30-18 24-40 0-70Z" fill="url(#gFlame)"/></g><g transform="translate(600 441) scale(0.2 0.2)"><circle cx="0" cy="-30" r="70" fill="#b99640" opacity="0.2" filter="url(#fGlow)"/><path d="M-84 20C-88 52-46 72 0 72S88 52 84 20Z" fill="#05070d"/><ellipse cx="0" cy="20" rx="84" ry="20" fill="#b99640" opacity="0.9"/><path d="M0-70C-24-40-30-18-18-2C-8 10 8 10 18-2C30-18 24-40 0-70Z" fill="url(#gFlame)"/></g><g transform="translate(700 441) scale(0.3 0.3)"><circle cx="0" cy="-30" r="70" fill="#b99640" opacity="0.2" filter="url(#fGlow)"/><path d="M-84 20C-88 52-46 72 0 72S88 52 84 20Z" fill="#05070d"/><ellipse cx="0" cy="20" rx="84" ry="20" fill="#b99640" opacity="0.9"/><path d="M0-70C-24-40-30-18-18-2C-8 10 8 10 18-2C30-18 24-40 0-70Z" fill="url(#gFlame)"/></g></g><circle cx="400" cy="261" r="180" fill="#7f95b8" opacity="0.4" filter="url(#fGlow)"/><circle cx="400" cy="261" r="102" fill="#dcc07a" opacity="0.3" filter="url(#fGlow)"/><g transform="translate(400 261) scale(1.4 1.4)"><g><circle cx="0" cy="0" r="132" fill="#7f95b8" opacity="0.4" filter="url(#fGlow)"/><g transform="rotate(-22 0 0)"><ellipse cx="0" cy="0" rx="132" ry="34" fill="none" stroke="url(#gGold)" stroke-width="12" opacity="0.9"/><ellipse cx="0" cy="0" rx="112" ry="27" fill="none" stroke="#5f8fc4" stroke-width="4" opacity="0.7"/></g><circle cx="0" cy="0" r="66" fill="url(#gEmb)"/><circle cx="-20" cy="-20" r="26" fill="#fff" opacity="0.2"/><g fill="#6b7a95" opacity="0.4"><ellipse cx="0" cy="-26" rx="52" ry="8"/><ellipse cx="0" cy="0" rx="62" ry="9"/><ellipse cx="0" cy="26" rx="52" ry="8"/></g><g transform="rotate(-22 0 0)"><path d="M-132 0A132 34 0 0 0 132 0" fill="none" stroke="url(#gGold)" stroke-width="12"/></g><g fill="#9fb4d6" opacity="0.8"><path d="M-108 -83L-105.6 -76.4L-99 -74L-105.6 -71.6L-108 -65L-110.4 -71.6L-117 -74L-110.4 -76.4Z"/><path d="M102 -93L103.8 -87.8L109 -86L103.8 -84.2L102 -79L100.2 -84.2L95 -86L100.2 -87.8Z"/><path d="M118 64L120.1 69.9L126 72L120.1 74.1L118 80L115.9 74.1L110 72L115.9 69.9Z"/></g><g transform="translate(0 116) scale(0.4 0.4)"><g transform="translate(0 20)"><g><circle cx="0" cy="-37.8" r="52.1" fill="#b99640" opacity="0.3" filter="url(#fGlow)"/><path d="M0 0C-21 -15.1 -22 -42 -5.2 -63.8C-1 -75.6 2.1 -79.8 0 -84C10.5 -68.9 22.1 -42 21 -15.1C14.7 -4.2 7.4 0 0 0Z" fill="url(#gFlame)"/><path d="M0 0C-10.5 -9.1 -11 -25.2 -2.6 -38.3C-0.5 -45.4 1.1 -47.9 0 -50.4C5.3 -41.3 11 -25.2 10.5 -9.1C7.4 -2.5 3.7 0 0 0Z" fill="#dcc07a" opacity="1"/><path d="M0 0C-5.5 -4.5 -5.7 -12.6 -1.4 -19.2C-0.3 -22.7 0.5 -23.9 0 -25.2C2.7 -20.7 5.7 -12.6 5.5 -4.5C3.8 -1.3 1.9 0 0 0Z" fill="#fffdf5"/></g></g><path d="M-84 20C-88 52-46 72 0 72S88 52 84 20Z" fill="url(#gEmb)"/><ellipse cx="0" cy="20" rx="84" ry="20" fill="#6b7a95"/></g></g></g><g opacity="1"><g><path d="M-34 8L0.7199999999999989 13.765328743957996L35.44 19.43973480958332L70.16 24.933729423495183L104.88 30.160669008678905L139.60000000000002 35.03812160545377L174.32 39.48916687271968L209.04000000000002 43.443609167686304L243.76 46.83908457309269L278.47999999999996 49.6220444134369L313.20000000000005 51.74859974957706L347.92 53.18521353351968L382.64 53.909229507700495L417.36 53.909229507700495L452.08000000000004 53.18521353351968L486.79999999999995 51.74859974957707L521.52 49.622044413436896L556.24 46.83908457309269L590.9599999999999 43.443609167686304L625.6800000000001 39.489166872719686L660.4000000000001 35.03812160545377L695.12 30.16066900867892L729.84 24.933729423495194L764.5600000000001 19.43973480958332L799.28 13.765328743958008L834 8.000000000000005" fill="none" stroke="#8a3a5f" stroke-width="3" opacity="0.6"/><use href="#flB" transform="translate(-34 8) scale(0.7 0.7)"/><use href="#flA" transform="translate(0.7 13.8) scale(0.6 0.6)"/><use href="#flL" transform="translate(35.4 17.4) rotate(-12.3 0 0) scale(0.6 0.6)"/><use href="#flA" transform="translate(35.4 19.4) scale(0.7 0.7)"/><use href="#flB" transform="translate(70.2 24.9) scale(0.6 0.6)"/><use href="#flA" transform="translate(104.9 30.2) scale(0.7 0.7)"/><use href="#flA" transform="translate(139.6 35) scale(0.6 0.6)"/><use href="#flL" transform="translate(174.3 37.5) rotate(-3.7 0 0) scale(0.6 0.6)"/><use href="#flB" transform="translate(174.3 39.5) scale(0.7 0.7)"/><use href="#flA" transform="translate(209 43.4) scale(0.6 0.6)"/><use href="#flA" transform="translate(243.8 46.8) scale(0.7 0.7)"/><use href="#flB" transform="translate(278.5 49.6) scale(0.6 0.6)"/><use href="#flL" transform="translate(313.2 49.7) rotate(-17.6 0 0) scale(0.6 0.6)"/><use href="#flA" transform="translate(313.2 51.7) scale(0.7 0.7)"/><use href="#flA" transform="translate(347.9 53.2) scale(0.6 0.6)"/><use href="#flB" transform="translate(382.6 53.9) scale(0.7 0.7)"/><use href="#flA" transform="translate(417.4 53.9) scale(0.6 0.6)"/><use href="#flL" transform="translate(452.1 51.2) rotate(15 0 0) scale(0.6 0.6)"/><use href="#flA" transform="translate(452.1 53.2) scale(0.7 0.7)"/><use href="#flB" transform="translate(486.8 51.7) scale(0.6 0.6)"/><use href="#flA" transform="translate(521.5 49.6) scale(0.7 0.7)"/><use href="#flA" transform="translate(556.2 46.8) scale(0.6 0.6)"/><use href="#flL" transform="translate(591 41.4) rotate(7 0 0) scale(0.6 0.6)"/><use href="#flB" transform="translate(591 43.4) scale(0.7 0.7)"/><use href="#flA" transform="translate(625.7 39.5) scale(0.6 0.6)"/><use href="#flA" transform="translate(660.4 35) scale(0.7 0.7)"/><use href="#flB" transform="translate(695.1 30.2) scale(0.6 0.6)"/><use href="#flL" transform="translate(729.8 22.9) rotate(-5.7 0 0) scale(0.6 0.6)"/><use href="#flA" transform="translate(729.8 24.9) scale(0.7 0.7)"/><use href="#flA" transform="translate(764.6 19.4) scale(0.6 0.6)"/><use href="#flB" transform="translate(799.3 13.8) scale(0.7 0.7)"/><use href="#flA" transform="translate(834 8) scale(0.6 0.6)"/></g></g><g><rect x="0" y="526" width="800" height="74" fill="url(#gFoot)"/><g><path d="M-32 544L1.2307692307692335 545.9285868840851L34.46153846153847 547.829050628601L67.6923076923077 549.6736781926805L100.92307692307693 551.4355707527003L134.15384615384616 553.0890359476984L167.3846153846154 554.6099625318527L200.6153846153846 555.9761719707376L233.84615384615387 557.1677418542985L267.0769230769231 558.1672964104514L300.3076923076923 558.9602598829666L333.53846153846155 559.5350690788168L366.7692307692308 559.8833419855689L400 560L433.2307692307692 559.8833419855689L466.4615384615384 559.5350690788168L499.69230769230774 558.9602598829666L532.9230769230769 558.1672964104514L566.1538461538462 557.1677418542985L599.3846153846154 555.9761719707376L632.6153846153846 554.6099625318527L665.8461538461538 553.0890359476984L699.0769230769231 551.4355707527003L732.3076923076923 549.6736781926805L765.5384615384615 547.829050628601L798.7692307692308 545.9285868840851L832 544" fill="none" stroke="#8a3a5f" stroke-width="3" opacity="0.6"/><use href="#flB" transform="translate(-32 544) scale(0.8 0.8)"/><use href="#flA" transform="translate(1.2 545.9) scale(0.7 0.7)"/><use href="#flL" transform="translate(34.5 545.8) rotate(-16.7 0 0) scale(0.7 0.7)"/><use href="#flA" transform="translate(34.5 547.8) scale(0.8 0.8)"/><use href="#flB" transform="translate(67.7 549.7) scale(0.7 0.7)"/><use href="#flA" transform="translate(100.9 551.4) scale(0.8 0.8)"/><use href="#flA" transform="translate(134.2 553.1) scale(0.7 0.7)"/><use href="#flL" transform="translate(167.4 552.6) rotate(6 0 0) scale(0.7 0.7)"/><use href="#flB" transform="translate(167.4 554.6) scale(0.8 0.8)"/><use href="#flA" transform="translate(200.6 556) scale(0.7 0.7)"/><use href="#flA" transform="translate(233.8 557.2) scale(0.8 0.8)"/><use href="#flB" transform="translate(267.1 558.2) scale(0.7 0.7)"/><use href="#flL" transform="translate(300.3 557) rotate(-8.7 0 0) scale(0.7 0.7)"/><use href="#flA" transform="translate(300.3 559) scale(0.8 0.8)"/><use href="#flA" transform="translate(333.5 559.5) scale(0.7 0.7)"/><use href="#flB" transform="translate(366.8 559.9) scale(0.8 0.8)"/><use href="#flA" transform="translate(400 560) scale(0.7 0.7)"/><use href="#flL" transform="translate(433.2 557.9) rotate(-14.9 0 0) scale(0.7 0.7)"/><use href="#flA" transform="translate(433.2 559.9) scale(0.8 0.8)"/><use href="#flB" transform="translate(466.5 559.5) scale(0.7 0.7)"/><use href="#flA" transform="translate(499.7 559) scale(0.8 0.8)"/><use href="#flA" transform="translate(532.9 558.2) scale(0.7 0.7)"/><use href="#flL" transform="translate(566.2 555.2) rotate(3.8 0 0) scale(0.7 0.7)"/><use href="#flB" transform="translate(566.2 557.2) scale(0.8 0.8)"/><use href="#flA" transform="translate(599.4 556) scale(0.7 0.7)"/><use href="#flA" transform="translate(632.6 554.6) scale(0.8 0.8)"/><use href="#flB" transform="translate(665.8 553.1) scale(0.7 0.7)"/><use href="#flL" transform="translate(699.1 549.4) rotate(-2.8 0 0) scale(0.7 0.7)"/><use href="#flA" transform="translate(699.1 551.4) scale(0.8 0.8)"/><use href="#flA" transform="translate(732.3 549.7) scale(0.7 0.7)"/><use href="#flB" transform="translate(765.5 547.8) scale(0.8 0.8)"/><use href="#flA" transform="translate(798.8 545.9) scale(0.7 0.7)"/><use href="#flL" transform="translate(832 542) rotate(2.1 0 0) scale(0.7 0.7)"/><use href="#flA" transform="translate(832 544) scale(0.8 0.8)"/></g><g><path d="M-27 574L0.5483870967741922 575.0116832198743L28.096774193548384 576.0129852008866L55.64516129032258 576.9936312297335L83.19354838709677 577.9435585511332L110.74193548387098 578.8530196253108L138.29032258064515 579.7126821509479L165.83870967741936 580.5137248272222L193.38709677419354 581.2479278722913L220.93548387096777 581.907757369377L248.48387096774195 582.4864425749475L276.03225806451616 582.9780453957075L303.5806451612903 583.3775213214708L331.1290322580645 583.680771188662L358.6774193548387 583.8846832432811L386.2258064516129 583.9871650717105L413.7741935483871 583.9871650717105L441.3225806451613 583.8846832432811L468.87096774193554 583.680771188662L496.41935483870964 583.3775213214708L523.9677419354839 582.9780453957075L551.516129032258 582.4864425749475L579.0645161290323 581.907757369377L606.6129032258065 581.2479278722911L634.1612903225806 580.5137248272222L661.7096774193548 579.7126821509479L689.258064516129 578.8530196253108L716.8064516129032 577.9435585511332L744.3548387096774 576.9936312297336L771.9032258064516 576.0129852008866L799.4516129032259 575.0116832198743L827 574" fill="none" stroke="#8a3a5f" stroke-width="3" opacity="0.6"/><use href="#flB" transform="translate(-27 574) scale(0.7 0.7)"/><use href="#flA" transform="translate(0.5 575) scale(0.6 0.6)"/><use href="#flL" transform="translate(28.1 574) rotate(-10.7 0 0) scale(0.6 0.6)"/><use href="#flA" transform="translate(28.1 576) scale(0.7 0.7)"/><use href="#flB" transform="translate(55.6 577) scale(0.6 0.6)"/><use href="#flA" transform="translate(83.2 577.9) scale(0.7 0.7)"/><use href="#flA" transform="translate(110.7 578.9) scale(0.6 0.6)"/><use href="#flL" transform="translate(138.3 577.7) rotate(14.3 0 0) scale(0.6 0.6)"/><use href="#flB" transform="translate(138.3 579.7) scale(0.7 0.7)"/><use href="#flA" transform="translate(165.8 580.5) scale(0.6 0.6)"/><use href="#flA" transform="translate(193.4 581.2) scale(0.7 0.7)"/><use href="#flB" transform="translate(220.9 581.9) scale(0.6 0.6)"/><use href="#flL" transform="translate(248.5 580.5) rotate(4.1 0 0) scale(0.6 0.6)"/><use href="#flA" transform="translate(248.5 582.5) scale(0.7 0.7)"/><use href="#flA" transform="translate(276 583) scale(0.6 0.6)"/><use href="#flB" transform="translate(303.6 583.4) scale(0.7 0.7)"/><use href="#flA" transform="translate(331.1 583.7) scale(0.6 0.6)"/><use href="#flL" transform="translate(358.7 581.9) rotate(-4.5 0 0) scale(0.6 0.6)"/><use href="#flA" transform="translate(358.7 583.9) scale(0.7 0.7)"/><use href="#flB" transform="translate(386.2 584) scale(0.6 0.6)"/><use href="#flA" transform="translate(413.8 584) scale(0.7 0.7)"/><use href="#flA" transform="translate(441.3 583.9) scale(0.6 0.6)"/><use href="#flL" transform="translate(468.9 581.7) rotate(3.9 0 0) scale(0.6 0.6)"/><use href="#flB" transform="translate(468.9 583.7) scale(0.7 0.7)"/><use href="#flA" transform="translate(496.4 583.4) scale(0.6 0.6)"/><use href="#flA" transform="translate(524 583) scale(0.7 0.7)"/><use href="#flB" transform="translate(551.5 582.5) scale(0.6 0.6)"/><use href="#flL" transform="translate(579.1 579.9) rotate(-8 0 0) scale(0.6 0.6)"/><use href="#flA" transform="translate(579.1 581.9) scale(0.7 0.7)"/><use href="#flA" transform="translate(606.6 581.2) scale(0.6 0.6)"/><use href="#flB" transform="translate(634.2 580.5) scale(0.7 0.7)"/><use href="#flA" transform="translate(661.7 579.7) scale(0.6 0.6)"/><use href="#flL" transform="translate(689.3 576.9) rotate(-7 0 0) scale(0.6 0.6)"/><use href="#flA" transform="translate(689.3 578.9) scale(0.7 0.7)"/><use href="#flB" transform="translate(716.8 577.9) scale(0.6 0.6)"/><use href="#flA" transform="translate(744.4 577) scale(0.7 0.7)"/><use href="#flA" transform="translate(771.9 576) scale(0.6 0.6)"/><use href="#flL" transform="translate(799.5 573) rotate(8 0 0) scale(0.6 0.6)"/><use href="#flB" transform="translate(799.5 575) scale(0.7 0.7)"/><use href="#flA" transform="translate(827 574) scale(0.6 0.6)"/></g></g><g><g transform="translate(16 16) scale(0.8 0.8)"><path d="M0 0H108C86 8 70 22 62 44C54 66 40 82 18 90V108C-2 96-8 74-2 54C4 34 20 22 44 18C24 16 8 10 0 0Z" fill="#96803f" opacity="0.2"/><path d="M6 6H86C60 18 44 40 34 74" fill="none" stroke="#dcc07a" stroke-width="2" opacity="0.3"/></g><g transform="translate(784 16) scale(-0.8 0.8)"><path d="M0 0H108C86 8 70 22 62 44C54 66 40 82 18 90V108C-2 96-8 74-2 54C4 34 20 22 44 18C24 16 8 10 0 0Z" fill="#96803f" opacity="0.2"/><path d="M6 6H86C60 18 44 40 34 74" fill="none" stroke="#dcc07a" stroke-width="2" opacity="0.3"/></g><g transform="translate(16 584) scale(0.8 -0.8)"><path d="M0 0H108C86 8 70 22 62 44C54 66 40 82 18 90V108C-2 96-8 74-2 54C4 34 20 22 44 18C24 16 8 10 0 0Z" fill="#96803f" opacity="0.2"/><path d="M6 6H86C60 18 44 40 34 74" fill="none" stroke="#dcc07a" stroke-width="2" opacity="0.3"/></g><g transform="translate(784 584) scale(-0.8 -0.8)"><path d="M0 0H108C86 8 70 22 62 44C54 66 40 82 18 90V108C-2 96-8 74-2 54C4 34 20 22 44 18C24 16 8 10 0 0Z" fill="#96803f" opacity="0.2"/><path d="M6 6H86C60 18 44 40 34 74" fill="none" stroke="#dcc07a" stroke-width="2" opacity="0.3"/></g></g><g fill="none"><rect x="16" y="16" width="768" height="568" stroke="#96803f" stroke-width="2.4" opacity="0.5" rx="8"/><rect x="23" y="23" width="754" height="554" stroke="#dcc07a" stroke-width="1" opacity="0.3" rx="5"/></g><rect x="0" y="0" width="800" height="600" fill="url(#gVig)"/></svg>
